<svg xmlns="http://www.w3.org/2000/svg" width="1096.108" height="298.631" viewBox="0 0 1096.108 298.631">
  <g id="Grupo_13499" data-name="Grupo 13499" transform="translate(-166.649 -4314.237)">
    <path id="Trazado_12129" data-name="Trazado 12129" d="M300.328,4340.547v-18.936c0-4.073-2.205-7.374-4.926-7.374H173.074c-2.72,0-4.926,3.3-4.926,7.374v18.936l4.576,6.85-4.576,6.849v18.936c0,4.073,2.206,7.375,4.926,7.375H295.4c2.721,0,4.926-3.3,4.926-7.375v-18.936l4.576-6.849Z" fill="#c0e54c"/>
    <g id="Grupo_13481" data-name="Grupo 13481">
      <g id="Grupo_13480" data-name="Grupo 13480">
        <path id="Trazado_12130" data-name="Trazado 12130" d="M193.292,4334.608l-1.231-3.172h-4.715l-1.206,3.172h-2.126l4.614-11.469h2.193l4.613,11.469Zm-1.762-4.782-1.156-3.109q-.127-.312-.35-.984t-.308-.985a16.6,16.6,0,0,1-.666,2.1l-1.114,2.976Z" fill="#00223d"/>
        <path id="Trazado_12131" data-name="Trazado 12131" d="M200,4334.764a3.354,3.354,0,0,1-2.724-1.172,6.019,6.019,0,0,1,.013-6.6,3.387,3.387,0,0,1,2.745-1.183,3.308,3.308,0,0,1,2.8,1.258h.1a10.3,10.3,0,0,1-.143-1.469v-3.149h1.991v12.157h-1.552l-.346-1.133h-.093A3.256,3.256,0,0,1,200,4334.764Zm.532-1.484a2.245,2.245,0,0,0,1.779-.637,3.177,3.177,0,0,0,.574-2.067v-.257a3.649,3.649,0,0,0-.574-2.321,2.208,2.208,0,0,0-1.8-.687,1.868,1.868,0,0,0-1.611.785,3.786,3.786,0,0,0-.565,2.238,3.693,3.693,0,0,0,.548,2.192A1.9,1.9,0,0,0,200.529,4333.28Z" fill="#00223d"/>
        <path id="Trazado_12132" data-name="Trazado 12132" d="M210.742,4334.764a3.33,3.33,0,0,1-2.707-1.176,5.989,5.989,0,0,1,.017-6.586,3.38,3.38,0,0,1,2.741-1.191,3.925,3.925,0,0,1,1.573.3,3.239,3.239,0,0,1,1.244.988h.068l.219-1.133h1.645v12.484h-1.991v-3.664q0-.344.034-.726t.059-.586h-.11A3.136,3.136,0,0,1,210.742,4334.764Zm.566-1.469a2.179,2.179,0,0,0,1.792-.668,3.15,3.15,0,0,0,.544-2.019v-.289a3.722,3.722,0,0,0-.561-2.3,2.176,2.176,0,0,0-1.809-.7,1.865,1.865,0,0,0-1.619.781,3.827,3.827,0,0,0-.557,2.242Q209.1,4333.3,211.308,4333.295Z" fill="#00223d"/>
        <path id="Trazado_12133" data-name="Trazado 12133" d="M224.954,4334.608l-.278-1.133h-.1a2.756,2.756,0,0,1-1.177.945,4.2,4.2,0,0,1-1.742.344,3.591,3.591,0,0,1-2.53-.781,3.1,3.1,0,0,1-.835-2.368v-5.648h2v5.328a2.185,2.185,0,0,0,.439,1.488,1.745,1.745,0,0,0,1.375.5,2.274,2.274,0,0,0,1.834-.692,3.592,3.592,0,0,0,.586-2.316v-4.305h1.991v8.641Z" fill="#00223d"/>
        <path id="Trazado_12134" data-name="Trazado 12134" d="M229.222,4323.678a.975.975,0,0,1,.291-.758,1.19,1.19,0,0,1,.83-.265,1.163,1.163,0,0,1,.814.265.972.972,0,0,1,.291.758.952.952,0,0,1-.291.738,1.148,1.148,0,0,1-.814.27,1.176,1.176,0,0,1-.83-.27A.956.956,0,0,1,229.222,4323.678Zm2.1,10.93H229.34v-8.641h1.982Z" fill="#00223d"/>
        <path id="Trazado_12135" data-name="Trazado 12135" d="M240.423,4332.147a2.2,2.2,0,0,1-1,1.941,5.052,5.052,0,0,1-2.851.676,7.185,7.185,0,0,1-2.994-.524v-1.585a7.837,7.837,0,0,0,3.062.7q1.828,0,1.83-1.024a.775.775,0,0,0-.2-.547,2.411,2.411,0,0,0-.666-.453,12.077,12.077,0,0,0-1.29-.531,6.088,6.088,0,0,1-2.181-1.156,2.05,2.05,0,0,1-.569-1.5,1.934,1.934,0,0,1,.966-1.723,4.869,4.869,0,0,1,2.627-.613,7.947,7.947,0,0,1,3.112.617l-.641,1.383a7.377,7.377,0,0,0-2.538-.578q-1.569,0-1.569.828a.817.817,0,0,0,.409.687,9.251,9.251,0,0,0,1.784.774,8.42,8.42,0,0,1,1.678.758,2.327,2.327,0,0,1,.776.793A2.147,2.147,0,0,1,240.423,4332.147Z" fill="#00223d"/>
        <path id="Trazado_12136" data-name="Trazado 12136" d="M242.447,4323.678a.975.975,0,0,1,.291-.758,1.191,1.191,0,0,1,.831-.265,1.166,1.166,0,0,1,.814.265.975.975,0,0,1,.291.758.956.956,0,0,1-.291.738,1.152,1.152,0,0,1-.814.27,1.177,1.177,0,0,1-.831-.27A.956.956,0,0,1,242.447,4323.678Zm2.1,10.93h-1.982v-8.641h1.982Z" fill="#00223d"/>
        <path id="Trazado_12137" data-name="Trazado 12137" d="M251.143,4334.764a4.258,4.258,0,0,1-3.218-1.145,5.451,5.451,0,0,1,.051-6.636,4.454,4.454,0,0,1,3.327-1.172,6.657,6.657,0,0,1,2.657.508l-.6,1.476a6.419,6.419,0,0,0-2.075-.453q-2.421,0-2.421,2.977a3.375,3.375,0,0,0,.6,2.183,2.162,2.162,0,0,0,1.768.731,5.379,5.379,0,0,0,2.5-.61v1.6a4.082,4.082,0,0,1-1.134.414A7.356,7.356,0,0,1,251.143,4334.764Z" fill="#00223d"/>
        <path id="Trazado_12138" data-name="Trazado 12138" d="M255.816,4323.678a.975.975,0,0,1,.291-.758,1.189,1.189,0,0,1,.83-.265,1.164,1.164,0,0,1,.814.265.972.972,0,0,1,.291.758.952.952,0,0,1-.291.738,1.15,1.15,0,0,1-.814.27,1.174,1.174,0,0,1-.83-.27A.956.956,0,0,1,255.816,4323.678Zm2.1,10.93h-1.982v-8.641h1.982Z" fill="#00223d"/>
        <path id="Trazado_12139" data-name="Trazado 12139" d="M269.024,4330.272a4.5,4.5,0,0,1-1.173,3.3,4.377,4.377,0,0,1-3.264,1.188,4.75,4.75,0,0,1-2.311-.547,3.724,3.724,0,0,1-1.543-1.57,5.016,5.016,0,0,1-.54-2.375,4.472,4.472,0,0,1,1.164-3.282,4.4,4.4,0,0,1,3.281-1.179,4.275,4.275,0,0,1,3.2,1.207A4.454,4.454,0,0,1,269.024,4330.272Zm-6.79,0q0,2.993,2.387,2.992,2.363,0,2.362-2.992,0-2.961-2.379-2.961a2.092,2.092,0,0,0-1.809.765A3.674,3.674,0,0,0,262.234,4330.272Zm1.088-5.36v-.2q.482-.546.991-1.219t.806-1.148h2.3v.164a16.464,16.464,0,0,1-1.311,1.23,18.13,18.13,0,0,1-1.472,1.168Z" fill="#00223d"/>
        <path id="Trazado_12140" data-name="Trazado 12140" d="M279.508,4334.608h-1.991v-5.313a2.2,2.2,0,0,0-.434-1.492,1.751,1.751,0,0,0-1.379-.492,2.281,2.281,0,0,0-1.839.687,3.583,3.583,0,0,0-.582,2.305v4.3H271.3v-8.641h1.552l.278,1.133h.1a2.707,2.707,0,0,1,1.2-.953,4.287,4.287,0,0,1,1.721-.336q3.355,0,3.357,3.164Z" fill="#00223d"/>
        <path id="Trazado_12141" data-name="Trazado 12141" d="M219.219,4351.764a3.354,3.354,0,0,1-2.724-1.172,6.019,6.019,0,0,1,.013-6.6,3.387,3.387,0,0,1,2.745-1.183,3.308,3.308,0,0,1,2.8,1.258h.1a10.178,10.178,0,0,1-.144-1.469v-3.149H224v12.157H222.45l-.346-1.133h-.093A3.256,3.256,0,0,1,219.219,4351.764Zm.532-1.484a2.249,2.249,0,0,0,1.78-.637,3.172,3.172,0,0,0,.573-2.067v-.257a3.656,3.656,0,0,0-.573-2.321,2.212,2.212,0,0,0-1.8-.687,1.868,1.868,0,0,0-1.611.785,3.786,3.786,0,0,0-.565,2.238,3.693,3.693,0,0,0,.548,2.192A1.9,1.9,0,0,0,219.751,4350.28Z" fill="#00223d"/>
        <path id="Trazado_12142" data-name="Trazado 12142" d="M230.909,4351.764a4.717,4.717,0,0,1-3.4-1.176,4.272,4.272,0,0,1-1.227-3.238,4.661,4.661,0,0,1,1.139-3.328,4.086,4.086,0,0,1,3.129-1.211,4.012,4.012,0,0,1,2.918,1.039,3.8,3.8,0,0,1,1.071,2.859v.992H228.32a2.714,2.714,0,0,0,.734,1.934,2.667,2.667,0,0,0,1.948.676,7.68,7.68,0,0,0,1.539-.145,8.517,8.517,0,0,0,1.532-.48v1.492a6.4,6.4,0,0,1-1.468.453A9.714,9.714,0,0,1,230.909,4351.764Zm-.362-7.563a2.076,2.076,0,0,0-1.514.555,2.539,2.539,0,0,0-.679,1.617h4.234a2.283,2.283,0,0,0-.557-1.621A1.982,1.982,0,0,0,230.547,4344.2Z" fill="#00223d"/>
        <path id="Trazado_12143" data-name="Trazado 12143" d="M243.257,4351.608h-1.982v-12.157h1.982Z" fill="#00223d"/>
        <path id="Trazado_12144" data-name="Trazado 12144" d="M251.927,4351.608l-.4-1.2h-.067a3.765,3.765,0,0,1-1.358,1.074,4.6,4.6,0,0,1-1.755.285,3.111,3.111,0,0,1-2.146-.688,2.466,2.466,0,0,1-.772-1.945,2.234,2.234,0,0,1,1.071-2.016,6.566,6.566,0,0,1,3.264-.742l1.611-.047v-.461a1.668,1.668,0,0,0-.417-1.238,1.789,1.789,0,0,0-1.295-.41,4.82,4.82,0,0,0-1.375.2,11.207,11.207,0,0,0-1.265.461l-.641-1.312a7.257,7.257,0,0,1,1.662-.559,8.261,8.261,0,0,1,1.7-.191,4.264,4.264,0,0,1,2.686.719,2.706,2.706,0,0,1,.906,2.257v5.821Zm-2.952-1.25a2.575,2.575,0,0,0,1.734-.559,1.95,1.95,0,0,0,.654-1.566v-.75l-1.2.047a4.36,4.36,0,0,0-2.037.433,1.29,1.29,0,0,0-.637,1.184,1.109,1.109,0,0,0,.371.894A1.682,1.682,0,0,0,248.975,4350.358Z" fill="#00223d"/>
        <path id="Trazado_12145" data-name="Trazado 12145" d="M184.15,4368.608h-1.991v-5.328a2.285,2.285,0,0,0-.4-1.481,1.552,1.552,0,0,0-1.265-.488,2,2,0,0,0-1.683.691,3.819,3.819,0,0,0-.535,2.3v4.3h-1.982v-8.641h1.552l.278,1.133h.1a2.527,2.527,0,0,1,1.126-.953,3.873,3.873,0,0,1,1.624-.336,2.9,2.9,0,0,1,2.851,1.359h.134a2.783,2.783,0,0,1,1.164-1,3.955,3.955,0,0,1,1.721-.359,2.765,2.765,0,0,1,3.2,3.164v5.633h-1.983v-5.328a2.273,2.273,0,0,0-.408-1.481,1.567,1.567,0,0,0-1.27-.488,2.037,2.037,0,0,0-1.691.668,3.249,3.249,0,0,0-.535,2.051Z" fill="#00223d"/>
        <path id="Trazado_12146" data-name="Trazado 12146" d="M198.639,4368.608l-.4-1.2h-.067a3.765,3.765,0,0,1-1.358,1.074,4.6,4.6,0,0,1-1.755.285,3.111,3.111,0,0,1-2.146-.688,2.466,2.466,0,0,1-.772-1.945,2.234,2.234,0,0,1,1.071-2.016,6.566,6.566,0,0,1,3.264-.742l1.611-.047v-.461a1.668,1.668,0,0,0-.417-1.238,1.789,1.789,0,0,0-1.295-.41,4.82,4.82,0,0,0-1.375.2,11.206,11.206,0,0,0-1.265.461l-.641-1.312a7.257,7.257,0,0,1,1.662-.559,8.261,8.261,0,0,1,1.7-.191,4.264,4.264,0,0,1,2.686.719,2.706,2.706,0,0,1,.906,2.257v5.821Zm-2.952-1.25a2.575,2.575,0,0,0,1.734-.559,1.949,1.949,0,0,0,.653-1.566v-.75l-1.2.047a4.36,4.36,0,0,0-2.037.433,1.29,1.29,0,0,0-.637,1.184,1.109,1.109,0,0,0,.371.894A1.682,1.682,0,0,0,195.687,4367.358Z" fill="#00223d"/>
        <path id="Trazado_12147" data-name="Trazado 12147" d="M206.3,4367.28a5.2,5.2,0,0,0,1.451-.211v1.382a4.232,4.232,0,0,1-.848.223,6.276,6.276,0,0,1-1.076.09q-2.815,0-2.816-2.75v-4.656h-1.274v-.813l1.366-.672.675-1.828H205v1.922h2.657v1.391H205v4.625a1.237,1.237,0,0,0,.359.98A1.366,1.366,0,0,0,206.3,4367.28Z" fill="#00223d"/>
        <path id="Trazado_12148" data-name="Trazado 12148" d="M213.686,4368.764a4.717,4.717,0,0,1-3.4-1.176,4.272,4.272,0,0,1-1.227-3.238,4.661,4.661,0,0,1,1.139-3.328,4.084,4.084,0,0,1,3.128-1.211,4.013,4.013,0,0,1,2.919,1.039,3.8,3.8,0,0,1,1.071,2.859v.992H211.1a2.71,2.71,0,0,0,.734,1.934,2.667,2.667,0,0,0,1.948.676,7.68,7.68,0,0,0,1.539-.145,8.509,8.509,0,0,0,1.531-.48v1.492a6.392,6.392,0,0,1-1.467.453A9.714,9.714,0,0,1,213.686,4368.764Zm-.363-7.563a2.075,2.075,0,0,0-1.513.555,2.539,2.539,0,0,0-.679,1.617h4.233a2.279,2.279,0,0,0-.556-1.621A1.984,1.984,0,0,0,213.323,4361.2Z" fill="#00223d"/>
        <path id="Trazado_12149" data-name="Trazado 12149" d="M224.3,4359.811a5.115,5.115,0,0,1,.986.078l-.193,1.711a4.009,4.009,0,0,0-.877-.094,2.648,2.648,0,0,0-1.928.719,2.489,2.489,0,0,0-.738,1.867v4.516h-1.982v-8.641h1.552l.262,1.523h.1a3.54,3.54,0,0,1,1.21-1.226A3.041,3.041,0,0,1,224.3,4359.811Z" fill="#00223d"/>
        <path id="Trazado_12150" data-name="Trazado 12150" d="M226.894,4357.678a.975.975,0,0,1,.291-.758,1.191,1.191,0,0,1,.831-.265,1.166,1.166,0,0,1,.814.265.975.975,0,0,1,.291.758.956.956,0,0,1-.291.738,1.152,1.152,0,0,1-.814.27,1.177,1.177,0,0,1-.831-.27A.956.956,0,0,1,226.894,4357.678Zm2.1,10.93h-1.982v-8.641h1.982Z" fill="#00223d"/>
        <path id="Trazado_12151" data-name="Trazado 12151" d="M237.665,4368.608l-.4-1.2H237.2a3.749,3.749,0,0,1-1.358,1.074,4.6,4.6,0,0,1-1.754.285,3.111,3.111,0,0,1-2.146-.688,2.466,2.466,0,0,1-.772-1.945,2.234,2.234,0,0,1,1.071-2.016,6.566,6.566,0,0,1,3.264-.742l1.611-.047v-.461a1.664,1.664,0,0,0-.418-1.238,1.786,1.786,0,0,0-1.294-.41,4.82,4.82,0,0,0-1.375.2,11.206,11.206,0,0,0-1.265.461l-.641-1.312a7.265,7.265,0,0,1,1.661-.559,8.275,8.275,0,0,1,1.7-.191,4.265,4.265,0,0,1,2.687.719,2.706,2.706,0,0,1,.906,2.257v5.821Zm-2.952-1.25a2.575,2.575,0,0,0,1.734-.559,1.949,1.949,0,0,0,.653-1.566v-.75l-1.2.047a4.368,4.368,0,0,0-2.038.433,1.291,1.291,0,0,0-.636,1.184,1.109,1.109,0,0,0,.371.894A1.678,1.678,0,0,0,234.713,4367.358Z" fill="#00223d"/>
        <path id="Trazado_12152" data-name="Trazado 12152" d="M251.067,4368.764a3.37,3.37,0,0,1-2.749-1.18H248.2c.079.73.119,1.172.119,1.328v3.539h-1.982v-12.484h1.6q.067.243.279,1.156h.1a3.182,3.182,0,0,1,2.783-1.312,3.34,3.34,0,0,1,2.72,1.172,6.022,6.022,0,0,1-.017,6.593A3.372,3.372,0,0,1,251.067,4368.764Zm-.48-7.453a2.143,2.143,0,0,0-1.725.64,3.136,3.136,0,0,0-.544,2.047v.274a3.8,3.8,0,0,0,.54,2.285,2.076,2.076,0,0,0,1.762.707,1.831,1.831,0,0,0,1.586-.781,3.8,3.8,0,0,0,.556-2.227,3.668,3.668,0,0,0-.552-2.2A1.893,1.893,0,0,0,250.587,4361.311Z" fill="#00223d"/>
        <path id="Trazado_12153" data-name="Trazado 12153" d="M261.829,4359.811a5.119,5.119,0,0,1,.987.078l-.194,1.711a4,4,0,0,0-.877-.094,2.645,2.645,0,0,0-1.927.719,2.489,2.489,0,0,0-.738,1.867v4.516H257.1v-8.641h1.552l.261,1.523h.1a3.542,3.542,0,0,1,1.211-1.226A3.038,3.038,0,0,1,261.829,4359.811Z" fill="#00223d"/>
        <path id="Trazado_12154" data-name="Trazado 12154" d="M264.427,4357.678a.975.975,0,0,1,.291-.758,1.191,1.191,0,0,1,.831-.265,1.166,1.166,0,0,1,.814.265.975.975,0,0,1,.291.758.956.956,0,0,1-.291.738,1.152,1.152,0,0,1-.814.27,1.177,1.177,0,0,1-.831-.27A.956.956,0,0,1,264.427,4357.678Zm2.1,10.93h-1.982v-8.641h1.982Z" fill="#00223d"/>
        <path id="Trazado_12155" data-name="Trazado 12155" d="M277.222,4368.608h-1.991v-5.328a2.285,2.285,0,0,0-.4-1.481,1.552,1.552,0,0,0-1.265-.488,1.994,1.994,0,0,0-1.682.691,3.818,3.818,0,0,0-.536,2.3v4.3h-1.982v-8.641h1.552l.278,1.133h.1a2.521,2.521,0,0,1,1.126-.953,3.865,3.865,0,0,1,1.623-.336,2.9,2.9,0,0,1,2.851,1.359h.135a2.771,2.771,0,0,1,1.164-1,3.948,3.948,0,0,1,1.72-.359,2.765,2.765,0,0,1,3.2,3.164v5.633h-1.982v-5.328a2.273,2.273,0,0,0-.409-1.481,1.567,1.567,0,0,0-1.27-.488,2.034,2.034,0,0,0-1.69.668,3.242,3.242,0,0,0-.536,2.051Z" fill="#00223d"/>
        <path id="Trazado_12156" data-name="Trazado 12156" d="M291.712,4368.608l-.4-1.2h-.068a3.748,3.748,0,0,1-1.358,1.074,4.6,4.6,0,0,1-1.754.285,3.113,3.113,0,0,1-2.147-.688,2.469,2.469,0,0,1-.771-1.945,2.235,2.235,0,0,1,1.071-2.016,6.566,6.566,0,0,1,3.264-.742l1.611-.047v-.461a1.664,1.664,0,0,0-.418-1.238,1.786,1.786,0,0,0-1.294-.41,4.82,4.82,0,0,0-1.375.2,11.136,11.136,0,0,0-1.265.461l-.641-1.312a7.265,7.265,0,0,1,1.661-.559,8.276,8.276,0,0,1,1.7-.191,4.262,4.262,0,0,1,2.686.719,2.7,2.7,0,0,1,.907,2.257v5.821Zm-2.952-1.25a2.571,2.571,0,0,0,1.733-.559,1.947,1.947,0,0,0,.654-1.566v-.75l-1.2.047a4.366,4.366,0,0,0-2.037.433,1.291,1.291,0,0,0-.636,1.184,1.109,1.109,0,0,0,.371.894A1.678,1.678,0,0,0,288.76,4367.358Z" fill="#00223d"/>
      </g>
    </g>
    <path id="Trazado_12157" data-name="Trazado 12157" d="M437.085,4340.547v-18.936c0-4.073-2.206-7.374-4.927-7.374H309.831c-2.721,0-4.927,3.3-4.927,7.374v18.936l4.576,6.85-4.576,6.849v18.936c0,4.073,2.206,7.375,4.927,7.375H432.158c2.721,0,4.927-3.3,4.927-7.375v-18.936l4.576-6.849Z" fill="#46ad92"/>
    <path id="Trazado_12158" data-name="Trazado 12158" d="M573.842,4340.547v-18.936c0-4.073-2.206-7.374-4.927-7.374H446.588c-2.721,0-4.927,3.3-4.927,7.374v18.936l4.576,6.85-4.576,6.849v18.936c0,4.073,2.206,7.375,4.927,7.375H568.915c2.721,0,4.927-3.3,4.927-7.375v-18.936l4.576-6.849Z" fill="#2f967d"/>
    <path id="Trazado_12159" data-name="Trazado 12159" d="M710.6,4340.547v-18.936c0-4.073-2.205-7.374-4.926-7.374H583.344c-2.721,0-4.926,3.3-4.926,7.374v18.936l4.576,6.85-4.576,6.849v18.936c0,4.073,2.2,7.375,4.926,7.375H705.672c2.721,0,4.926-3.3,4.926-7.375v-18.936l4.576-6.849Z" fill="#2a846d"/>
    <path id="Trazado_12160" data-name="Trazado 12160" d="M847.355,4340.547v-18.936c0-4.073-2.206-7.374-4.927-7.374H720.1c-2.721,0-4.927,3.3-4.927,7.374v18.936l4.576,6.85-4.576,6.849v18.936c0,4.073,2.206,7.375,4.927,7.375H842.428c2.721,0,4.927-3.3,4.927-7.375v-18.936l4.576-6.849Z" fill="#227a61"/>
    <path id="Trazado_12161" data-name="Trazado 12161" d="M984.667,4340.547v-18.936c0-4.073-2.205-7.374-4.926-7.374H857.413c-2.721,0-4.926,3.3-4.926,7.374v18.936l4.576,6.85-4.576,6.849v18.936c0,4.073,2.205,7.375,4.926,7.375H979.741c2.721,0,4.926-3.3,4.926-7.375v-18.936l4.576-6.849Z" fill="#1d6d54"/>
    <path id="Trazado_12162" data-name="Trazado 12162" d="M1121.424,4340.547v-18.936c0-4.073-2.206-7.374-4.927-7.374H994.17c-2.721,0-4.927,3.3-4.927,7.374v18.936l4.576,6.85-4.576,6.849v18.936c0,4.073,2.206,7.375,4.927,7.375H1116.5c2.721,0,4.927-3.3,4.927-7.375v-18.936L1126,4347.4Z" fill="#186048"/>
    <path id="Trazado_12163" data-name="Trazado 12163" d="M1258.181,4340.547v-18.936c0-4.073-2.206-7.374-4.927-7.374H1130.927c-2.721,0-4.927,3.3-4.927,7.374v18.936l4.576,6.85-4.576,6.849v18.936c0,4.073,2.206,7.375,4.927,7.375h122.327c2.721,0,4.927-3.3,4.927-7.375v-18.936l4.576-6.849Z" fill="#124f39"/>
    <g id="Grupo_13483" data-name="Grupo 13483">
      <g id="Grupo_13482" data-name="Grupo 13482">
        <path id="Trazado_12164" data-name="Trazado 12164" d="M354.864,4346.089a5.459,5.459,0,0,1-1.7,4.324,7.156,7.156,0,0,1-4.883,1.5h-3.45v-11.422h3.812a6.618,6.618,0,0,1,4.58,1.469A5.267,5.267,0,0,1,354.864,4346.089Zm-2.126.062q0-4.1-4.141-4.1h-1.746v8.289h1.434Q352.738,4350.339,352.738,4346.151Z" fill="#fff"/>
        <path id="Trazado_12165" data-name="Trazado 12165" d="M357.183,4340.979a.975.975,0,0,1,.291-.758,1.193,1.193,0,0,1,.83-.265,1.165,1.165,0,0,1,.814.265.972.972,0,0,1,.291.758.954.954,0,0,1-.291.739,1.153,1.153,0,0,1-.814.269,1.18,1.18,0,0,1-.83-.269A.957.957,0,0,1,357.183,4340.979Zm2.1,10.93H357.3v-8.641h1.982Z" fill="#fff"/>
        <path id="Trazado_12166" data-name="Trazado 12166" d="M368.384,4349.448a2.2,2.2,0,0,1-1,1.941,5.052,5.052,0,0,1-2.851.676,7.2,7.2,0,0,1-2.994-.523v-1.586a7.832,7.832,0,0,0,3.062.7q1.83,0,1.83-1.024a.773.773,0,0,0-.2-.546,2.41,2.41,0,0,0-.666-.454,12.108,12.108,0,0,0-1.291-.531,6.067,6.067,0,0,1-2.18-1.156,2.044,2.044,0,0,1-.569-1.5,1.934,1.934,0,0,1,.965-1.723,4.873,4.873,0,0,1,2.627-.613,7.956,7.956,0,0,1,3.113.617l-.641,1.383a7.4,7.4,0,0,0-2.539-.578q-1.569,0-1.569.828a.82.82,0,0,0,.409.688,9.387,9.387,0,0,0,1.784.773,8.435,8.435,0,0,1,1.679.758,2.34,2.34,0,0,1,.776.793A2.161,2.161,0,0,1,368.384,4349.448Z" fill="#fff"/>
        <path id="Trazado_12167" data-name="Trazado 12167" d="M374.6,4352.065a4.713,4.713,0,0,1-3.4-1.176,4.273,4.273,0,0,1-1.228-3.238,4.666,4.666,0,0,1,1.139-3.328,4.088,4.088,0,0,1,3.129-1.211,4.021,4.021,0,0,1,2.919,1.039,3.8,3.8,0,0,1,1.071,2.859V4348H372.01a2.718,2.718,0,0,0,.734,1.933,2.669,2.669,0,0,0,1.949.676,7.762,7.762,0,0,0,1.539-.144,8.556,8.556,0,0,0,1.531-.481v1.492a6.387,6.387,0,0,1-1.468.453A9.659,9.659,0,0,1,374.6,4352.065Zm-.363-7.562a2.079,2.079,0,0,0-1.514.554,2.54,2.54,0,0,0-.679,1.618h4.234a2.279,2.279,0,0,0-.557-1.622A1.98,1.98,0,0,0,374.237,4344.5Z" fill="#fff"/>
        <path id="Trazado_12168" data-name="Trazado 12168" d="M388.685,4351.909h-1.991V4346.6a2.2,2.2,0,0,0-.434-1.492,1.751,1.751,0,0,0-1.379-.492,2.281,2.281,0,0,0-1.839.688,3.578,3.578,0,0,0-.582,2.3v4.305h-1.982v-8.641h1.552l.278,1.133h.1a2.712,2.712,0,0,1,1.2-.953,4.287,4.287,0,0,1,1.721-.336q3.357,0,3.357,3.164Zm-2.8-9.7a1.867,1.867,0,0,1-.7-.137c-.228-.091-.451-.192-.671-.305s-.433-.213-.641-.3a1.5,1.5,0,0,0-.6-.137q-.684,0-.92.9H381.33a2.659,2.659,0,0,1,.654-1.656,1.88,1.88,0,0,1,1.413-.57,1.93,1.93,0,0,1,.708.136c.231.092.455.193.675.3s.431.214.637.305a1.462,1.462,0,0,0,.594.136q.666,0,.894-.9h1.054a2.708,2.708,0,0,1-.649,1.637A1.857,1.857,0,0,1,385.885,4342.214Z" fill="#fff"/>
        <path id="Trazado_12169" data-name="Trazado 12169" d="M399.717,4347.573a4.5,4.5,0,0,1-1.172,3.3,4.379,4.379,0,0,1-3.264,1.187,4.756,4.756,0,0,1-2.312-.547,3.73,3.73,0,0,1-1.543-1.57,5.016,5.016,0,0,1-.54-2.375,4.465,4.465,0,0,1,1.165-3.281,4.4,4.4,0,0,1,3.28-1.18,4.277,4.277,0,0,1,3.205,1.207A4.456,4.456,0,0,1,399.717,4347.573Zm-6.79,0q0,2.992,2.387,2.992,2.363,0,2.362-2.992,0-2.961-2.378-2.961a2.089,2.089,0,0,0-1.809.766A3.664,3.664,0,0,0,392.927,4347.573Z" fill="#fff"/>
      </g>
    </g>
    <g id="Grupo_13485" data-name="Grupo 13485">
      <g id="Grupo_13484" data-name="Grupo 13484">
        <path id="Trazado_12170" data-name="Trazado 12170" d="M472.937,4343.94a3.226,3.226,0,0,1-1.265,2.742,5.891,5.891,0,0,1-3.6.953h-1.283v4.274h-2.015v-11.422h3.55a5.69,5.69,0,0,1,3.463.875A3.04,3.04,0,0,1,472.937,4343.94Zm-6.149,2.125h1.072a4.074,4.074,0,0,0,2.277-.5,1.765,1.765,0,0,0,.725-1.562,1.713,1.713,0,0,0-.649-1.469,3.4,3.4,0,0,0-2.024-.484h-1.4Z" fill="#fff"/>
        <path id="Trazado_12171" data-name="Trazado 12171" d="M479.921,4343.112a5.155,5.155,0,0,1,.986.078l-.193,1.711a4.07,4.07,0,0,0-.877-.094,2.647,2.647,0,0,0-1.928.719,2.493,2.493,0,0,0-.738,1.867v4.516h-1.982v-8.641h1.552l.262,1.524h.1a3.538,3.538,0,0,1,1.21-1.227A3.046,3.046,0,0,1,479.921,4343.112Z" fill="#fff"/>
        <path id="Trazado_12172" data-name="Trazado 12172" d="M490.91,4347.573a4.5,4.5,0,0,1-1.172,3.3,4.379,4.379,0,0,1-3.264,1.187,4.75,4.75,0,0,1-2.311-.547,3.727,3.727,0,0,1-1.544-1.57,5.028,5.028,0,0,1-.539-2.375,4.469,4.469,0,0,1,1.164-3.281,4.4,4.4,0,0,1,3.281-1.18,4.278,4.278,0,0,1,3.205,1.207A4.455,4.455,0,0,1,490.91,4347.573Zm-6.789,0q0,2.992,2.387,2.992,2.361,0,2.361-2.992,0-2.961-2.378-2.961a2.089,2.089,0,0,0-1.809.766A3.671,3.671,0,0,0,484.121,4347.573Z" fill="#fff"/>
        <path id="Trazado_12173" data-name="Trazado 12173" d="M496.334,4352.065a3.351,3.351,0,0,1-2.724-1.172,6.016,6.016,0,0,1,.012-6.6,3.387,3.387,0,0,1,2.745-1.184,3.309,3.309,0,0,1,2.8,1.258h.1a10.188,10.188,0,0,1-.144-1.469v-3.148h1.991v12.156h-1.552l-.346-1.133h-.093A3.255,3.255,0,0,1,496.334,4352.065Zm.531-1.484a2.246,2.246,0,0,0,1.78-.637,3.167,3.167,0,0,0,.573-2.066v-.258a3.652,3.652,0,0,0-.573-2.32,2.212,2.212,0,0,0-1.8-.688,1.868,1.868,0,0,0-1.611.785,3.8,3.8,0,0,0-.565,2.238,3.7,3.7,0,0,0,.548,2.192A1.9,1.9,0,0,0,496.865,4350.581Z" fill="#fff"/>
        <path id="Trazado_12174" data-name="Trazado 12174" d="M510.529,4351.909l-.279-1.133h-.1a2.757,2.757,0,0,1-1.177.945,4.2,4.2,0,0,1-1.741.344,3.592,3.592,0,0,1-2.531-.781,3.1,3.1,0,0,1-.835-2.367v-5.649h2v5.328a2.189,2.189,0,0,0,.439,1.489,1.743,1.743,0,0,0,1.375.5,2.274,2.274,0,0,0,1.834-.692,3.593,3.593,0,0,0,.586-2.316v-4.305h1.991v8.641Z" fill="#fff"/>
        <path id="Trazado_12175" data-name="Trazado 12175" d="M518.676,4352.065a4.26,4.26,0,0,1-3.218-1.144,5.455,5.455,0,0,1,.051-6.637,4.458,4.458,0,0,1,3.327-1.172,6.648,6.648,0,0,1,2.657.508l-.6,1.476a6.431,6.431,0,0,0-2.074-.453q-2.422,0-2.421,2.977a3.367,3.367,0,0,0,.6,2.183,2.157,2.157,0,0,0,1.767.731,5.386,5.386,0,0,0,2.505-.609v1.6a4.073,4.073,0,0,1-1.135.414A7.355,7.355,0,0,1,518.676,4352.065Z" fill="#fff"/>
        <path id="Trazado_12176" data-name="Trazado 12176" d="M527.229,4352.065a4.26,4.26,0,0,1-3.218-1.144,5.451,5.451,0,0,1,.051-6.637,4.456,4.456,0,0,1,3.327-1.172,6.648,6.648,0,0,1,2.657.508l-.6,1.476a6.432,6.432,0,0,0-2.075-.453q-2.421,0-2.421,2.977a3.373,3.373,0,0,0,.6,2.183,2.159,2.159,0,0,0,1.768.731,5.385,5.385,0,0,0,2.5-.609v1.6a4.067,4.067,0,0,1-1.134.414A7.356,7.356,0,0,1,527.229,4352.065Z" fill="#fff"/>
        <path id="Trazado_12177" data-name="Trazado 12177" d="M531.9,4340.979a.975.975,0,0,1,.291-.758,1.193,1.193,0,0,1,.831-.265,1.168,1.168,0,0,1,.814.265.975.975,0,0,1,.291.758.957.957,0,0,1-.291.739,1.156,1.156,0,0,1-.814.269,1.181,1.181,0,0,1-.831-.269A.957.957,0,0,1,531.9,4340.979Zm2.1,10.93h-1.982v-8.641H534Z" fill="#fff"/>
        <path id="Trazado_12178" data-name="Trazado 12178" d="M545.109,4347.573a4.5,4.5,0,0,1-1.172,3.3,4.379,4.379,0,0,1-3.264,1.187,4.75,4.75,0,0,1-2.311-.547,3.727,3.727,0,0,1-1.544-1.57,5.016,5.016,0,0,1-.539-2.375,4.465,4.465,0,0,1,1.164-3.281,4.4,4.4,0,0,1,3.28-1.18,4.277,4.277,0,0,1,3.2,1.207A4.452,4.452,0,0,1,545.109,4347.573Zm-6.789,0q0,2.992,2.386,2.992,2.363,0,2.362-2.992,0-2.961-2.378-2.961a2.089,2.089,0,0,0-1.809.766A3.672,3.672,0,0,0,538.32,4347.573Zm1.087-5.359v-.2q.482-.546.992-1.218t.8-1.149h2.3v.164a16.868,16.868,0,0,1-1.312,1.231,17.972,17.972,0,0,1-1.472,1.168Z" fill="#fff"/>
        <path id="Trazado_12179" data-name="Trazado 12179" d="M555.593,4351.909H553.6V4346.6a2.2,2.2,0,0,0-.434-1.492,1.748,1.748,0,0,0-1.379-.492,2.282,2.282,0,0,0-1.839.688,3.578,3.578,0,0,0-.582,2.3v4.305h-1.982v-8.641h1.552l.279,1.133h.1a2.712,2.712,0,0,1,1.2-.953,4.287,4.287,0,0,1,1.721-.336q3.357,0,3.357,3.164Z" fill="#fff"/>
      </g>
    </g>
    <g id="Grupo_13487" data-name="Grupo 13487">
      <g id="Grupo_13486" data-name="Grupo 13486">
        <path id="Trazado_12180" data-name="Trazado 12180" d="M606.624,4351.909h-2.016v-9.82h-3.627v-1.6h9.269v1.6h-3.626Z" fill="#fff"/>
        <path id="Trazado_12181" data-name="Trazado 12181" d="M616.66,4343.112a5.158,5.158,0,0,1,.987.078l-.194,1.711a4.056,4.056,0,0,0-.877-.094,2.645,2.645,0,0,0-1.927.719,2.493,2.493,0,0,0-.738,1.867v4.516h-1.982v-8.641h1.552l.261,1.524h.1a3.541,3.541,0,0,1,1.211-1.227A3.045,3.045,0,0,1,616.66,4343.112Z" fill="#fff"/>
        <path id="Trazado_12182" data-name="Trazado 12182" d="M625.213,4351.909l-.4-1.2h-.067a3.768,3.768,0,0,1-1.358,1.074,4.594,4.594,0,0,1-1.755.285,3.117,3.117,0,0,1-2.146-.687,2.468,2.468,0,0,1-.772-1.946,2.234,2.234,0,0,1,1.071-2.015,6.572,6.572,0,0,1,3.264-.742l1.611-.047v-.461a1.668,1.668,0,0,0-.417-1.239,1.787,1.787,0,0,0-1.295-.41,4.82,4.82,0,0,0-1.375.2,11.014,11.014,0,0,0-1.265.461l-.64-1.313a7.256,7.256,0,0,1,1.661-.559,8.229,8.229,0,0,1,1.7-.191,4.264,4.264,0,0,1,2.686.719,2.708,2.708,0,0,1,.907,2.258v5.82Zm-2.953-1.25a2.576,2.576,0,0,0,1.734-.559,1.95,1.95,0,0,0,.654-1.566v-.75l-1.2.047a4.363,4.363,0,0,0-2.037.433,1.292,1.292,0,0,0-.637,1.184,1.112,1.112,0,0,0,.371.895A1.685,1.685,0,0,0,622.26,4350.659Z" fill="#fff"/>
        <path id="Trazado_12183" data-name="Trazado 12183" d="M637.6,4351.909h-1.991V4346.6a2.2,2.2,0,0,0-.434-1.492,1.751,1.751,0,0,0-1.379-.492,2.281,2.281,0,0,0-1.839.688,3.578,3.578,0,0,0-.582,2.3v4.305H629.4v-8.641h1.552l.278,1.133h.1a2.712,2.712,0,0,1,1.2-.953,4.287,4.287,0,0,1,1.721-.336q3.357,0,3.357,3.164Z" fill="#fff"/>
        <path id="Trazado_12184" data-name="Trazado 12184" d="M646.628,4349.448a2.2,2.2,0,0,1-.995,1.941,5.058,5.058,0,0,1-2.852.676,7.2,7.2,0,0,1-2.994-.523v-1.586a7.836,7.836,0,0,0,3.062.7q1.83,0,1.83-1.024a.773.773,0,0,0-.2-.546,2.41,2.41,0,0,0-.666-.454,12.109,12.109,0,0,0-1.291-.531,6.066,6.066,0,0,1-2.18-1.156,2.044,2.044,0,0,1-.569-1.5,1.935,1.935,0,0,1,.966-1.723,4.868,4.868,0,0,1,2.627-.613,7.955,7.955,0,0,1,3.112.617l-.641,1.383a7.4,7.4,0,0,0-2.539-.578q-1.569,0-1.569.828a.822.822,0,0,0,.409.688,9.388,9.388,0,0,0,1.784.773,8.435,8.435,0,0,1,1.679.758,2.331,2.331,0,0,1,.776.793A2.161,2.161,0,0,1,646.628,4349.448Z" fill="#fff"/>
        <path id="Trazado_12185" data-name="Trazado 12185" d="M653.5,4352.065a3.371,3.371,0,0,1-2.749-1.18h-.118c.078.73.118,1.172.118,1.329v3.539H648.77v-12.485h1.6c.045.162.138.547.279,1.157h.1a3.183,3.183,0,0,1,2.783-1.313,3.342,3.342,0,0,1,2.72,1.172,6.025,6.025,0,0,1-.016,6.594A3.375,3.375,0,0,1,653.5,4352.065Zm-.48-7.453a2.142,2.142,0,0,0-1.725.641,3.133,3.133,0,0,0-.544,2.047v.273a3.8,3.8,0,0,0,.54,2.285,2.075,2.075,0,0,0,1.762.707,1.83,1.83,0,0,0,1.586-.781,3.8,3.8,0,0,0,.557-2.227,3.672,3.672,0,0,0-.553-2.2A1.893,1.893,0,0,0,653.021,4344.612Z" fill="#fff"/>
        <path id="Trazado_12186" data-name="Trazado 12186" d="M667.806,4347.573a4.5,4.5,0,0,1-1.172,3.3,4.38,4.38,0,0,1-3.265,1.187,4.755,4.755,0,0,1-2.311-.547,3.724,3.724,0,0,1-1.543-1.57,5.016,5.016,0,0,1-.54-2.375,4.469,4.469,0,0,1,1.164-3.281,4.4,4.4,0,0,1,3.281-1.18,4.277,4.277,0,0,1,3.205,1.207A4.456,4.456,0,0,1,667.806,4347.573Zm-6.79,0q0,2.992,2.387,2.992,2.363,0,2.362-2.992,0-2.961-2.379-2.961a2.091,2.091,0,0,0-1.809.766A3.671,3.671,0,0,0,661.016,4347.573Z" fill="#fff"/>
        <path id="Trazado_12187" data-name="Trazado 12187" d="M674.815,4343.112a5.173,5.173,0,0,1,.987.078l-.194,1.711a4.069,4.069,0,0,0-.877-.094,2.647,2.647,0,0,0-1.928.719,2.493,2.493,0,0,0-.738,1.867v4.516h-1.982v-8.641h1.552l.262,1.524h.1a3.538,3.538,0,0,1,1.21-1.227A3.046,3.046,0,0,1,674.815,4343.112Z" fill="#fff"/>
        <path id="Trazado_12188" data-name="Trazado 12188" d="M681.006,4350.581a5.216,5.216,0,0,0,1.451-.211v1.383a4.234,4.234,0,0,1-.848.222,6.277,6.277,0,0,1-1.076.09q-2.816,0-2.816-2.75v-4.656h-1.274v-.813l1.366-.671.675-1.829h1.223v1.922h2.657v1.391h-2.657v4.625a1.237,1.237,0,0,0,.359.98A1.366,1.366,0,0,0,681.006,4350.581Z" fill="#fff"/>
        <path id="Trazado_12189" data-name="Trazado 12189" d="M688.394,4352.065a4.714,4.714,0,0,1-3.4-1.176,4.272,4.272,0,0,1-1.227-3.238,4.661,4.661,0,0,1,1.139-3.328,4.084,4.084,0,0,1,3.128-1.211,4.017,4.017,0,0,1,2.919,1.039,3.8,3.8,0,0,1,1.071,2.859V4348H685.8a2.709,2.709,0,0,0,.734,1.933,2.667,2.667,0,0,0,1.948.676,7.754,7.754,0,0,0,1.539-.144,8.557,8.557,0,0,0,1.531-.481v1.492a6.4,6.4,0,0,1-1.467.453A9.671,9.671,0,0,1,688.394,4352.065Zm-.363-7.562a2.077,2.077,0,0,0-1.513.554,2.54,2.54,0,0,0-.679,1.618h4.234a2.284,2.284,0,0,0-.557-1.622A1.984,1.984,0,0,0,688.031,4344.5Z" fill="#fff"/>
      </g>
    </g>
    <g id="Grupo_13489" data-name="Grupo 13489">
      <g id="Grupo_13488" data-name="Grupo 13488">
        <path id="Trazado_12190" data-name="Trazado 12190" d="M759.945,4351.909H752.97v-11.422h6.975v1.578h-4.959v3.11h4.647v1.562h-4.647v3.586h4.959Z" fill="#fff"/>
        <path id="Trazado_12191" data-name="Trazado 12191" d="M770.606,4351.909h-1.991V4346.6a2.2,2.2,0,0,0-.434-1.492,1.748,1.748,0,0,0-1.379-.492,2.28,2.28,0,0,0-1.838.688,3.572,3.572,0,0,0-.582,2.3v4.305H762.4v-8.641h1.551l.279,1.133h.1a2.709,2.709,0,0,1,1.2-.953,4.279,4.279,0,0,1,1.72-.336q3.357,0,3.357,3.164Z" fill="#fff"/>
        <path id="Trazado_12192" data-name="Trazado 12192" d="M776.839,4350.581a5.211,5.211,0,0,0,1.451-.211v1.383a4.234,4.234,0,0,1-.848.222,6.277,6.277,0,0,1-1.076.09q-2.816,0-2.816-2.75v-4.656h-1.274v-.813l1.366-.671.675-1.829h1.223v1.922H778.2v1.391H775.54v4.625a1.237,1.237,0,0,0,.359.98A1.366,1.366,0,0,0,776.839,4350.581Z" fill="#fff"/>
        <path id="Trazado_12193" data-name="Trazado 12193" d="M784.885,4343.112a5.166,5.166,0,0,1,.987.078l-.194,1.711a4.063,4.063,0,0,0-.877-.094,2.643,2.643,0,0,0-1.927.719,2.493,2.493,0,0,0-.739,1.867v4.516h-1.981v-8.641h1.551l.262,1.524h.1a3.533,3.533,0,0,1,1.211-1.227A3.042,3.042,0,0,1,784.885,4343.112Z" fill="#fff"/>
        <path id="Trazado_12194" data-name="Trazado 12194" d="M791.675,4352.065a4.713,4.713,0,0,1-3.4-1.176,4.272,4.272,0,0,1-1.227-3.238,4.665,4.665,0,0,1,1.138-3.328,4.088,4.088,0,0,1,3.129-1.211,4.019,4.019,0,0,1,2.919,1.039,3.8,3.8,0,0,1,1.071,2.859V4348h-6.216a2.709,2.709,0,0,0,.734,1.933,2.667,2.667,0,0,0,1.948.676,7.755,7.755,0,0,0,1.539-.144,8.557,8.557,0,0,0,1.531-.481v1.492a6.387,6.387,0,0,1-1.468.453A9.659,9.659,0,0,1,791.675,4352.065Zm-.363-7.562a2.075,2.075,0,0,0-1.513.554,2.545,2.545,0,0,0-.68,1.618h4.234a2.284,2.284,0,0,0-.556-1.622A1.984,1.984,0,0,0,791.312,4344.5Z" fill="#fff"/>
        <path id="Trazado_12195" data-name="Trazado 12195" d="M805.431,4343.268v1.008l-1.594.274a2.311,2.311,0,0,1,.362.671,2.463,2.463,0,0,1,.144.844,2.509,2.509,0,0,1-.995,2.1,4.4,4.4,0,0,1-2.741.765,4.756,4.756,0,0,1-.81-.062q-.642.368-.641.859a.476.476,0,0,0,.3.446,2.777,2.777,0,0,0,1.1.148h1.628a3.83,3.83,0,0,1,2.345.609,2.076,2.076,0,0,1,.8,1.758,2.515,2.515,0,0,1-1.307,2.266,7.335,7.335,0,0,1-3.779.8,5.554,5.554,0,0,1-2.91-.625,1.984,1.984,0,0,1-1-1.782,1.819,1.819,0,0,1,.544-1.339,2.988,2.988,0,0,1,1.523-.754,1.472,1.472,0,0,1-.654-.5,1.213,1.213,0,0,1-.257-.731,1.2,1.2,0,0,1,.295-.82,3.362,3.362,0,0,1,.877-.664,2.546,2.546,0,0,1-1.176-.941,2.616,2.616,0,0,1-.451-1.528,2.643,2.643,0,0,1,.957-2.18,4.247,4.247,0,0,1,2.728-.773,7.082,7.082,0,0,1,.831.051,5.689,5.689,0,0,1,.654.1Zm-7.329,9.985a1,1,0,0,0,.577.914,3.4,3.4,0,0,0,1.624.32,5.246,5.246,0,0,0,2.412-.43,1.283,1.283,0,0,0,.793-1.14.839.839,0,0,0-.435-.8,3.722,3.722,0,0,0-1.614-.238h-1.5a2.225,2.225,0,0,0-1.354.371A1.184,1.184,0,0,0,798.1,4353.253Zm.851-7.188a1.659,1.659,0,0,0,.452,1.25,1.781,1.781,0,0,0,1.294.438,1.514,1.514,0,0,0,1.721-1.7,1.835,1.835,0,0,0-.426-1.3,1.686,1.686,0,0,0-1.3-.457,1.744,1.744,0,0,0-1.3.453A1.813,1.813,0,0,0,798.953,4346.065Z" fill="#fff"/>
        <path id="Trazado_12196" data-name="Trazado 12196" d="M813,4351.909l-.4-1.2h-.067a3.76,3.76,0,0,1-1.358,1.074,4.592,4.592,0,0,1-1.754.285,3.118,3.118,0,0,1-2.147-.687,2.471,2.471,0,0,1-.771-1.946,2.235,2.235,0,0,1,1.07-2.015,6.573,6.573,0,0,1,3.265-.742l1.61-.047v-.461a1.668,1.668,0,0,0-.417-1.239,1.784,1.784,0,0,0-1.294-.41,4.82,4.82,0,0,0-1.375.2,10.963,10.963,0,0,0-1.266.461l-.64-1.313a7.272,7.272,0,0,1,1.661-.559,8.229,8.229,0,0,1,1.7-.191,4.262,4.262,0,0,1,2.686.719,2.7,2.7,0,0,1,.907,2.258v5.82Zm-2.952-1.25a2.573,2.573,0,0,0,1.733-.559,1.947,1.947,0,0,0,.654-1.566v-.75l-1.2.047a4.366,4.366,0,0,0-2.037.433,1.292,1.292,0,0,0-.637,1.184,1.112,1.112,0,0,0,.371.895A1.685,1.685,0,0,0,810.045,4350.659Z" fill="#fff"/>
      </g>
    </g>
    <g id="Grupo_13491" data-name="Grupo 13491">
      <g id="Grupo_13490" data-name="Grupo 13490">
        <path id="Trazado_12197" data-name="Trazado 12197" d="M916.269,4340.487v7.391a4.137,4.137,0,0,1-.586,2.215,3.8,3.8,0,0,1-1.7,1.46,6.284,6.284,0,0,1-2.653.512,5.209,5.209,0,0,1-3.568-1.125,3.914,3.914,0,0,1-1.274-3.094v-7.359h2.025v7.227a2.755,2.755,0,0,0,.708,2.086,3.064,3.064,0,0,0,2.176.671q2.852,0,2.851-2.773v-7.211Z" fill="#fff"/>
        <path id="Trazado_12198" data-name="Trazado 12198" d="M925.479,4349.448a2.2,2.2,0,0,1-.995,1.941,5.054,5.054,0,0,1-2.851.676,7.2,7.2,0,0,1-2.994-.523v-1.586a7.833,7.833,0,0,0,3.062.7q1.83,0,1.83-1.024a.77.77,0,0,0-.2-.546,2.4,2.4,0,0,0-.666-.454,11.988,11.988,0,0,0-1.29-.531,6.066,6.066,0,0,1-2.18-1.156,2.045,2.045,0,0,1-.57-1.5,1.935,1.935,0,0,1,.966-1.723,4.873,4.873,0,0,1,2.627-.613,7.948,7.948,0,0,1,3.112.617l-.641,1.383a7.386,7.386,0,0,0-2.538-.578q-1.569,0-1.569.828a.82.82,0,0,0,.409.688,9.325,9.325,0,0,0,1.784.773,8.421,8.421,0,0,1,1.678.758,2.331,2.331,0,0,1,.776.793A2.151,2.151,0,0,1,925.479,4349.448Z" fill="#fff"/>
        <path id="Trazado_12199" data-name="Trazado 12199" d="M935.9,4347.573a4.5,4.5,0,0,1-1.172,3.3,4.379,4.379,0,0,1-3.264,1.187,4.749,4.749,0,0,1-2.311-.547,3.727,3.727,0,0,1-1.544-1.57,5.016,5.016,0,0,1-.539-2.375,4.465,4.465,0,0,1,1.164-3.281,4.4,4.4,0,0,1,3.281-1.18,4.28,4.28,0,0,1,3.205,1.207A4.455,4.455,0,0,1,935.9,4347.573Zm-6.789,0q0,2.992,2.386,2.992,2.363,0,2.362-2.992,0-2.961-2.378-2.961a2.089,2.089,0,0,0-1.809.766A3.672,3.672,0,0,0,929.106,4347.573Z" fill="#fff"/>
      </g>
    </g>
    <g id="Grupo_13493" data-name="Grupo 13493">
      <g id="Grupo_13492" data-name="Grupo 13492">
        <path id="Trazado_12200" data-name="Trazado 12200" d="M1009.445,4334.909h-2.016v-9.82H1003.8v-1.6h9.27v1.6h-3.627Z" fill="#fff"/>
        <path id="Trazado_12201" data-name="Trazado 12201" d="M1019.482,4326.112a5.155,5.155,0,0,1,.986.078l-.193,1.711a4.07,4.07,0,0,0-.877-.094,2.647,2.647,0,0,0-1.928.719,2.493,2.493,0,0,0-.738,1.867v4.516h-1.982v-8.641h1.552l.262,1.524h.1a3.538,3.538,0,0,1,1.21-1.227A3.046,3.046,0,0,1,1019.482,4326.112Z" fill="#fff"/>
        <path id="Trazado_12202" data-name="Trazado 12202" d="M1028.034,4334.909l-.4-1.2h-.067a3.76,3.76,0,0,1-1.358,1.074,4.589,4.589,0,0,1-1.754.285,3.118,3.118,0,0,1-2.147-.687,2.471,2.471,0,0,1-.771-1.946,2.234,2.234,0,0,1,1.071-2.015,6.566,6.566,0,0,1,3.264-.742l1.611-.047v-.461a1.669,1.669,0,0,0-.418-1.239,1.784,1.784,0,0,0-1.294-.41,4.82,4.82,0,0,0-1.375.2,10.887,10.887,0,0,0-1.265.461l-.641-1.313a7.272,7.272,0,0,1,1.661-.559,8.236,8.236,0,0,1,1.7-.191,4.262,4.262,0,0,1,2.686.719,2.7,2.7,0,0,1,.907,2.258v5.82Zm-2.952-1.25a2.571,2.571,0,0,0,1.733-.559,1.947,1.947,0,0,0,.654-1.566v-.75l-1.2.047a4.366,4.366,0,0,0-2.037.433,1.292,1.292,0,0,0-.637,1.184,1.112,1.112,0,0,0,.371.895A1.685,1.685,0,0,0,1025.082,4333.659Z" fill="#fff"/>
        <path id="Trazado_12203" data-name="Trazado 12203" d="M1035.693,4333.581a5.208,5.208,0,0,0,1.45-.211v1.383a4.241,4.241,0,0,1-.847.222,6.3,6.3,0,0,1-1.076.09q-2.817,0-2.817-2.75v-4.656h-1.273v-.813l1.366-.671.675-1.829h1.222v1.922h2.658v1.391h-2.658v4.625a1.24,1.24,0,0,0,.359.98A1.369,1.369,0,0,0,1035.693,4333.581Z" fill="#fff"/>
        <path id="Trazado_12204" data-name="Trazado 12204" d="M1044.843,4334.909l-.4-1.2h-.067a3.767,3.767,0,0,1-1.358,1.074,4.593,4.593,0,0,1-1.755.285,3.115,3.115,0,0,1-2.146-.687,2.468,2.468,0,0,1-.772-1.946,2.234,2.234,0,0,1,1.071-2.015,6.568,6.568,0,0,1,3.264-.742l1.611-.047v-.461a1.669,1.669,0,0,0-.417-1.239,1.787,1.787,0,0,0-1.3-.41,4.82,4.82,0,0,0-1.375.2,11.022,11.022,0,0,0-1.265.461l-.641-1.313a7.281,7.281,0,0,1,1.662-.559,8.229,8.229,0,0,1,1.7-.191,4.264,4.264,0,0,1,2.686.719,2.707,2.707,0,0,1,.906,2.258v5.82Zm-2.952-1.25a2.576,2.576,0,0,0,1.734-.559,1.95,1.95,0,0,0,.654-1.566v-.75l-1.2.047a4.36,4.36,0,0,0-2.037.433,1.29,1.29,0,0,0-.637,1.184,1.112,1.112,0,0,0,.371.895A1.685,1.685,0,0,0,1041.891,4333.659Z" fill="#fff"/>
        <path id="Trazado_12205" data-name="Trazado 12205" d="M1056.888,4334.909H1054.9v-5.328a2.285,2.285,0,0,0-.405-1.481,1.55,1.55,0,0,0-1.265-.488,2,2,0,0,0-1.682.691,3.816,3.816,0,0,0-.536,2.3v4.305h-1.982v-8.641h1.552l.278,1.133h.1a2.521,2.521,0,0,1,1.126-.953,3.866,3.866,0,0,1,1.623-.336,2.9,2.9,0,0,1,2.851,1.359h.135a2.772,2.772,0,0,1,1.164-1,3.941,3.941,0,0,1,1.72-.359,2.765,2.765,0,0,1,3.2,3.164v5.633h-1.982v-5.328a2.273,2.273,0,0,0-.409-1.481,1.566,1.566,0,0,0-1.27-.488,2.038,2.038,0,0,0-1.69.668,3.245,3.245,0,0,0-.536,2.051Z" fill="#fff"/>
        <path id="Trazado_12206" data-name="Trazado 12206" d="M1065.424,4323.979a.975.975,0,0,1,.291-.758,1.189,1.189,0,0,1,.83-.265,1.166,1.166,0,0,1,.814.265.975.975,0,0,1,.291.758.957.957,0,0,1-.291.739,1.154,1.154,0,0,1-.814.269,1.177,1.177,0,0,1-.83-.269A.957.957,0,0,1,1065.424,4323.979Zm2.1,10.93h-1.982v-8.641h1.982Z" fill="#fff"/>
        <path id="Trazado_12207" data-name="Trazado 12207" d="M1074.431,4335.065a4.714,4.714,0,0,1-3.4-1.176,4.272,4.272,0,0,1-1.227-3.238,4.662,4.662,0,0,1,1.139-3.328,4.085,4.085,0,0,1,3.129-1.211,4.017,4.017,0,0,1,2.918,1.039,3.8,3.8,0,0,1,1.071,2.859V4331h-6.216a2.709,2.709,0,0,0,.734,1.933,2.667,2.667,0,0,0,1.948.676,7.754,7.754,0,0,0,1.539-.144,8.533,8.533,0,0,0,1.531-.481v1.492a6.38,6.38,0,0,1-1.467.453A9.67,9.67,0,0,1,1074.431,4335.065Zm-.362-7.562a2.077,2.077,0,0,0-1.514.554,2.54,2.54,0,0,0-.679,1.618h4.234a2.284,2.284,0,0,0-.557-1.622A1.983,1.983,0,0,0,1074.069,4327.5Z" fill="#fff"/>
        <path id="Trazado_12208" data-name="Trazado 12208" d="M1088.516,4334.909h-1.99V4329.6a2.207,2.207,0,0,0-.434-1.492,1.751,1.751,0,0,0-1.379-.492,2.281,2.281,0,0,0-1.839.688,3.578,3.578,0,0,0-.582,2.3v4.305h-1.982v-8.641h1.552l.278,1.133h.1a2.715,2.715,0,0,1,1.2-.953,4.283,4.283,0,0,1,1.72-.336q3.357,0,3.357,3.164Z" fill="#fff"/>
        <path id="Trazado_12209" data-name="Trazado 12209" d="M1094.75,4333.581a5.2,5.2,0,0,0,1.45-.211v1.383a4.241,4.241,0,0,1-.847.222,6.287,6.287,0,0,1-1.076.09q-2.817,0-2.817-2.75v-4.656h-1.273v-.813l1.366-.671.675-1.829h1.222v1.922h2.658v1.391h-2.658v4.625a1.24,1.24,0,0,0,.359.98A1.371,1.371,0,0,0,1094.75,4333.581Z" fill="#fff"/>
        <path id="Trazado_12210" data-name="Trazado 12210" d="M1106.338,4330.573a4.5,4.5,0,0,1-1.172,3.3,4.379,4.379,0,0,1-3.264,1.187,4.75,4.75,0,0,1-2.311-.547,3.727,3.727,0,0,1-1.544-1.57,5.016,5.016,0,0,1-.539-2.375,4.465,4.465,0,0,1,1.164-3.281,4.4,4.4,0,0,1,3.28-1.18,4.277,4.277,0,0,1,3.2,1.207A4.452,4.452,0,0,1,1106.338,4330.573Zm-6.789,0q0,2.992,2.386,2.992,2.362,0,2.362-2.992,0-2.961-2.378-2.961a2.089,2.089,0,0,0-1.809.766A3.671,3.671,0,0,0,1099.549,4330.573Z" fill="#fff"/>
        <path id="Trazado_12211" data-name="Trazado 12211" d="M1019.254,4351.909l-.4-1.2h-.068a3.752,3.752,0,0,1-1.358,1.074,4.589,4.589,0,0,1-1.754.285,3.118,3.118,0,0,1-2.147-.687,2.471,2.471,0,0,1-.771-1.946,2.234,2.234,0,0,1,1.071-2.015,6.566,6.566,0,0,1,3.264-.742l1.611-.047v-.461a1.665,1.665,0,0,0-.418-1.239,1.784,1.784,0,0,0-1.294-.41,4.82,4.82,0,0,0-1.375.2,10.947,10.947,0,0,0-1.265.461l-.641-1.313a7.288,7.288,0,0,1,1.661-.559,8.244,8.244,0,0,1,1.7-.191,4.262,4.262,0,0,1,2.686.719,2.7,2.7,0,0,1,.907,2.258v5.82Zm-2.952-1.25a2.571,2.571,0,0,0,1.733-.559,1.947,1.947,0,0,0,.654-1.566v-.75l-1.2.047a4.366,4.366,0,0,0-2.037.433,1.291,1.291,0,0,0-.636,1.184,1.109,1.109,0,0,0,.371.895A1.681,1.681,0,0,0,1016.3,4350.659Z" fill="#fff"/>
        <path id="Trazado_12212" data-name="Trazado 12212" d="M1025.42,4351.909h-1.982v-12.156h1.982Z" fill="#fff"/>
        <path id="Trazado_12213" data-name="Trazado 12213" d="M1037.422,4344.659h-2.278v7.25h-1.99v-7.25h-1.535v-.859l1.535-.563v-.562a3,3,0,0,1,.775-2.27,3.335,3.335,0,0,1,2.371-.738,6.805,6.805,0,0,1,2.058.32l-.523,1.391a4.9,4.9,0,0,0-1.4-.219,1.181,1.181,0,0,0-.983.387,1.838,1.838,0,0,0-.308,1.16v.562h2.278Zm1.467-3.68a.975.975,0,0,1,.291-.758,1.193,1.193,0,0,1,.831-.265,1.166,1.166,0,0,1,.814.265.974.974,0,0,1,.29.758.956.956,0,0,1-.29.739,1.154,1.154,0,0,1-.814.269,1.181,1.181,0,0,1-.831-.269A.957.957,0,0,1,1038.889,4340.979Zm2.1,10.93h-1.982v-8.641h1.982Z" fill="#fff"/>
        <path id="Trazado_12214" data-name="Trazado 12214" d="M1052.038,4351.909h-1.99V4346.6a2.207,2.207,0,0,0-.434-1.492,1.751,1.751,0,0,0-1.379-.492,2.281,2.281,0,0,0-1.839.688,3.579,3.579,0,0,0-.582,2.3v4.305h-1.982v-8.641h1.552l.278,1.133h.1a2.715,2.715,0,0,1,1.2-.953,4.282,4.282,0,0,1,1.72-.336q3.357,0,3.357,3.164Z" fill="#fff"/>
        <path id="Trazado_12215" data-name="Trazado 12215" d="M1060.633,4351.909l-.4-1.2h-.067a3.768,3.768,0,0,1-1.358,1.074,4.594,4.594,0,0,1-1.755.285,3.117,3.117,0,0,1-2.146-.687,2.468,2.468,0,0,1-.772-1.946,2.234,2.234,0,0,1,1.071-2.015,6.569,6.569,0,0,1,3.264-.742l1.611-.047v-.461a1.669,1.669,0,0,0-.417-1.239,1.787,1.787,0,0,0-1.3-.41,4.821,4.821,0,0,0-1.375.2,11.012,11.012,0,0,0-1.265.461l-.64-1.313a7.255,7.255,0,0,1,1.661-.559,8.228,8.228,0,0,1,1.7-.191,4.264,4.264,0,0,1,2.686.719,2.708,2.708,0,0,1,.907,2.258v5.82Zm-2.953-1.25a2.575,2.575,0,0,0,1.734-.559,1.95,1.95,0,0,0,.654-1.566v-.75l-1.2.047a4.363,4.363,0,0,0-2.037.433,1.29,1.29,0,0,0-.637,1.184,1.112,1.112,0,0,0,.371.895A1.684,1.684,0,0,0,1057.68,4350.659Z" fill="#fff"/>
        <path id="Trazado_12216" data-name="Trazado 12216" d="M1066.8,4351.909h-1.982v-12.156h1.982Z" fill="#fff"/>
        <path id="Trazado_12217" data-name="Trazado 12217" d="M1069.514,4340.979a.975.975,0,0,1,.291-.758,1.192,1.192,0,0,1,.83-.265,1.165,1.165,0,0,1,.814.265.971.971,0,0,1,.291.758.953.953,0,0,1-.291.739,1.152,1.152,0,0,1-.814.269,1.18,1.18,0,0,1-.83-.269A.957.957,0,0,1,1069.514,4340.979Zm2.1,10.93h-1.982v-8.641h1.982Z" fill="#fff"/>
        <path id="Trazado_12218" data-name="Trazado 12218" d="M1080.681,4351.909H1073.6v-1.133l4.715-6.1h-4.428v-1.407h6.655v1.282l-4.614,5.953h4.748Z" fill="#fff"/>
        <path id="Trazado_12219" data-name="Trazado 12219" d="M1088.542,4351.909l-.4-1.2h-.067a3.759,3.759,0,0,1-1.358,1.074,4.592,4.592,0,0,1-1.754.285,3.118,3.118,0,0,1-2.147-.687,2.467,2.467,0,0,1-.771-1.946,2.235,2.235,0,0,1,1.07-2.015,6.573,6.573,0,0,1,3.265-.742l1.61-.047v-.461a1.669,1.669,0,0,0-.417-1.239,1.785,1.785,0,0,0-1.3-.41,4.82,4.82,0,0,0-1.375.2,11.022,11.022,0,0,0-1.265.461l-.64-1.313a7.273,7.273,0,0,1,1.661-.559,8.229,8.229,0,0,1,1.7-.191,4.262,4.262,0,0,1,2.686.719,2.708,2.708,0,0,1,.907,2.258v5.82Zm-2.952-1.25a2.575,2.575,0,0,0,1.733-.559,1.947,1.947,0,0,0,.654-1.566v-.75l-1.2.047a4.363,4.363,0,0,0-2.037.433,1.292,1.292,0,0,0-.637,1.184,1.112,1.112,0,0,0,.371.895A1.686,1.686,0,0,0,1085.59,4350.659Z" fill="#fff"/>
        <path id="Trazado_12220" data-name="Trazado 12220" d="M1097.457,4343.112a5.172,5.172,0,0,1,.987.078l-.194,1.711a4.069,4.069,0,0,0-.877-.094,2.643,2.643,0,0,0-1.927.719,2.489,2.489,0,0,0-.739,1.867v4.516h-1.982v-8.641h1.552l.262,1.524h.1a3.538,3.538,0,0,1,1.21-1.227A3.049,3.049,0,0,1,1097.457,4343.112Z" fill="#fff"/>
        <path id="Trazado_12221" data-name="Trazado 12221" d="M1033.938,4368.909h-1.982v-12.156h1.982Z" fill="#fff"/>
        <path id="Trazado_12222" data-name="Trazado 12222" d="M1042.609,4368.909l-.4-1.2h-.067a3.769,3.769,0,0,1-1.358,1.074,4.594,4.594,0,0,1-1.755.285,3.117,3.117,0,0,1-2.146-.687,2.468,2.468,0,0,1-.772-1.946,2.234,2.234,0,0,1,1.071-2.015,6.571,6.571,0,0,1,3.264-.742l1.611-.047v-.461a1.668,1.668,0,0,0-.417-1.239,1.787,1.787,0,0,0-1.295-.41,4.82,4.82,0,0,0-1.375.2,11.022,11.022,0,0,0-1.265.461l-.64-1.313a7.255,7.255,0,0,1,1.661-.559,8.228,8.228,0,0,1,1.7-.191,4.264,4.264,0,0,1,2.686.719,2.708,2.708,0,0,1,.907,2.258v5.82Zm-2.953-1.25a2.576,2.576,0,0,0,1.734-.559,1.95,1.95,0,0,0,.654-1.566v-.75l-1.2.047a4.363,4.363,0,0,0-2.037.433,1.292,1.292,0,0,0-.637,1.184,1.112,1.112,0,0,0,.371.895A1.685,1.685,0,0,0,1039.656,4367.659Z" fill="#fff"/>
        <path id="Trazado_12223" data-name="Trazado 12223" d="M1053.405,4368.909l-3.543-8.641h2.092l1.9,5.024a9.4,9.4,0,0,1,.591,2.047h.068a12.83,12.83,0,0,1,.59-2.047l1.9-5.024h2.109l-3.559,8.641Z" fill="#fff"/>
        <path id="Trazado_12224" data-name="Trazado 12224" d="M1060.405,4357.979a.975.975,0,0,1,.291-.758,1.193,1.193,0,0,1,.831-.265,1.168,1.168,0,0,1,.814.265.975.975,0,0,1,.291.758.957.957,0,0,1-.291.739,1.156,1.156,0,0,1-.814.269,1.181,1.181,0,0,1-.831-.269A.957.957,0,0,1,1060.405,4357.979Zm2.1,10.93h-1.982v-8.641h1.982Z" fill="#fff"/>
        <path id="Trazado_12225" data-name="Trazado 12225" d="M1068.485,4369.065a3.352,3.352,0,0,1-2.724-1.172,6.013,6.013,0,0,1,.013-6.6,3.384,3.384,0,0,1,2.745-1.184,3.308,3.308,0,0,1,2.8,1.258h.1a10.153,10.153,0,0,1-.143-1.469v-3.148h1.99v12.156h-1.551l-.347-1.133h-.092A3.257,3.257,0,0,1,1068.485,4369.065Zm.531-1.484a2.244,2.244,0,0,0,1.78-.637,3.167,3.167,0,0,0,.573-2.066v-.258a3.652,3.652,0,0,0-.573-2.32,2.209,2.209,0,0,0-1.8-.688,1.869,1.869,0,0,0-1.612.785,3.8,3.8,0,0,0-.565,2.238,3.694,3.694,0,0,0,.549,2.192A1.9,1.9,0,0,0,1069.016,4367.581Z" fill="#fff"/>
        <path id="Trazado_12226" data-name="Trazado 12226" d="M1081.938,4368.909l-.4-1.2h-.067a3.759,3.759,0,0,1-1.358,1.074,4.591,4.591,0,0,1-1.754.285,3.118,3.118,0,0,1-2.147-.687,2.467,2.467,0,0,1-.771-1.946,2.235,2.235,0,0,1,1.07-2.015,6.573,6.573,0,0,1,3.265-.742l1.61-.047v-.461a1.669,1.669,0,0,0-.417-1.239,1.785,1.785,0,0,0-1.3-.41,4.82,4.82,0,0,0-1.375.2,11.022,11.022,0,0,0-1.265.461l-.64-1.313a7.273,7.273,0,0,1,1.661-.559,8.23,8.23,0,0,1,1.7-.191,4.264,4.264,0,0,1,2.686.719,2.708,2.708,0,0,1,.907,2.258v5.82Zm-2.952-1.25a2.575,2.575,0,0,0,1.733-.559,1.947,1.947,0,0,0,.654-1.566v-.75l-1.2.047a4.363,4.363,0,0,0-2.037.433,1.292,1.292,0,0,0-.637,1.184,1.112,1.112,0,0,0,.371.895A1.686,1.686,0,0,0,1078.986,4367.659Z" fill="#fff"/>
      </g>
    </g>
    <g id="Grupo_13495" data-name="Grupo 13495">
      <g id="Grupo_13494" data-name="Grupo 13494">
        <path id="Trazado_12227" data-name="Trazado 12227" d="M1158.372,4337.588a5.457,5.457,0,0,1-1.695,4.324,7.152,7.152,0,0,1-4.883,1.5h-3.45v-11.421h3.812a6.622,6.622,0,0,1,4.581,1.468A5.27,5.27,0,0,1,1158.372,4337.588Zm-2.125.063q0-4.1-4.141-4.1h-1.746v8.289h1.434Q1156.247,4341.838,1156.247,4337.651Z" fill="#fff"/>
        <path id="Trazado_12228" data-name="Trazado 12228" d="M1160.692,4332.479a.973.973,0,0,1,.291-.758,1.187,1.187,0,0,1,.831-.266,1.16,1.16,0,0,1,.813.266.97.97,0,0,1,.291.758.953.953,0,0,1-.291.738,1.147,1.147,0,0,1-.813.27,1.175,1.175,0,0,1-.831-.27A.956.956,0,0,1,1160.692,4332.479Zm2.1,10.929h-1.982v-8.64h1.982Z" fill="#fff"/>
        <path id="Trazado_12229" data-name="Trazado 12229" d="M1171.893,4340.948a2.205,2.205,0,0,1-.995,1.941,5.06,5.06,0,0,1-2.852.676,7.2,7.2,0,0,1-2.994-.524v-1.586a7.832,7.832,0,0,0,3.062.7q1.83,0,1.831-1.023a.771.771,0,0,0-.2-.547,2.378,2.378,0,0,0-.666-.453,11.981,11.981,0,0,0-1.29-.531,6.115,6.115,0,0,1-2.18-1.156,2.048,2.048,0,0,1-.57-1.5,1.935,1.935,0,0,1,.966-1.723,4.865,4.865,0,0,1,2.627-.613,7.947,7.947,0,0,1,3.112.617l-.64,1.383a7.378,7.378,0,0,0-2.539-.579q-1.569,0-1.569.829a.816.816,0,0,0,.41.687,9.318,9.318,0,0,0,1.783.774,8.473,8.473,0,0,1,1.679.757,2.358,2.358,0,0,1,.776.793A2.165,2.165,0,0,1,1171.893,4340.948Z" fill="#fff"/>
        <path id="Trazado_12230" data-name="Trazado 12230" d="M1178.767,4343.565a3.372,3.372,0,0,1-2.75-1.18h-.118q.118,1.094.118,1.328v3.539h-1.982v-12.484h1.6q.068.242.278,1.156h.1a3.185,3.185,0,0,1,2.783-1.312,3.345,3.345,0,0,1,2.721,1.171,6.028,6.028,0,0,1-.017,6.594A3.372,3.372,0,0,1,1178.767,4343.565Zm-.481-7.453a2.143,2.143,0,0,0-1.725.64,3.135,3.135,0,0,0-.544,2.047v.274a3.81,3.81,0,0,0,.54,2.285,2.078,2.078,0,0,0,1.763.707,1.832,1.832,0,0,0,1.586-.782,3.8,3.8,0,0,0,.556-2.226,3.662,3.662,0,0,0-.553-2.2A1.893,1.893,0,0,0,1178.286,4336.112Z" fill="#fff"/>
        <path id="Trazado_12231" data-name="Trazado 12231" d="M1193.072,4339.073a4.5,4.5,0,0,1-1.173,3.3,4.378,4.378,0,0,1-3.264,1.188,4.756,4.756,0,0,1-2.312-.547,3.728,3.728,0,0,1-1.542-1.57,5.008,5.008,0,0,1-.541-2.375,4.469,4.469,0,0,1,1.165-3.282,4.4,4.4,0,0,1,3.281-1.179,4.278,4.278,0,0,1,3.2,1.207A4.453,4.453,0,0,1,1193.072,4339.073Zm-6.791,0q0,2.992,2.387,2.992,2.363,0,2.363-2.992,0-2.961-2.379-2.961a2.092,2.092,0,0,0-1.809.765A3.674,3.674,0,0,0,1186.281,4339.073Z" fill="#fff"/>
        <path id="Trazado_12232" data-name="Trazado 12232" d="M1201.615,4340.948a2.206,2.206,0,0,1-.995,1.941,5.056,5.056,0,0,1-2.851.676,7.2,7.2,0,0,1-2.994-.524v-1.586a7.828,7.828,0,0,0,3.062.7q1.83,0,1.83-1.023a.77.77,0,0,0-.2-.547,2.4,2.4,0,0,0-.666-.453,11.991,11.991,0,0,0-1.29-.531,6.121,6.121,0,0,1-2.181-1.156,2.051,2.051,0,0,1-.569-1.5,1.932,1.932,0,0,1,.966-1.723,4.859,4.859,0,0,1,2.627-.613,7.948,7.948,0,0,1,3.112.617l-.64,1.383a7.377,7.377,0,0,0-2.54-.579q-1.567,0-1.568.829a.817.817,0,0,0,.409.687,9.346,9.346,0,0,0,1.783.774,8.418,8.418,0,0,1,1.679.757,2.352,2.352,0,0,1,.777.793A2.165,2.165,0,0,1,1201.615,4340.948Z" fill="#fff"/>
        <path id="Trazado_12233" data-name="Trazado 12233" d="M1203.639,4332.479a.977.977,0,0,1,.291-.758,1.189,1.189,0,0,1,.831-.266,1.158,1.158,0,0,1,.813.266.97.97,0,0,1,.291.758.953.953,0,0,1-.291.738,1.146,1.146,0,0,1-.813.27,1.176,1.176,0,0,1-.831-.27A.96.96,0,0,1,1203.639,4332.479Zm2.1,10.929h-1.982v-8.64h1.982Z" fill="#fff"/>
        <path id="Trazado_12234" data-name="Trazado 12234" d="M1212.335,4343.565a4.26,4.26,0,0,1-3.218-1.145,5.455,5.455,0,0,1,.051-6.637,4.457,4.457,0,0,1,3.327-1.171,6.668,6.668,0,0,1,2.657.507l-.6,1.477a6.4,6.4,0,0,0-2.074-.453q-2.422,0-2.421,2.976a3.378,3.378,0,0,0,.6,2.184,2.163,2.163,0,0,0,1.768.73,5.385,5.385,0,0,0,2.505-.609v1.6a4.132,4.132,0,0,1-1.135.414A7.356,7.356,0,0,1,1212.335,4343.565Z" fill="#fff"/>
        <path id="Trazado_12235" data-name="Trazado 12235" d="M1217.008,4332.479a.974.974,0,0,1,.291-.758,1.187,1.187,0,0,1,.83-.266,1.166,1.166,0,0,1,.815.266.974.974,0,0,1,.291.758.957.957,0,0,1-.291.738,1.154,1.154,0,0,1-.815.27,1.174,1.174,0,0,1-.83-.27A.956.956,0,0,1,1217.008,4332.479Zm2.1,10.929h-1.982v-8.64h1.982Z" fill="#fff"/>
        <path id="Trazado_12236" data-name="Trazado 12236" d="M1230.216,4339.073a4.5,4.5,0,0,1-1.173,3.3,4.376,4.376,0,0,1-3.263,1.188,4.753,4.753,0,0,1-2.312-.547,3.724,3.724,0,0,1-1.543-1.57,5.018,5.018,0,0,1-.54-2.375,4.473,4.473,0,0,1,1.164-3.282,4.4,4.4,0,0,1,3.281-1.179,4.277,4.277,0,0,1,3.205,1.207A4.449,4.449,0,0,1,1230.216,4339.073Zm-6.79,0q0,2.992,2.387,2.992,2.362,0,2.362-2.992,0-2.961-2.379-2.961a2.09,2.09,0,0,0-1.808.765A3.674,3.674,0,0,0,1223.426,4339.073Zm1.088-5.36v-.195q.481-.546.991-1.219t.806-1.148h2.3v.164a16.681,16.681,0,0,1-1.312,1.23,17.961,17.961,0,0,1-1.472,1.168Z" fill="#fff"/>
        <path id="Trazado_12237" data-name="Trazado 12237" d="M1240.7,4343.408h-1.99V4338.1a2.2,2.2,0,0,0-.434-1.492,1.749,1.749,0,0,0-1.379-.492,2.282,2.282,0,0,0-1.839.687,3.583,3.583,0,0,0-.582,2.305v4.3h-1.982v-8.64h1.552l.278,1.133h.1a2.7,2.7,0,0,1,1.2-.953,4.288,4.288,0,0,1,1.721-.336q3.355,0,3.356,3.164Z" fill="#fff"/>
        <path id="Trazado_12238" data-name="Trazado 12238" d="M1182.031,4353.158h-2.278v7.25h-1.99v-7.25h-1.535v-.859l1.535-.562v-.563a3,3,0,0,1,.775-2.269,3.329,3.329,0,0,1,2.37-.739,6.778,6.778,0,0,1,2.059.321l-.523,1.39a4.934,4.934,0,0,0-1.4-.219,1.182,1.182,0,0,0-.983.387,1.842,1.842,0,0,0-.308,1.16v.563h2.278Zm1.467-3.679a.974.974,0,0,1,.291-.758,1.189,1.189,0,0,1,.831-.266,1.164,1.164,0,0,1,.814.266.973.973,0,0,1,.291.758.956.956,0,0,1-.291.738,1.152,1.152,0,0,1-.814.27,1.177,1.177,0,0,1-.831-.27A.956.956,0,0,1,1183.5,4349.479Zm2.1,10.929h-1.982v-8.64h1.982Z" fill="#fff"/>
        <path id="Trazado_12239" data-name="Trazado 12239" d="M1196.648,4360.408h-1.992V4355.1a2.205,2.205,0,0,0-.433-1.492,1.751,1.751,0,0,0-1.379-.492,2.28,2.28,0,0,0-1.839.687,3.577,3.577,0,0,0-.582,2.305v4.3h-1.982v-8.64h1.551l.279,1.133h.1a2.711,2.711,0,0,1,1.2-.953,4.28,4.28,0,0,1,1.72-.336q3.359,0,3.358,3.164Z" fill="#fff"/>
        <path id="Trazado_12240" data-name="Trazado 12240" d="M1205.241,4360.408l-.4-1.2h-.067a3.761,3.761,0,0,1-1.358,1.075,4.613,4.613,0,0,1-1.755.285,3.11,3.11,0,0,1-2.146-.688,2.466,2.466,0,0,1-.772-1.945,2.235,2.235,0,0,1,1.072-2.016,6.559,6.559,0,0,1,3.263-.742l1.612-.047v-.461a1.664,1.664,0,0,0-.418-1.238,1.786,1.786,0,0,0-1.294-.41,4.809,4.809,0,0,0-1.375.195,10.875,10.875,0,0,0-1.266.461l-.641-1.312a7.282,7.282,0,0,1,1.662-.559,8.228,8.228,0,0,1,1.7-.191,4.262,4.262,0,0,1,2.686.718,2.705,2.705,0,0,1,.906,2.258v5.82Zm-2.952-1.25a2.58,2.58,0,0,0,1.734-.558,1.952,1.952,0,0,0,.654-1.567v-.75l-1.2.047a4.358,4.358,0,0,0-2.037.434,1.291,1.291,0,0,0-.637,1.184,1.111,1.111,0,0,0,.371.894A1.679,1.679,0,0,0,1202.289,4359.158Z" fill="#fff"/>
        <path id="Trazado_12241" data-name="Trazado 12241" d="M1211.407,4360.408h-1.982v-12.156h1.982Z" fill="#fff"/>
      </g>
    </g>
    <g id="Grupo_13497" data-name="Grupo 13497">
      <g id="Grupo_13496" data-name="Grupo 13496">
        <path id="Trazado_12242" data-name="Trazado 12242" d="M674.6,4591.712V4580.29h2.737v11.422Z" fill="#bf5239"/>
        <path id="Trazado_12243" data-name="Trazado 12243" d="M689.212,4591.712h-2.693v-5.1a2.338,2.338,0,0,0-.357-1.418,1.32,1.32,0,0,0-1.126-.473,1.7,1.7,0,0,0-1.5.672,3.981,3.981,0,0,0-.467,2.211v4.109h-2.693v-8.734h2.057l.362,1.117h.15a2.632,2.632,0,0,1,1.148-.941,4.123,4.123,0,0,1,1.721-.34,3.239,3.239,0,0,1,3,1.281h.238a2.576,2.576,0,0,1,1.17-.945,4.327,4.327,0,0,1,1.744-.336,3.726,3.726,0,0,1,2.538.761,3.109,3.109,0,0,1,.86,2.442v5.695h-2.7v-5.1a2.332,2.332,0,0,0-.358-1.418,1.319,1.319,0,0,0-1.125-.473,1.763,1.763,0,0,0-1.479.625,3.219,3.219,0,0,0-.49,1.984Z" fill="#bf5239"/>
        <path id="Trazado_12244" data-name="Trazado 12244" d="M703.549,4591.868a3.452,3.452,0,0,1-2.728-1.117h-.141c.094.73.141,1.151.141,1.266v3.539h-2.692v-12.578h2.189l.38,1.133h.123a3.241,3.241,0,0,1,2.8-1.3,3.356,3.356,0,0,1,2.736,1.195,5.066,5.066,0,0,1,.989,3.32,5.881,5.881,0,0,1-.463,2.43,3.477,3.477,0,0,1-1.32,1.57A3.7,3.7,0,0,1,703.549,4591.868Zm-.794-7.148a1.8,1.8,0,0,0-1.457.543,2.845,2.845,0,0,0-.477,1.793v.258a3.343,3.343,0,0,0,.472,2.015,1.775,1.775,0,0,0,1.5.61q1.809,0,1.809-2.641a3.42,3.42,0,0,0-.445-1.934A1.584,1.584,0,0,0,702.755,4584.72Z" fill="#bf5239"/>
        <path id="Trazado_12245" data-name="Trazado 12245" d="M715.838,4591.712l-.521-1.187h-.071a3.9,3.9,0,0,1-1.4,1.05,5.035,5.035,0,0,1-1.876.293,3.273,3.273,0,0,1-2.238-.718,2.583,2.583,0,0,1-.816-2.047,2.224,2.224,0,0,1,1.1-2.051,7.014,7.014,0,0,1,3.315-.73l1.712-.047v-.383q0-1.328-1.536-1.328a7.745,7.745,0,0,0-2.781.633l-.891-1.61a8.881,8.881,0,0,1,3.778-.789,5.149,5.149,0,0,1,3.046.766,2.682,2.682,0,0,1,1.059,2.328v5.82Zm-.795-4.047L714,4587.7a3.683,3.683,0,0,0-1.748.375,1.137,1.137,0,0,0-.574,1.046q0,1.008,1.307,1.008a2.233,2.233,0,0,0,1.5-.476,1.578,1.578,0,0,0,.56-1.266Z" fill="#bf5239"/>
        <path id="Trazado_12246" data-name="Trazado 12246" d="M724.5,4591.868q-4.608,0-4.608-4.476a4.442,4.442,0,0,1,1.254-3.4,5.06,5.06,0,0,1,3.593-1.175,7.614,7.614,0,0,1,3.072.593l-.8,1.844q-.634-.226-1.183-.371a4.3,4.3,0,0,0-1.094-.144q-2.1,0-2.1,2.64,0,2.563,2.1,2.563a5.347,5.347,0,0,0,1.439-.184,5.491,5.491,0,0,0,1.324-.574v2.039a4.678,4.678,0,0,1-1.32.508A8.358,8.358,0,0,1,724.5,4591.868Z" fill="#bf5239"/>
        <path id="Trazado_12247" data-name="Trazado 12247" d="M733.944,4589.97a6.528,6.528,0,0,0,1.7-.273v1.773a6.74,6.74,0,0,1-2.472.4,3.261,3.261,0,0,1-2.352-.722,2.907,2.907,0,0,1-.738-2.168v-4.211h-1.288v-1.008l1.483-.8.777-1.844h1.721v1.86h2.763v1.789H732.77v4.211a.876.876,0,0,0,.323.75A1.381,1.381,0,0,0,733.944,4589.97Z" fill="#bf5239"/>
        <path id="Trazado_12248" data-name="Trazado 12248" d="M746.6,4587.329a4.372,4.372,0,0,1-1.271,3.336,4.945,4.945,0,0,1-3.541,1.2,5.47,5.47,0,0,1-2.507-.55,3.892,3.892,0,0,1-1.668-1.582,4.806,4.806,0,0,1-.583-2.407A4.348,4.348,0,0,1,738.3,4584a4.979,4.979,0,0,1,3.548-1.187,5.5,5.5,0,0,1,2.508.547,3.88,3.88,0,0,1,1.668,1.57A4.771,4.771,0,0,1,746.6,4587.329Zm-6.824,0a3.323,3.323,0,0,0,.481,1.961,1.8,1.8,0,0,0,1.567.664,1.771,1.771,0,0,0,1.549-.66,3.37,3.37,0,0,0,.472-1.965,3.276,3.276,0,0,0-.476-1.945,2.2,2.2,0,0,0-3.116,0A3.273,3.273,0,0,0,739.78,4587.329Z" fill="#bf5239"/>
        <path id="Trazado_12249" data-name="Trazado 12249" d="M675.052,4612.712l-.936-2.719H669.41l-.935,2.719h-2.949l4.555-11.469h3.346L678,4612.712Zm-1.589-4.75q-1.3-3.694-1.461-4.18c-.109-.322-.187-.578-.234-.765q-.293,1-1.669,4.945Z" fill="#bf5239"/>
        <path id="Trazado_12250" data-name="Trazado 12250" d="M688.25,4612.712h-2.693v-5.1a2.331,2.331,0,0,0-.358-1.418,1.319,1.319,0,0,0-1.125-.473,1.7,1.7,0,0,0-1.5.672,3.979,3.979,0,0,0-.468,2.211v4.109h-2.692v-8.734h2.056l.363,1.117h.15a2.624,2.624,0,0,1,1.147-.941,4.127,4.127,0,0,1,1.722-.34,3.237,3.237,0,0,1,3,1.281h.239a2.573,2.573,0,0,1,1.169-.945,4.335,4.335,0,0,1,1.744-.336,3.726,3.726,0,0,1,2.538.761,3.105,3.105,0,0,1,.861,2.442v5.695h-2.7v-5.1a2.339,2.339,0,0,0-.357-1.418,1.321,1.321,0,0,0-1.126-.473,1.764,1.764,0,0,0-1.479.625,3.226,3.226,0,0,0-.489,1.984Z" fill="#bf5239"/>
        <path id="Trazado_12251" data-name="Trazado 12251" d="M702.657,4603.814a3.342,3.342,0,0,1,2.737,1.207,5.071,5.071,0,0,1,.989,3.308,4.991,4.991,0,0,1-1.02,3.352,3.864,3.864,0,0,1-5.5.07h-.185l-.451.961h-2.057v-12.156h2.693v2.828q0,.539-.106,1.727h.106A3.239,3.239,0,0,1,702.657,4603.814Zm-.865,1.906a1.8,1.8,0,0,0-1.456.543,2.838,2.838,0,0,0-.477,1.793v.258a3.336,3.336,0,0,0,.472,2.015,1.774,1.774,0,0,0,1.5.61,1.546,1.546,0,0,0,1.32-.676,3.32,3.32,0,0,0,.49-1.965,3.159,3.159,0,0,0-.494-1.934A1.613,1.613,0,0,0,701.792,4605.72Z" fill="#bf5239"/>
        <path id="Trazado_12252" data-name="Trazado 12252" d="M708.493,4601.72q0-1.165,1.465-1.164t1.466,1.164a1.064,1.064,0,0,1-.367.863,1.669,1.669,0,0,1-1.1.309Q708.493,4602.892,708.493,4601.72Zm2.807,10.992h-2.692v-8.734H711.3Z" fill="#bf5239"/>
        <path id="Trazado_12253" data-name="Trazado 12253" d="M718.592,4612.868a5.494,5.494,0,0,1-3.725-1.164,4.128,4.128,0,0,1-1.342-3.3,4.5,4.5,0,0,1,1.24-3.394,4.729,4.729,0,0,1,3.43-1.2,4.678,4.678,0,0,1,3.257,1.054,3.732,3.732,0,0,1,1.166,2.914v1.157h-6.365a2.155,2.155,0,0,0,.679,1.586,2.58,2.58,0,0,0,1.784.57,8.365,8.365,0,0,0,1.686-.164,9.2,9.2,0,0,0,1.66-.524v1.844a6.879,6.879,0,0,1-1.51.465A10.683,10.683,0,0,1,718.592,4612.868Zm-.379-7.359a1.825,1.825,0,0,0-1.342.48,2.081,2.081,0,0,0-.556,1.364h3.778a1.857,1.857,0,0,0-.521-1.364A1.888,1.888,0,0,0,718.213,4605.509Z" fill="#bf5239"/>
        <path id="Trazado_12254" data-name="Trazado 12254" d="M733.917,4612.712h-2.692v-5.1a2.234,2.234,0,0,0-.38-1.418,1.459,1.459,0,0,0-1.209-.473,1.912,1.912,0,0,0-1.633.668,3.746,3.746,0,0,0-.5,2.215v4.109h-2.692v-8.734h2.057l.362,1.117h.15a2.761,2.761,0,0,1,1.24-.957,4.7,4.7,0,0,1,1.8-.324,3.723,3.723,0,0,1,2.613.824,3.081,3.081,0,0,1,.891,2.379Z" fill="#bf5239"/>
        <path id="Trazado_12255" data-name="Trazado 12255" d="M740.847,4610.97a6.529,6.529,0,0,0,1.7-.273v1.773a6.74,6.74,0,0,1-2.472.4,3.262,3.262,0,0,1-2.353-.722,2.91,2.91,0,0,1-.737-2.168v-4.211h-1.289v-1.008l1.483-.8.777-1.844h1.722v1.86h2.763v1.789h-2.763v4.211a.876.876,0,0,0,.322.75A1.383,1.383,0,0,0,740.847,4610.97Z" fill="#bf5239"/>
        <path id="Trazado_12256" data-name="Trazado 12256" d="M750.806,4612.712l-.521-1.187h-.071a3.9,3.9,0,0,1-1.4,1.05,5.035,5.035,0,0,1-1.876.293,3.269,3.269,0,0,1-2.238-.718,2.579,2.579,0,0,1-.816-2.047,2.224,2.224,0,0,1,1.1-2.051,7.014,7.014,0,0,1,3.315-.73l1.712-.047v-.383q0-1.328-1.536-1.328a7.745,7.745,0,0,0-2.781.633l-.892-1.61a8.889,8.889,0,0,1,3.779-.789,5.149,5.149,0,0,1,3.046.766,2.682,2.682,0,0,1,1.059,2.328v5.82Zm-.8-4.047-1.042.032a3.689,3.689,0,0,0-1.748.375,1.138,1.138,0,0,0-.573,1.046q0,1.008,1.306,1.008a2.229,2.229,0,0,0,1.5-.476,1.579,1.579,0,0,0,.561-1.266Z" fill="#bf5239"/>
        <path id="Trazado_12257" data-name="Trazado 12257" d="M758.151,4612.712h-2.693v-12.156h2.693Z" fill="#bf5239"/>
      </g>
    </g>
    <g id="Grupo_13498" data-name="Grupo 13498">
      <circle id="Elipse_119" data-name="Elipse 119" cx="55.771" cy="55.771" r="55.771" transform="translate(659.039 4459.555)" fill="#5fc6ff"/>
      <path id="Trazado_12258" data-name="Trazado 12258" d="M764.816,4540.04a15.277,15.277,0,0,0-10.858-4.511h-.147a15.323,15.323,0,0,0-8.235-6.8,15.3,15.3,0,0,0-21.511-18.3,15.3,15.3,0,0,0-28.366.5,15.3,15.3,0,0,0-10.711,7.853,15.238,15.238,0,0,0-18.8,17.191,15.277,15.277,0,0,0-2.8.977,55.79,55.79,0,0,0,101.427,3.085Z" fill="#a5d130"/>
      <path id="Trazado_12259" data-name="Trazado 12259" d="M734.833,4508.754v-30.6h-7.65v7.65a1.913,1.913,0,0,1-1.912,1.913h-7.65a1.913,1.913,0,0,1-1.912-1.913v-7.65h-7.65v23.068a15.32,15.32,0,0,1,16,9.212,15.267,15.267,0,0,1,10.389-1.3Zm0,0" fill="#f7d881"/>
      <path id="Trazado_12260" data-name="Trazado 12260" d="M723.208,4487.717h-5.587a1.913,1.913,0,0,1-1.912-1.913v-7.65h-7.65v23.068a15.651,15.651,0,0,1,1.912-.118,15.21,15.21,0,0,1,8.677,2.711,40.874,40.874,0,0,0,4.56-16.1Zm0,0" fill="#f7dfa4"/>
      <path id="Trazado_12261" data-name="Trazado 12261" d="M743.03,4538.765a15.331,15.331,0,0,0-10.491-8.592,15.328,15.328,0,0,0-8.606-10.518l20.463-20.463,19.124,19.124-20.413,20.414Zm0,0" fill="#243242"/>
      <path id="Trazado_12262" data-name="Trazado 12262" d="M744.711,4475.356l3.182-2.123,4.784,7.171-3.183,2.123Zm0,0" fill="#e7e4dd"/>
      <path id="Trazado_12263" data-name="Trazado 12263" d="M751.2,4480.82l5.029-7.539,3.184,2.123-5.029,7.539Zm0,0" fill="#e7e4dd"/>
      <path id="Trazado_12264" data-name="Trazado 12264" d="M727.183,4509.243v-13.876H715.709v6.85a15.348,15.348,0,0,1,8.353,8.224,15.528,15.528,0,0,1,3.121-1.2Zm0,0" fill="#f2c351"/>
      <path id="Trazado_12265" data-name="Trazado 12265" d="M746.308,4501.1l3.033-3.033a3.827,3.827,0,0,1,5.409,0l9.891,9.891a3.826,3.826,0,0,1,0,5.409l-3.033,3.033" fill="#c5d1d9"/>
      <path id="Trazado_12266" data-name="Trazado 12266" d="M736.66,4531.79l13.473-13.474-5.737-5.737-13.388,13.387-.1.058a15.216,15.216,0,0,1,1.631,4.149,14.951,14.951,0,0,1,4.121,1.617Zm0,0" fill="#ffeea3"/>
      <path id="Trazado_12267" data-name="Trazado 12267" d="M755.871,4499.191l1.912-1.9,7.65,7.65-1.912,1.9" fill="#fff9e0"/>
      <path id="Trazado_12268" data-name="Trazado 12268" d="M679.022,4469.83l-1.517-.766a21.622,21.622,0,0,0-9.524-2.384,13.213,13.213,0,0,0-13.472,13.472,21.632,21.632,0,0,0,2.373,9.523l.766,1.517a3.807,3.807,0,0,0,6.055,1.064l16.372-16.371a3.807,3.807,0,0,0-1.053-6.055Zm0,0" fill="#c5d1d9"/>
      <path id="Trazado_12269" data-name="Trazado 12269" d="M704.561,4514.024l-12.941-12.941,10.017-5.566-1.859-3.343-10.973,6.1-2.923-2.924,10.017-5.566-1.859-3.343-10.973,6.1-2.432-2.432,9.954-5.531-1.858-3.344-10.908,6.062-4.571-4.57-2.707,2.7,4.571,4.571-6.063,10.911,3.346,1.856,5.531-9.952,2.459,2.459-6.024,10.846,3.344,1.857,5.495-9.889,2.922,2.924-6.024,10.846,3.345,1.856,5.494-9.888,12.913,12.912Zm0,0" fill="#e7e4dd"/>
      <path id="Trazado_12270" data-name="Trazado 12270" d="M702.321,4522.141H698.5a11.486,11.486,0,0,1,11.475-11.474v3.824a7.65,7.65,0,0,0-7.65,7.65Zm0,0" fill="#78b75b"/>
      <path id="Trazado_12271" data-name="Trazado 12271" d="M666.94,4478.154a2.869,2.869,0,1,1,2.869-2.868,2.867,2.867,0,0,1-2.869,2.868Zm0,0" fill="#e7e4dd"/>
      <path id="Trazado_12272" data-name="Trazado 12272" d="M731.008,4545.091a3.825,3.825,0,1,1-3.825-3.825,3.824,3.824,0,0,1,3.825,3.825Zm0,0" fill="#c66b60"/>
      <path id="Trazado_12273" data-name="Trazado 12273" d="M696.581,4541.78a3.825,3.825,0,1,1-3.825-3.825,3.824,3.824,0,0,1,3.825,3.825Zm0,0" fill="#c66b60"/>
      <rect id="Rectngulo_4164" data-name="Rectngulo 4164" width="3.824" height="3.825" transform="translate(677.11 4527.489)" fill="#78b75b"/>
      <rect id="Rectngulo_4165" data-name="Rectngulo 4165" width="3.824" height="3.825" transform="translate(709.972 4546.6)" fill="#78b75b"/>
      <rect id="Rectngulo_4166" data-name="Rectngulo 4166" width="3.824" height="3.825" transform="translate(713.794 4524.054)" fill="#78b75b"/>
      <path id="Trazado_12274" data-name="Trazado 12274" d="M750.133,4480.067h3.825a3.825,3.825,0,1,1,0,7.65h-3.825a3.825,3.825,0,1,1,0-7.65Zm0,0" fill="#445b69"/>
      <path id="Trazado_12275" data-name="Trazado 12275" d="M746.308,4545.091h-3.825a13.319,13.319,0,0,0-10.38-13.047,1.91,1.91,0,0,1-1.437-1.436,13.314,13.314,0,0,0-13.045-10.379V4516.4a17.116,17.116,0,0,1,16.476,12.211,17.116,17.116,0,0,1,12.211,16.476Zm0,0" fill="#78b75b"/>
      <path id="Trazado_12276" data-name="Trazado 12276" d="M715.709,4495.367v6.85a15.178,15.178,0,0,1,2.937,1.6,40.775,40.775,0,0,0,3.274-8.449Zm0,0" fill="#f7d881"/>
    </g>
    <path id="Trazado_12277" data-name="Trazado 12277" d="M168.149,4402.012v8.587c0,9.7,2.044,17.556,53.908,17.556H657.749c25.709,0,29.693,3.172,43.812,8.44l10.983,11.56,10.984-11.56c14.119-5.268,28.1-8.44,53.812-8.44h425.692c51.864,0,53.908-7.86,53.908-17.556v-8.587" fill="none" stroke="#d988ad" stroke-linecap="round" stroke-linejoin="round" stroke-width="3"/>
  </g>
</svg>
