<svg xmlns="http://www.w3.org/2000/svg" width="373.455" height="303.223" viewBox="0 0 373.455 303.223">
  <g id="Grupo_14854" data-name="Grupo 14854" transform="translate(-968.34 -113.453)">
    <g id="Grupo_9626" data-name="Grupo 9626" transform="translate(10 28)">
      <path id="Trazado_2795" data-name="Trazado 2795" d="M1025.055,238.98c17.437,64.851,139.637,165.244,207.9,147.662s56.751-146.482,39.314-211.332-86.913-103.17-155.18-85.587S1007.619,174.13,1025.055,238.98Z" fill="#fefefe" opacity="0.26" style="isolation: isolate"/>
      <path id="Trazado_2796" data-name="Trazado 2796" d="M1017.475,350.452c24.158,35.173,107.87,35.034,173.6,13.823s164.563-86.807,135.5-173.062c-11.311-33.576-58.624-89.6-191.347-27.342C1061.567,198.426,984.1,301.868,1017.475,350.452Z" fill="#cfeef6" opacity="0.2" style="isolation: isolate"/>
      <path id="Trazado_2797" data-name="Trazado 2797" d="M968.364,243.239c10.683,66.018,143.764,119.306,210.742,108.923s127.27-93.646,116.587-159.664-46.176-106.344-136.982-40.957C1104.007,190.933,957.68,177.22,968.364,243.239Z" fill="#fefefe" opacity="0.16" style="isolation: isolate"/>
      <path id="Trazado_2798" data-name="Trazado 2798" d="M1000.812,321.089c2.714-7.606-7.213-27.229-18.783-31.184s-20.4,9.251-23.115,16.856,4.462,16.979,16.033,20.934S998.1,328.693,1000.812,321.089Z" fill="#fefefe" opacity="0.16" style="isolation: isolate"/>
      <path id="Trazado_2799" data-name="Trazado 2799" d="M1253.012,100.964c-1.682,4.726,5.662,17.311,13.749,20.072s13.851-5.352,15.534-10.077-3.507-10.792-11.593-13.552S1254.695,96.239,1253.012,100.964Z" fill="#fefefe" opacity="0.16" style="isolation: isolate"/>
    </g>
    <g id="Grupo_9754" data-name="Grupo 9754" transform="translate(10 28)">
      <g id="Grupo_9666" data-name="Grupo 9666">
        <g id="Grupo_9633" data-name="Grupo 9633">
          <g id="Grupo_9627" data-name="Grupo 9627">
            <path id="Trazado_2800" data-name="Trazado 2800" d="M1101.8,221.634c.254.562.368.886.368.886s-.079.133-.234.379c-1.945,3.063-15.832,23.656-35.649,20.192q-.45-.078-.9-.173c-.138-.028-.276-.058-.413-.088a61.954,61.954,0,0,1-16.519-6.307c-.373-.2-.741-.409-1.1-.618a78.6,78.6,0,0,1-17.606-13.78c-.6-.643-.918-1.012-.918-1.012l.364-.227c10.451-6.527,19.485-10.705,27.277-13.155.436-.138.867-.269,1.3-.4,8.844-2.611,16.041-2.966,21.863-2.029q.853.138,1.67.31A28.915,28.915,0,0,1,1101.8,221.634Z" fill="#7d9f21"/>
          </g>
          <g id="Grupo_9628" data-name="Grupo 9628">
            <path id="Trazado_2801" data-name="Trazado 2801" d="M1101.8,221.634c.254.562.368.886.368.886s-.079.133-.234.379c-5.957-.5-13.793-.793-22.216-.949l-1.463-.026c-5.941-.1-12.132-.131-18.13-.123l-1.6,0c-11.548.026-22.222.194-28.788.321-.6-.643-.918-1.012-.918-1.012l.364-.227c8.079-.158,22.961-.391,37.986-.321.545,0,1.089.005,1.633.007h0c7.135.044,14.248.159,20.624.385q.764.027,1.51.056C1094.945,221.169,1098.628,221.373,1101.8,221.634Z" fill="#a6d406"/>
          </g>
          <g id="Grupo_9629" data-name="Grupo 9629">
            <path id="Trazado_2802" data-name="Trazado 2802" d="M1060.314,221.559l-.192.242-11.675,14.722c-.373-.2-.741-.409-1.1-.618l11.182-14.1.811-1.022Z" fill="#a6d406"/>
          </g>
          <g id="Grupo_9630" data-name="Grupo 9630">
            <path id="Trazado_2803" data-name="Trazado 2803" d="M1068.983,220.788l-.96.8-.854-1.023-10.709-12.834c.436-.138.867-.269,1.3-.4l11.046,13.237h0Z" fill="#a6d406"/>
          </g>
          <g id="Grupo_9631" data-name="Grupo 9631">
            <path id="Trazado_2804" data-name="Trazado 2804" d="M1079.907,221.649l-.192.3-13.433,21.141q-.45-.078-.9-.173c-.138-.028-.276-.058-.413-.088l13.286-20.906.6-.945Z" fill="#a6d406"/>
          </g>
          <g id="Grupo_9632" data-name="Grupo 9632">
            <path id="Trazado_2805" data-name="Trazado 2805" d="M1081.289,205.616l9.648,15.4.067.107-1.059.663-.518-.826-9.808-15.651Q1080.472,205.444,1081.289,205.616Z" fill="#a6d406"/>
          </g>
        </g>
        <g id="Grupo_9640" data-name="Grupo 9640">
          <g id="Grupo_9634" data-name="Grupo 9634">
            <path id="Trazado_2806" data-name="Trazado 2806" d="M1108.429,174.753c.092,1.2.149,2.338.185,3.386.111,3.351-.02,5.746-.029,5.938l0,.009-22.968,18.13a.011.011,0,0,1-.009,0c-.189-.037-2.549-.465-5.783-1.351-1.01-.278-2.106-.6-3.25-.966-6.134-1.979-13.589-5.305-16.184-10.269a8.36,8.36,0,0,1-1.138-3.755,3.776,3.776,0,0,1,.242-1.37c1.337-3.4,7.806-3.024,8.922-4.08,1.506-1.427-7.523-7.44-15.82-10.214-7.758-2.6-15.715-7.965-13.45-13.953.084-.215.175-.427.284-.643a6.475,6.475,0,0,1,.331-.6c3.964-6.476,11.807-.478,13.349-3.371,1.514-2.845-24.509-21.222-13.389-30.077.169-.139.359-.279.551-.415.178-.156.354-.305.532-.441,11.192-8.757,23.025,20.822,26.143,20.01,3.173-.829-.84-9.85,6.379-12.2a6.247,6.247,0,0,1,.657-.183,7.006,7.006,0,0,1,.691-.127c6.35-.813,9.725,8.174,10.451,16.319.772,8.715,4.525,18.893,6.259,17.762,1.29-.842,2.419-7.22,6.04-7.731a3.791,3.791,0,0,1,1.389.083,8.37,8.37,0,0,1,3.388,1.979C1106.424,160.3,1107.927,168.327,1108.429,174.753Z" fill="#7d9f21"/>
          </g>
          <g id="Grupo_9635" data-name="Grupo 9635">
            <path id="Trazado_2807" data-name="Trazado 2807" d="M1040.8,120.716l56.839,72-1.085.857-56.839-72.005c.17-.141.361-.279.554-.414C1040.447,121,1040.622,120.852,1040.8,120.716Z" fill="#a6d406"/>
          </g>
          <g id="Grupo_9636" data-name="Grupo 9636">
            <path id="Trazado_2808" data-name="Trazado 2808" d="M1073.235,162.078l-.129.677-.132.68-.251-.049-33.792-6.458.211-.668c.085-.213.175-.426.286-.643l31.987,6.112,1.037.2Z" fill="#a6d406"/>
          </g>
          <g id="Grupo_9637" data-name="Grupo 9637">
            <path id="Trazado_2809" data-name="Trazado 2809" d="M1096.531,191.589l-.129.677-.133.68-.25-.049-36.771-7.022a3.723,3.723,0,0,1,.244-1.367l35.219,6.732,1.037.2Z" fill="#a6d406"/>
          </g>
          <g id="Grupo_9638" data-name="Grupo 9638">
            <path id="Trazado_2810" data-name="Trazado 2810" d="M1075.37,128.164l-1.564,34.362-.011.261-.689-.032-.692-.029.038-.8.046-1.058,1.481-32.525c.237-.058.465-.1.692-.129Z" fill="#a6d406"/>
          </g>
          <g id="Grupo_9639" data-name="Grupo 9639">
            <path id="Trazado_2811" data-name="Trazado 2811" d="M1098.808,154.647l-1.707,37.39-.011.261-.688-.032-.693-.029.039-.8.045-1.057,1.629-35.814A3.727,3.727,0,0,1,1098.808,154.647Z" fill="#a6d406"/>
          </g>
        </g>
        <g id="Grupo_9647" data-name="Grupo 9647">
          <g id="Grupo_9641" data-name="Grupo 9641">
            <path id="Trazado_2812" data-name="Trazado 2812" d="M1211.45,322.284c-1.187-.261-2.306-.539-3.331-.81-3.275-.871-5.554-1.7-5.738-1.762l-.007-.006-10.837-27.523a.012.012,0,0,1,0-.009c.091-.173,1.2-2.332,3-5.2.564-.9,1.194-1.864,1.885-2.863,3.707-5.358,9.1-11.6,14.664-12.663a8.455,8.455,0,0,1,3.967-.005,3.847,3.847,0,0,1,1.255.635c2.9,2.288.646,8.437,1.342,9.826.941,1.874,9.4-5.107,14.506-12.327,4.777-6.749,12.3-12.881,17.43-8.94a6.975,6.975,0,0,1,.54.462,6.491,6.491,0,0,1,.481.494c5.108,5.728-2.987,11.566-.638,13.9,2.311,2.3,27.7-17.52,33.018-4.173.085.205.165.43.24.656.1.217.192.431.271.643,5.206,13.388-26.875,16.2-27,19.455-.125,3.312,9.778,2.064,9.946,9.737a6.521,6.521,0,0,1-.015.689,6.9,6.9,0,0,1-.08.706c-1.067,6.383-10.75,7.024-18.845,5.348-8.659-1.8-19.6-1.14-19.017.869.439,1.494,6.281,4.45,5.718,8.1a3.841,3.841,0,0,1-.486,1.321,8.453,8.453,0,0,1-2.9,2.7C1226.019,324.564,1217.815,323.676,1211.45,322.284Z" fill="#7d9f21"/>
          </g>
          <g id="Grupo_9642" data-name="Grupo 9642">
            <path id="Trazado_2813" data-name="Trazado 2813" d="M1283.5,272.622,1197.213,306.6l-.512-1.3,86.283-33.975c.087.207.165.431.239.658C1283.323,272.2,1283.417,272.408,1283.5,272.622Z" fill="#a6d406"/>
          </g>
          <g id="Grupo_9643" data-name="Grupo 9643">
            <path id="Trazado_2814" data-name="Trazado 2814" d="M1234,291.928l-.618-.323-.62-.327.121-.228L1249,260.235l.585.4c.182.144.361.294.538.464l-15.257,29.17-.494.946Z" fill="#a6d406"/>
          </g>
          <g id="Grupo_9644" data-name="Grupo 9644">
            <path id="Trazado_2815" data-name="Trazado 2815" d="M1198.633,305.852l-.618-.323-.62-.327.121-.227,17.536-33.533a3.746,3.746,0,0,1,1.251.634l-16.8,32.117-.494.945Z" fill="#a6d406"/>
          </g>
          <g id="Grupo_9645" data-name="Grupo 9645">
            <path id="Trazado_2816" data-name="Trazado 2816" d="M1266.192,303.9l-32.8-11.55-.25-.087.232-.657.23-.661.763.27,1.01.354,31.044,10.933c-.013.246-.042.478-.077.707Z" fill="#a6d406"/>
          </g>
          <g id="Grupo_9646" data-name="Grupo 9646">
            <path id="Trazado_2817" data-name="Trazado 2817" d="M1233.718,318.846l-35.685-12.572-.25-.087.232-.658.23-.661.763.27,1.01.354,34.183,12.037A3.767,3.767,0,0,1,1233.718,318.846Z" fill="#a6d406"/>
          </g>
        </g>
        <g id="Grupo_9654" data-name="Grupo 9654">
          <g id="Grupo_9648" data-name="Grupo 9648">
            <path id="Trazado_2818" data-name="Trazado 2818" d="M1119.4,303.268c.12.865.146,1.352.146,1.352s-.161.148-.47.419c-3.87,3.385-30.984,25.807-56.525,13.166-.386-.191-.773-.39-1.158-.6q-.264-.141-.524-.285a87.72,87.72,0,0,1-19.923-15.183q-.638-.641-1.252-1.282a111.305,111.305,0,0,1-18.406-25.773c-.563-1.116-.842-1.742-.842-1.742.2-.055.391-.11.586-.163,16.813-4.685,30.761-6.745,42.329-6.955q.972-.018,1.921-.019c13.062-.008,22.984,2.393,30.52,6q1.1.528,2.145,1.09A40.962,40.962,0,0,1,1119.4,303.268Z" fill="#7d9f21"/>
          </g>
          <g id="Grupo_9649" data-name="Grupo 9649">
            <path id="Trazado_2819" data-name="Trazado 2819" d="M1119.4,303.268c.12.865.146,1.352.146,1.352s-.161.148-.47.419c-7.894-3.065-18.425-6.6-29.807-10.183l-1.978-.62c-8.034-2.51-16.433-5.035-24.586-7.426l-2.171-.636c-15.7-4.587-30.273-8.632-39.246-11.089-.563-1.116-.842-1.742-.842-1.742.2-.055.391-.11.586-.163,11.041,3.019,31.356,8.661,51.743,14.771l2.217.665h0c9.678,2.917,19.3,5.92,27.87,8.78q1.026.342,2.029.68C1110.276,299.893,1115.2,301.644,1119.4,303.268Z" fill="#a6d406"/>
          </g>
          <g id="Grupo_9650" data-name="Grupo 9650">
            <path id="Trazado_2820" data-name="Trazado 2820" d="M1063.063,286.558l-.358.252-21.759,15.33q-.638-.641-1.252-1.282l20.84-14.684,1.511-1.064Z" fill="#a6d406"/>
          </g>
          <g id="Grupo_9651" data-name="Grupo 9651">
            <path id="Trazado_2821" data-name="Trazado 2821" d="M1075.151,288.981l-1.625.7-.751-1.733-9.414-21.726q.972-.018,1.921-.019l9.71,22.41h0Z" fill="#a6d406"/>
          </g>
          <g id="Grupo_9652" data-name="Grupo 9652">
            <path id="Trazado_2822" data-name="Trazado 2822" d="M1089.649,294.524l-.38.332L1062.551,318.2c-.386-.191-.773-.39-1.158-.6q-.264-.141-.524-.285l26.422-23.087,1.195-1.044Z" fill="#a6d406"/>
          </g>
          <g id="Grupo_9653" data-name="Grupo 9653">
            <path id="Trazado_2823" data-name="Trazado 2823" d="M1097.947,273.292l6.945,24.783.048.174-1.7.476-.373-1.33L1095.8,272.2Q1096.906,272.73,1097.947,273.292Z" fill="#a6d406"/>
          </g>
        </g>
        <g id="Grupo_9661" data-name="Grupo 9661">
          <g id="Grupo_9655" data-name="Grupo 9655">
            <path id="Trazado_2824" data-name="Trazado 2824" d="M1263.388,152.155q-.174.836-.365,1.679A84.05,84.05,0,0,1,1254.6,176.3l-.28.5q-.312.549-.636,1.075c-14.277,23.262-47.682,18.891-52.556,18.115-.389-.063-.6-.1-.6-.1s-.228-.408-.57-1.171a39.225,39.225,0,0,1,2.133-35.243q.555-.985,1.182-1.976c4.278-6.762,11.1-13.765,21.7-20.413q.771-.481,1.568-.964c9.492-5.721,21.854-11.157,37.88-15.921.184-.056.37-.11.557-.165,0,0,.092.649.2,1.842A106.675,106.675,0,0,1,1263.388,152.155Z" fill="#7d9f21"/>
          </g>
          <g id="Grupo_9656" data-name="Grupo 9656">
            <path id="Trazado_2825" data-name="Trazado 2825" d="M1265.187,121.873c-6.029,6.564-15.786,17.266-26.185,28.987l-1.438,1.622c-5.394,6.093-10.922,12.42-16.159,18.548-.431.505-.861,1.011-1.29,1.513-7.406,8.7-14.148,16.934-18.99,23.443-.389-.063-.6-.1-.6-.1s-.228-.408-.57-1.171c2.58-3.457,5.681-7.385,9.123-11.6.426-.524.861-1.053,1.3-1.586,5.5-6.687,11.77-14.024,18.135-21.319q.729-.837,1.461-1.672c13.425-15.341,27.032-30.267,34.449-38.339.184-.056.37-.11.557-.165C1264.983,120.031,1265.075,120.68,1265.187,121.873Z" fill="#a6d406"/>
          </g>
          <g id="Grupo_9657" data-name="Grupo 9657">
            <path id="Trazado_2826" data-name="Trazado 2826" d="M1263.388,152.155q-.174.836-.365,1.679l-25.459-1.352-.419-.022.089-1.694,1.768.094Z" fill="#a6d406"/>
          </g>
          <g id="Grupo_9658" data-name="Grupo 9658">
            <path id="Trazado_2827" data-name="Trazado 2827" d="M1230.251,160.326l-1.677.258-.058-.377-3.538-23.126q.771-.481,1.568-.964l3.431,22.418Z" fill="#a6d406"/>
          </g>
          <g id="Grupo_9659" data-name="Grupo 9659">
            <path id="Trazado_2828" data-name="Trazado 2828" d="M1254.6,176.3l-.28.5q-.312.549-.636,1.075l-33.566-5.328-.478-.076.266-1.676,1.5.239Z" fill="#a6d406"/>
          </g>
          <g id="Grupo_9660" data-name="Grupo 9660">
            <path id="Trazado_2829" data-name="Trazado 2829" d="M1210.756,182.795l-1.626.481-.048-.164-6.99-23.642q.555-.985,1.182-1.976l7.107,24.032Z" fill="#a6d406"/>
          </g>
        </g>
        <g id="Grupo_9663" data-name="Grupo 9663">
          <g id="Grupo_9662" data-name="Grupo 9662">
            <path id="Trazado_2830" data-name="Trazado 2830" d="M1135.42,165.17c-19.807-24.647-29.307-43.551-27.525-54.932a.848.848,0,1,0-1.674-.267c-1.1,7.032,1.736,16.593,8.431,28.419,4.906,8.665,11.886,18.565,20.768,29.482Z" fill="#a6d406"/>
          </g>
          <path id="Trazado_2831" data-name="Trazado 2831" d="M1109.555,127.346s-5.745,4.173-12.622-6.3C1096.933,121.042,1107.522,117.17,1109.555,127.346Z" fill="#7d9f21"/>
          <path id="Trazado_2832" data-name="Trazado 2832" d="M1112.824,132.933s-4.45-5.555,5.536-13.067C1118.36,119.866,1122.781,130.318,1112.824,132.933Z" fill="#7d9f21"/>
          <path id="Trazado_2833" data-name="Trazado 2833" d="M1106.989,115.457s-6.031-3.741.9-14.181C1107.891,101.276,1115.513,109.643,1106.989,115.457Z" fill="#7d9f21"/>
          <path id="Trazado_2834" data-name="Trazado 2834" d="M1119.056,144.377s-4.007,5.888-13.992-1.625C1105.064,142.752,1113.731,135.494,1119.056,144.377Z" fill="#7d9f21"/>
          <path id="Trazado_2835" data-name="Trazado 2835" d="M1123.24,149.56s-5.334-4.695,3.214-13.836C1126.454,135.724,1132.6,145.247,1123.24,149.56Z" fill="#7d9f21"/>
          <path id="Trazado_2836" data-name="Trazado 2836" d="M1128.271,157.23s-3.9,5.963-14.021-1.357C1114.25,155.873,1122.78,148.451,1128.271,157.23Z" fill="#7d9f21"/>
        </g>
        <g id="Grupo_9665" data-name="Grupo 9665">
          <g id="Grupo_9664" data-name="Grupo 9664">
            <path id="Trazado_2837" data-name="Trazado 2837" d="M1277.058,177.582a.844.844,0,0,0-1.121.425c-4.75,10.564-23.2,21.147-53.541,30.785l-.679,2a216.8,216.8,0,0,0,33.225-13.032c12.04-6.158,19.622-12.568,22.538-19.05A.86.86,0,0,0,1277.058,177.582Z" fill="#a6d406"/>
          </g>
          <path id="Trazado_2838" data-name="Trazado 2838" d="M1265.221,191.372s2.522,6.673,13.978,1.742C1279.2,193.114,1272.468,184,1265.221,191.372Z" fill="#7d9f21"/>
          <path id="Trazado_2839" data-name="Trazado 2839" d="M1259.445,194.222s6.745-2.168,2.5-13.984C1261.948,180.238,1252.556,186.512,1259.445,194.222Z" fill="#7d9f21"/>
          <path id="Trazado_2840" data-name="Trazado 2840" d="M1273.847,182.868s7.076.224,6.98-12.342C1280.827,170.526,1269.9,173.282,1273.847,182.868Z" fill="#7d9f21"/>
          <path id="Trazado_2841" data-name="Trazado 2841" d="M1248,200.319s.135,7.141,12.57,6.41C1260.57,206.729,1257.29,195.857,1248,200.319Z" fill="#7d9f21"/>
          <path id="Trazado_2842" data-name="Trazado 2842" d="M1241.68,202.324s7.015-.959,4.862-13.337C1246.542,188.987,1236.216,193.528,1241.68,202.324Z" fill="#7d9f21"/>
          <path id="Trazado_2843" data-name="Trazado 2843" d="M1233.3,205.937s0,7.142,12.448,6.649C1245.744,212.586,1242.669,201.654,1233.3,205.937Z" fill="#7d9f21"/>
        </g>
      </g>
      <g id="Grupo_9669" data-name="Grupo 9669">
        <path id="Trazado_2844" data-name="Trazado 2844" d="M1244.431,357.513c0,3.079-39.277,5.575-87.727,5.575s-87.727-2.5-87.727-5.575,39.276-5.576,87.727-5.576S1244.431,354.434,1244.431,357.513Z" fill="#287196"/>
        <g id="Grupo_9668" data-name="Grupo 9668">
          <path id="Trazado_2845" data-name="Trazado 2845" d="M1206.275,357.527h-21.444V178.538h49.4l-16.115,168.1A11.957,11.957,0,0,1,1206.275,357.527Z" fill="#002e49"/>
          <rect id="Rect치ngulo_3452" data-name="Rect치ngulo 3452" width="171.158" height="14.584" rx="4.708" transform="translate(1071.159 163.951)" fill="#1d5b79"/>
          <path id="Trazado_2846" data-name="Trazado 2846" d="M1217.07,178.537l-.4,4.544-15.508,174.445h-95.934a12.1,12.1,0,0,1-12.054-11.029l-13.577-152.714-1.355-15.246Z" fill="#0d415d"/>
          <path id="Trazado_2847" data-name="Trazado 2847" d="M1217.07,178.537l-.622,6.072-137.188,4.55-1.023-10.623Z" fill="#002e49"/>
          <g id="Grupo_9667" data-name="Grupo 9667">
            <path id="Trazado_2848" data-name="Trazado 2848" d="M1113.433,260.9l-5.173-2.948,16.708-.259,8.638,14.794-5.172-2.793-6.918,12.193a20.844,20.844,0,0,0-2.749,9.783c0,.13-.005.262-.006.4l-9.414-16.268S1105.26,268.759,1113.433,260.9Z" fill="#fffbf4"/>
            <path id="Trazado_2849" data-name="Trazado 2849" d="M1159.664,300.715l-.1,5.953-8.26-14.525,8.817-14.687.038,5.878,14.018.2a20.849,20.849,0,0,0,9.9-2.293c.116-.06.233-.122.349-.185l-9.736,16.077S1170.488,304.1,1159.664,300.715Z" fill="#fffbf4"/>
            <path id="Trazado_2850" data-name="Trazado 2850" d="M1171.675,240.914l4.618-2.684-8.168,14.577-17.131.038,5.013-3.069-6.78-11.546s2.532-6.522,9.531-7.878C1165.969,228.954,1171.675,240.914,1171.675,240.914Z" fill="#ece4da"/>
            <path id="Trazado_2851" data-name="Trazado 2851" d="M1144.624,283.165v17.3h-15.13s-6.623-.153-7.681-7.68c-.88-6.253,2.638-9.621,2.638-9.621Z" fill="#ece4da"/>
            <path id="Trazado_2852" data-name="Trazado 2852" d="M1163.786,263.567l14.887-8.816,7.709,13.019a10.649,10.649,0,0,1-4.2,11.05c-4.95,3.747-8.117,2.1-8.117,2.1Z" fill="#ece4da"/>
            <path id="Trazado_2853" data-name="Trazado 2853" d="M1120.933,247.138l7.785-13.63s2.483-4.112,6.362-4.112h18.285a36.149,36.149,0,0,0-7.577,8.871c-3.87,6.107-9.777,17.354-9.777,17.354Z" fill="#fffbf4"/>
          </g>
        </g>
      </g>
      <g id="Grupo_9697" data-name="Grupo 9697">
        <ellipse id="Elipse_1" data-name="Elipse 1" cx="37.286" cy="4.556" rx="37.286" ry="4.556" transform="translate(1214.417 363.741)" fill="#488cc0"/>
        <g id="Grupo_9696" data-name="Grupo 9696">
          <g id="Grupo_9671" data-name="Grupo 9671">
            <g id="Grupo_9670" data-name="Grupo 9670">
              <path id="Trazado_2854" data-name="Trazado 2854" d="M1242.686,240.7s-7.746,7.573-11.318,10.1c0,0-2.222-.513-6.857-1.829v6.945c2.971,1.184,5.95,2.154,7.859,2.215A66.338,66.338,0,0,0,1244.5,248.5Z" fill="#0d415d"/>
            </g>
          </g>
          <g id="Grupo_9675" data-name="Grupo 9675">
            <g id="Grupo_9674" data-name="Grupo 9674">
              <g id="Grupo_9673" data-name="Grupo 9673">
                <g id="Grupo_9672" data-name="Grupo 9672">
                  <path id="Trazado_2855" data-name="Trazado 2855" d="M1243.885,363.7l-5.3,0-3.354-40.768,3.816-37.389,14.329-1.334-8.617,42.619C1247.179,336.679,1245.143,349.283,1243.885,363.7Z" fill="#002e49"/>
                </g>
              </g>
            </g>
            <path id="Trazado_2856" data-name="Trazado 2856" d="M1244.038,363.384a2.471,2.471,0,0,1,.319,1.368c0,.921-.092,4.1-.092,4.1l-15.519-.009a4.609,4.609,0,0,1,1.911-3.706c1.966-1.289,4.987-.023,7.875-2.049C1238.532,363.088,1239.305,363.794,1244.038,363.384Z" fill="#95465b"/>
          </g>
          <g id="Grupo_9678" data-name="Grupo 9678">
            <g id="Grupo_9677" data-name="Grupo 9677">
              <g id="Grupo_9676" data-name="Grupo 9676">
                <path id="Trazado_2857" data-name="Trazado 2857" d="M1272.922,363.413c-1.019-11.051-5.824-33.291-8.893-38.088l-.006-41.691-14.005,3.312,4.163,38.463,13.373,37.7C1269.151,364,1271.006,363.831,1272.922,363.413Z" fill="#0d415d"/>
              </g>
            </g>
            <path id="Trazado_2858" data-name="Trazado 2858" d="M1272.922,363.413a2.427,2.427,0,0,1,.353,1.391c0,.922,0,4.064,0,4.064l-15.505-.009a4.612,4.612,0,0,1,1.911-3.705c1.967-1.289,4.987-.024,7.875-2.05C1267.554,363.1,1268.188,363.823,1272.922,363.413Z" fill="#95465b"/>
          </g>
          <g id="Grupo_9681" data-name="Grupo 9681">
            <g id="Grupo_9680" data-name="Grupo 9680">
              <g id="Grupo_9679" data-name="Grupo 9679">
                <path id="Trazado_2859" data-name="Trazado 2859" d="M1237.382,286.87c.683,1.152,3.016,2.032,5.022,2.521q.207.051.408.1c.35.078.684.142.993.2a59.646,59.646,0,0,0,9.938.792,15.987,15.987,0,0,0,1.945-.128c.136-.017.272-.036.409-.055,3.468-.508,7.323-2.016,9.255-3.951l-2.813-12.623,5.383-31.382-7.2-2.47-.386-.133-1.617-.554-1.843-.632-7.061,1.209-1.239.164-.438.059-5.451.727Z" fill="#1d5b79"/>
              </g>
            </g>
          </g>
          <g id="Grupo_9692" data-name="Grupo 9692">
            <g id="Grupo_9682" data-name="Grupo 9682">
              <path id="Trazado_2860" data-name="Trazado 2860" d="M1244.744,217.4s-1.919.942-1.689,4.194,1.413,3.747,1.413,3.747S1247.222,218.558,1244.744,217.4Z" fill="#002e49"/>
            </g>
            <g id="Grupo_9683" data-name="Grupo 9683">
              <path id="Trazado_2861" data-name="Trazado 2861" d="M1251,233.262l-.287,4.039-.131,2.422c2.092,2,6.148-.44,6.148-.44l1.16-5.894c-.977-.857-3.808-.608-5.522-.36C1251.558,233.146,1251,233.262,1251,233.262Z" fill="#fbb28f"/>
            </g>
            <g id="Grupo_9684" data-name="Grupo 9684">
              <path id="Trazado_2862" data-name="Trazado 2862" d="M1251,233.262l-.287,4.039c2.793-.281,5.545-3.75,5.545-3.75l-3.89-.522C1251.558,233.146,1251,233.262,1251,233.262Z" fill="#ed867a"/>
            </g>
            <g id="Grupo_9685" data-name="Grupo 9685">
              <path id="Trazado_2863" data-name="Trazado 2863" d="M1244.9,219.064s-4.07-2.565-2.348-5.955,6.592-.2,11.524.7c7.441,1.348,9.107,4.415,8.4,8.451s-1.358,9.484-3.457,11.279-2.99-1.234-3.617-3.895S1249.885,218.458,1244.9,219.064Z" fill="#002e49"/>
            </g>
            <g id="Grupo_9687" data-name="Grupo 9687">
              <g id="Grupo_9686" data-name="Grupo 9686">
                <path id="Trazado_2864" data-name="Trazado 2864" d="M1244.064,222.468c-.015.137-.03.277-.044.419a63.283,63.283,0,0,0-.091,8.2,4.8,4.8,0,0,0,5.14,4.58c3.249-.236,7.277-.708,9.208-1.652a1.938,1.938,0,0,0,1.1-1,26.53,26.53,0,0,0,.734-3.46c.647-4.072,1-9.21,1-9.21-3.2-5.213-14.046-4.721-16.1-1.468A9.285,9.285,0,0,0,1244.064,222.468Z" fill="#fbb28f"/>
              </g>
            </g>
            <g id="Grupo_9688" data-name="Grupo 9688">
              <path id="Trazado_2865" data-name="Trazado 2865" d="M1260.6,225.809a2.278,2.278,0,0,0-3.232.469l-1.11-.142a10.7,10.7,0,0,0-.028-3.578c-.381-1.306-2.51-1.545-2.642-3.045,0,0-5.271,1.357-8.7-.449s8.124-6.425,12.953-2.844S1261.906,222.03,1260.6,225.809Z" fill="#002e49"/>
            </g>
            <g id="Grupo_9689" data-name="Grupo 9689">
              <path id="Trazado_2866" data-name="Trazado 2866" d="M1258.277,234.01a1.938,1.938,0,0,0,1.1-1,26.53,26.53,0,0,0,.734-3.46l-3.046,1.567A3.033,3.033,0,0,0,1258.277,234.01Z" fill="#002e49"/>
            </g>
            <g id="Grupo_9691" data-name="Grupo 9691">
              <g id="Grupo_9690" data-name="Grupo 9690">
                <path id="Trazado_2867" data-name="Trazado 2867" d="M1257.372,226.278s1.962-1.843,3.232-.469c1.4,1.515-.369,5.819-3.542,5.312Z" fill="#fbb28f"/>
              </g>
            </g>
          </g>
          <g id="Grupo_9693" data-name="Grupo 9693">
            <path id="Trazado_2868" data-name="Trazado 2868" d="M1232.767,276.874l-17.412,3.041a2.839,2.839,0,0,1-3.285-2.314l-2.418-14.052-.861-5-1.388-7.936-1.78-10.175a4.4,4.4,0,0,1,3.573-5.09l.152-.029a2.93,2.93,0,0,0,2.383-3.392l-2.718-15.53,8.36-1.463,2.719,15.53a2.931,2.931,0,0,0,3.393,2.382,4.4,4.4,0,0,1,5.091,3.574l1.75,10,1.42,8.109.924,5.29,2.4,13.768A2.838,2.838,0,0,1,1232.767,276.874Z" fill="#fffbf4"/>
            <path id="Trazado_2869" data-name="Trazado 2869" d="M1232.624,259.4l-22.971,4.146-.861-5-1.388-7.936,22.924-4.191,1.42,8.109Z" fill="#a6d406"/>
            <path id="Trazado_2870" data-name="Trazado 2870" d="M1208.8,258.588l-1.1-6.3L1230.64,248l1.09,6.446.562,3.3-22.93,4.124Z" fill="#7d9f21"/>
            <path id="Trazado_2871" data-name="Trazado 2871" d="M1217.373,214.934l.637,3.642a35.792,35.792,0,0,1-8.357,1.482l-.641-3.661Z" fill="#ece4da"/>
            <path id="Trazado_2872" data-name="Trazado 2872" d="M1218.367,216.065a36.4,36.4,0,0,1-10.058,1.76l-.621-3.547,10.059-1.76Z" fill="#a6d406"/>
          </g>
          <g id="Grupo_9695" data-name="Grupo 9695">
            <g id="Grupo_9694" data-name="Grupo 9694">
              <path id="Trazado_2873" data-name="Trazado 2873" d="M1267.922,242.335a12.2,12.2,0,0,1,.433,10.832c-2.665,5.765-15.718,13.965-15.718,13.965l-24.83,2.773-1.038-4.395s8.046-2.039,10.613-2.555,8.716-2.176,13.075-2.72C1250.457,260.235,1262.188,246.361,1267.922,242.335Z" fill="#0d415d"/>
            </g>
            <path id="Trazado_2874" data-name="Trazado 2874" d="M1226.769,265.51a9.394,9.394,0,0,0-2.835-1.805,12.019,12.019,0,0,0-4.027-.025c-1.32.048-.915,1.071.294,1.341s2.514.386,2.233.772-5.674,1.126-6.672,2.189,3.706.222,3.706.222-4.424,1.215-4.622,2.06,4.441-.472,4.441-.472-3.369,1-3.1,1.725c.193.518,2.937-.2,4.273-.594,0,0-3.293,1.071-2.815,1.5.61.547,6.774-.327,10.161-2.518A22.819,22.819,0,0,0,1226.769,265.51Z" fill="#fbb28f"/>
          </g>
        </g>
      </g>
      <g id="Grupo_9753" data-name="Grupo 9753">
        <path id="Trazado_2875" data-name="Trazado 2875" d="M1001.146,368.489c0,2.275,24.576,4.118,54.891,4.118s54.892-1.843,54.892-4.118-24.576-4.119-54.892-4.119S1001.146,366.214,1001.146,368.489Z" fill="#488cc0"/>
        <g id="Grupo_9730" data-name="Grupo 9730">
          <g id="Grupo_9698" data-name="Grupo 9698">
            <path id="Trazado_2876" data-name="Trazado 2876" d="M1101.821,164.492l.151,26.92c.01,1.712-7.068,3.14-15.807,3.189s-15.835-1.3-15.845-3.011l-.152-26.92Z" fill="#fffbf4"/>
            <path id="Trazado_2877" data-name="Trazado 2877" d="M1101.821,164.491c.01,1.712-7.068,3.14-15.809,3.189s-15.834-1.3-15.844-3.01,7.069-3.14,15.809-3.189S1101.812,162.78,1101.821,164.491Z" fill="#ece4da"/>
            <path id="Trazado_2878" data-name="Trazado 2878" d="M1093.336,164.539c0,.6-3.281,1.108-7.335,1.13s-7.343-.446-7.347-1.047,3.281-1.107,7.335-1.13S1093.332,163.938,1093.336,164.539Z" fill="#d2c3b3"/>
          </g>
          <g id="Grupo_9701" data-name="Grupo 9701">
            <g id="Grupo_9700" data-name="Grupo 9700">
              <g id="Grupo_9699" data-name="Grupo 9699">
                <path id="Trazado_2879" data-name="Trazado 2879" d="M1060.258,295.261h5.285l3.365-40.634-3.782-37.271-14.282-1.337,8.565,42.486C1056.99,268.323,1059.012,280.887,1060.258,295.261Z" fill="#002e49"/>
              </g>
            </g>
            <path id="Trazado_2880" data-name="Trazado 2880" d="M1060.1,294.943a2.469,2.469,0,0,0-.319,1.363c0,.919.09,4.087.09,4.087h15.469a4.6,4.6,0,0,0-1.9-3.7c-1.959-1.286-4.971-.027-7.849-2.047C1065.593,294.651,1064.823,295.355,1060.1,294.943Z" fill="#7c4550"/>
          </g>
          <g id="Grupo_9704" data-name="Grupo 9704">
            <g id="Grupo_9703" data-name="Grupo 9703">
              <g id="Grupo_9702" data-name="Grupo 9702">
                <path id="Trazado_2881" data-name="Trazado 2881" d="M1034.555,294.955c1.023-11.014,5.824-33.179,8.886-37.959l.03-41.556,13.957,3.308-4.171,38.337-13.351,37.566C1038.314,295.541,1036.465,295.373,1034.555,294.955Z" fill="#0d415d"/>
              </g>
            </g>
            <path id="Trazado_2882" data-name="Trazado 2882" d="M1034.555,294.955a2.427,2.427,0,0,0-.352,1.387v4.051h15.454a4.6,4.6,0,0,0-1.9-3.7c-1.959-1.286-4.97-.027-7.848-2.047C1039.906,294.651,1039.274,295.366,1034.555,294.955Z" fill="#7c4550"/>
          </g>
          <g id="Grupo_9709" data-name="Grupo 9709">
            <g id="Grupo_9706" data-name="Grupo 9706">
              <g id="Grupo_9705" data-name="Grupo 9705">
                <path id="Trazado_2883" data-name="Trazado 2883" d="M1066.189,191.384l.11,28.8c-13.916,4.986-23.807-1.62-23.807-1.62l4.3-23.8-5.323-19.951,3.6-1.811.729-.369h0l1.582-.8,5-2.518,10.045,1.3,1.4.18.824.106,1.059.138c-.486,3.274-.14,7.26.27,11.3a13.334,13.334,0,0,1,1.4,5.013,5.205,5.205,0,0,1-1.07,3.359l0,0c-.041.054-.082.1-.123.156Z" fill="#1d5b79"/>
              </g>
            </g>
            <g id="Grupo_9708" data-name="Grupo 9708">
              <g id="Grupo_9707" data-name="Grupo 9707">
                <path id="Trazado_2884" data-name="Trazado 2884" d="M1066.176,190.87l.013.514a31.814,31.814,0,0,1-8.13,1.038,30.4,30.4,0,0,1-5.922-.571.307.307,0,0,1,.119-.6,31.12,31.12,0,0,0,14.043-.534C1066.258,190.768,1066.217,190.819,1066.176,190.87Z" fill="#0d415d"/>
              </g>
            </g>
          </g>
          <g id="Grupo_9727" data-name="Grupo 9727">
            <g id="Grupo_9711" data-name="Grupo 9711">
              <g id="Grupo_9710" data-name="Grupo 9710">
                <path id="Trazado_2885" data-name="Trazado 2885" d="M1062.564,149.811a6.66,6.66,0,0,1,1.937,3.612,6.1,6.1,0,0,1-.711,3.51Z" fill="#002e49"/>
              </g>
            </g>
            <path id="Trazado_2886" data-name="Trazado 2886" d="M1061.879,151.7c-3.379,1.787-9.821,1.373-9.821,1.373-5.025,1.363-2.665,12.633-2.665,12.633-1.63-.253-2.756-1.553-3.532-3.158a26.716,26.716,0,0,1-1.8,7.4c-2.762,5.837-8.644,2.523-8.644,2.523,7.2.163,5.734-7.6,1.292-13.146s-.744-14.692,4.162-14.935a5.381,5.381,0,0,1,5.7,4.4l0,0a5.25,5.25,0,0,1,.35,1.009c1.573-1.875,9.438-5.226,13.014-4.389C1063.432,146.224,1064.675,150.219,1061.879,151.7Z" fill="#002e49"/>
            <g id="Grupo_9713" data-name="Grupo 9713">
              <g id="Grupo_9712" data-name="Grupo 9712">
                <path id="Trazado_2887" data-name="Trazado 2887" d="M1046.93,149.8a9.81,9.81,0,0,0-2.76,5.386,6.85,6.85,0,0,1-1.245.135c.148-1.106.876-5.152,3.653-6.528A5.261,5.261,0,0,1,1046.93,149.8Z" fill="#fff"/>
              </g>
            </g>
            <g id="Grupo_9715" data-name="Grupo 9715">
              <g id="Grupo_9714" data-name="Grupo 9714">
                <path id="Trazado_2888" data-name="Trazado 2888" d="M1057.031,166.272l.069,3.768.032,1.728c-2.043,1.76-5.722-.18-5.722-.18l-.685-6.022c.95-.749,3.465.108,5.046.422C1056.516,166.137,1057.031,166.272,1057.031,166.272Z" fill="#fbb28f"/>
              </g>
            </g>
            <g id="Grupo_9717" data-name="Grupo 9717">
              <g id="Grupo_9716" data-name="Grupo 9716">
                <path id="Trazado_2889" data-name="Trazado 2889" d="M1057.031,166.272l.069,3.768c-2.582-.4-4.97-3.757-4.97-3.757l3.641-.295C1056.516,166.137,1057.031,166.272,1057.031,166.272Z" fill="#ed867a"/>
              </g>
            </g>
            <g id="Grupo_9719" data-name="Grupo 9719">
              <g id="Grupo_9718" data-name="Grupo 9718">
                <path id="Trazado_2890" data-name="Trazado 2890" d="M1061.242,167.073c-4.419,2.4-10-.3-11.731-1.265-.346-.193-.539-.317-.539-.317s-.239-.9-.482-2.24a29.312,29.312,0,0,1-.522-5.132c.007-2.166.4-4.2,1.667-5.116l13.052-2.442s.045.159.119.447C1063.413,153.384,1065.97,164.5,1061.242,167.073Z" fill="#fbb28f"/>
              </g>
            </g>
            <g id="Grupo_9721" data-name="Grupo 9721">
              <g id="Grupo_9720" data-name="Grupo 9720">
                <path id="Trazado_2891" data-name="Trazado 2891" d="M1049.511,165.808c-.346-.193-.539-.317-.539-.317s-.239-.9-.482-2.24l1.074.351A1.863,1.863,0,0,1,1049.511,165.808Z" fill="#002e49"/>
              </g>
            </g>
            <g id="Grupo_9724" data-name="Grupo 9724">
              <g id="Grupo_9723" data-name="Grupo 9723">
                <g id="Grupo_9722" data-name="Grupo 9722">
                  <path id="Trazado_2892" data-name="Trazado 2892" d="M1050.03,159.083s-1.751-1.925-3.018-.427c-1.4,1.65.263,6.162,3.563,5.485Z" fill="#fbb28f"/>
                </g>
              </g>
            </g>
            <g id="Grupo_9726" data-name="Grupo 9726">
              <g id="Grupo_9725" data-name="Grupo 9725">
                <path id="Trazado_2893" data-name="Trazado 2893" d="M1062.806,151.009c-1.276.575-6.823,2.922-10.922,2.431,0,0,.047.335.1.857h0l0,.028c0,.019.006.047.01.082a35.6,35.6,0,0,1,.217,6.583c-.3,2.334.245,4.218,1.2,4.306,0,0-.753.386-1.515-1.014a20.055,20.055,0,0,1-1.313-4.461c-.507-.632-1.321-1.892-2.617-1.727.005-2.165.4-4.175,1.666-5.09l13.051-2.443S1062.732,150.72,1062.806,151.009Z" fill="#002e49"/>
              </g>
            </g>
          </g>
          <path id="Trazado_2894" data-name="Trazado 2894" d="M1070.218,174.292a54.79,54.79,0,0,0-4.514-3.252,12.334,12.334,0,0,0-.139,6.57,15.73,15.73,0,0,0,4.653,3.623Z" fill="#0d415d"/>
          <g id="Grupo_9729" data-name="Grupo 9729">
            <g id="Grupo_9728" data-name="Grupo 9728">
              <path id="Trazado_2895" data-name="Trazado 2895" d="M1045.573,174.541c4.32,2.5,12.44,8.284,16.285,10.543,0,0,3.655-.654,7.535-1.266,3.763-.593,14.62-3.32,14.62-3.32l1.593,4.351s-18.935,8.68-26.512,7.449c-3.72-.6-7.175-3.882-10.059-5.536a31.023,31.023,0,0,1-8.1-6.748c-.238-.278-.4-.464-.408-.487A3.678,3.678,0,0,1,1045.573,174.541Z" fill="#0d415d"/>
            </g>
            <path id="Trazado_2896" data-name="Trazado 2896" d="M1084.013,180.5a10.3,10.3,0,0,1,1.122-2.972,12.037,12.037,0,0,1,3.07-2.607c1.043-.81,1.39.234.637,1.217s-1.679,1.911-1.216,2.027,5.072-2.782,6.519-2.608-2.7,2.55-2.7,2.55,4.171-1.911,4.866-1.39-3.707,2.49-3.707,2.49,3.225-1.4,3.483-.668c.184.521-2.383,1.729-3.657,2.29,0,0,3.212-1.295,3.121-.659-.115.811-5.944,4.185-9.948,4.681Z" fill="#fbb28f"/>
          </g>
        </g>
        <g id="Grupo_9752" data-name="Grupo 9752">
          <g id="Grupo_9740" data-name="Grupo 9740">
            <g id="Grupo_9732" data-name="Grupo 9732">
              <g id="Grupo_9731" data-name="Grupo 9731">
                <path id="Trazado_2897" data-name="Trazado 2897" d="M1054.171,302.465l-16.6,64.891a.775.775,0,0,0,.769,1.033,1.421,1.421,0,0,0,1.3-1.033l16.595-64.891Z" fill="#fffbf4"/>
              </g>
            </g>
            <g id="Grupo_9734" data-name="Grupo 9734">
              <g id="Grupo_9733" data-name="Grupo 9733">
                <path id="Trazado_2898" data-name="Trazado 2898" d="M1027.052,302.465l-16.6,64.891a.776.776,0,0,0,.769,1.033,1.42,1.42,0,0,0,1.3-1.033l16.6-64.891Z" fill="#fffbf4"/>
              </g>
            </g>
            <g id="Grupo_9739" data-name="Grupo 9739">
              <g id="Grupo_9735" data-name="Grupo 9735">
                <path id="Trazado_2899" data-name="Trazado 2899" d="M1024.279,317.446h27.093a1.421,1.421,0,0,0,1.3-1.032.775.775,0,0,0-.768-1.033h-27.093a1.42,1.42,0,0,0-1.3,1.033A.774.774,0,0,0,1024.279,317.446Z" fill="#fffbf4"/>
              </g>
              <g id="Grupo_9736" data-name="Grupo 9736">
                <path id="Trazado_2900" data-name="Trazado 2900" d="M1020.97,330.386h27.092a1.422,1.422,0,0,0,1.3-1.032.775.775,0,0,0-.768-1.033H1021.5a1.422,1.422,0,0,0-1.3,1.033A.775.775,0,0,0,1020.97,330.386Z" fill="#fffbf4"/>
              </g>
              <g id="Grupo_9737" data-name="Grupo 9737">
                <path id="Trazado_2901" data-name="Trazado 2901" d="M1017.66,343.29h27.093a1.433,1.433,0,0,0,1.3-1.066.8.8,0,0,0-.769-1.066h-27.092a1.432,1.432,0,0,0-1.3,1.066A.8.8,0,0,0,1017.66,343.29Z" fill="#fffbf4"/>
              </g>
              <g id="Grupo_9738" data-name="Grupo 9738">
                <path id="Trazado_2902" data-name="Trazado 2902" d="M1014.351,356.266h27.093a1.421,1.421,0,0,0,1.3-1.033.774.774,0,0,0-.768-1.032h-27.093a1.422,1.422,0,0,0-1.3,1.032A.775.775,0,0,0,1014.351,356.266Z" fill="#fffbf4"/>
              </g>
            </g>
          </g>
          <g id="Grupo_9751" data-name="Grupo 9751">
            <g id="Grupo_9742" data-name="Grupo 9742">
              <g id="Grupo_9741" data-name="Grupo 9741">
                <path id="Trazado_2903" data-name="Trazado 2903" d="M1054.681,302.465h-2.065l16.6,64.891a1.421,1.421,0,0,0,1.3,1.033.775.775,0,0,0,.768-1.033Z" fill="#fffbf4"/>
              </g>
            </g>
            <g id="Grupo_9745" data-name="Grupo 9745">
              <g id="Grupo_9744" data-name="Grupo 9744">
                <g id="Grupo_9743" data-name="Grupo 9743">
                  <path id="Trazado_2904" data-name="Trazado 2904" d="M1098.4,367.356l-16.6-64.891h-2.065l16.6,64.891a1.421,1.421,0,0,0,1.3,1.033A.776.776,0,0,0,1098.4,367.356Z" fill="#fffbf4"/>
                </g>
              </g>
            </g>
            <g id="Grupo_9750" data-name="Grupo 9750">
              <path id="Rect치ngulo_3453" data-name="Rect치ngulo 3453" d="M.855,0H57.066a.855.855,0,0,1,.855.855v2.4a.855.855,0,0,1-.855.855H.856A.856.856,0,0,1,0,3.258V.855A.855.855,0,0,1,.855,0Z" transform="translate(1025.094 300.393)" fill="#fffbf4"/>
              <g id="Grupo_9746" data-name="Grupo 9746">
                <path id="Trazado_2905" data-name="Trazado 2905" d="M1084.572,317.446h-27.093a1.422,1.422,0,0,1-1.3-1.032.775.775,0,0,1,.768-1.033h27.093a1.42,1.42,0,0,1,1.3,1.033A.774.774,0,0,1,1084.572,317.446Z" fill="#fffbf4"/>
              </g>
              <g id="Grupo_9747" data-name="Grupo 9747">
                <path id="Trazado_2906" data-name="Trazado 2906" d="M1087.881,330.386h-27.092a1.422,1.422,0,0,1-1.3-1.032.775.775,0,0,1,.769-1.033h27.092a1.421,1.421,0,0,1,1.3,1.033A.775.775,0,0,1,1087.881,330.386Z" fill="#fffbf4"/>
              </g>
              <g id="Grupo_9748" data-name="Grupo 9748">
                <path id="Trazado_2907" data-name="Trazado 2907" d="M1091.191,343.29H1064.1a1.433,1.433,0,0,1-1.3-1.066.8.8,0,0,1,.769-1.066h27.092a1.432,1.432,0,0,1,1.3,1.066A.8.8,0,0,1,1091.191,343.29Z" fill="#fffbf4"/>
              </g>
              <g id="Grupo_9749" data-name="Grupo 9749">
                <path id="Trazado_2908" data-name="Trazado 2908" d="M1094.5,356.266h-27.093a1.423,1.423,0,0,1-1.3-1.033.774.774,0,0,1,.768-1.032h27.093a1.421,1.421,0,0,1,1.3,1.032A.775.775,0,0,1,1094.5,356.266Z" fill="#fffbf4"/>
              </g>
            </g>
          </g>
        </g>
      </g>
    </g>
  </g>
</svg>
