<svg xmlns="http://www.w3.org/2000/svg" width="204.975" height="243.586" viewBox="0 0 204.975 243.586">
  <g id="Grupo_12968" data-name="Grupo 12968" transform="translate(-361.701 -3824.456)">
    <path id="Trazado_8513" data-name="Trazado 8513" d="M423.651,4068.042H457.73l-1.737-11.356-2.9-30.114-36.268-.142s2.452,21.734,6.183,38.69C423.172,4065.885,423.39,4066.869,423.651,4068.042Z" fill="#25302c"/>
    <path id="Trazado_8514" data-name="Trazado 8514" d="M457.11,4050.769s-13.142-17.736-39.555-18.39l-.734-5.949,37.162-.6Z" fill="#131917"/>
    <path id="Trazado_8515" data-name="Trazado 8515" d="M479.965,4068.042c-.157-23.509-1.477-44.672-1.477-44.672l-36.066,3.183,2.82,41.489Z" fill="#131917"/>
    <g id="Grupo_12960" data-name="Grupo 12960">
      <g id="Grupo_12958" data-name="Grupo 12958">
        <g id="Grupo_12955" data-name="Grupo 12955">
          <g id="Grupo_12953" data-name="Grupo 12953">
            <g id="Grupo_12952" data-name="Grupo 12952">
              <rect id="Rectángulo_4065" data-name="Rectángulo 4065" width="40.724" height="8.661" transform="translate(519.829 3907.717) rotate(-72.569)" fill="#909ba0"/>
              <path id="Trazado_8516" data-name="Trazado 8516" d="M520.042,3921.662l-.095-.029c-2.607-.819-4.222-3.067-3.608-5.022l6.851-22.417,9.865,2.864-7.182,22.547C525.259,3921.56,522.649,3922.481,520.042,3921.662Z" fill="#2e4661"/>
            </g>
            <path id="Trazado_8517" data-name="Trazado 8517" d="M528.56,3880.444l-.572,1.45,5.73,10.3,3.482-10.72Z" fill="#272525" opacity="0.12"/>
          </g>
          <g id="Grupo_12954" data-name="Grupo 12954">
            <circle id="Elipse_63" data-name="Elipse 63" cx="26.07" cy="26.07" r="26.07" transform="translate(514.535 3831.512)" fill="#59595b"/>
            <circle id="Elipse_64" data-name="Elipse 64" cx="22.427" cy="22.427" r="22.427" transform="translate(518.178 3835.155)" fill="#b3d1e2"/>
          </g>
        </g>
        <g id="Grupo_12957" data-name="Grupo 12957">
          <g id="Grupo_12956" data-name="Grupo 12956" opacity="0.22">
            <path id="Trazado_8518" data-name="Trazado 8518" d="M537.421,3841.711a15.795,15.795,0,0,1,15.5,26.391c-1.429,1.425.676,3.746,2.107,2.319A18.924,18.924,0,0,0,539,3838.172a17.332,17.332,0,0,0-2.278.484c-1.939.536-1.255,3.594.7,3.055Z" fill="#fff"/>
          </g>
          <circle id="Elipse_65" data-name="Elipse 65" cx="2.063" cy="2.063" r="2.063" transform="translate(547.097 3870.721)" fill="#fff" opacity="0.31"/>
        </g>
      </g>
      <path id="Trazado_8519" data-name="Trazado 8519" d="M523.54,3894.377l9.386,2.725a.654.654,0,0,0,.789-.383l.041-.1a.655.655,0,0,0-.431-.875l-9.423-2.637a.655.655,0,0,0-.81.466l0,.013A.655.655,0,0,0,523.54,3894.377Z" fill="#a36652"/>
      <g id="Grupo_12959" data-name="Grupo 12959">
        <path id="Trazado_8520" data-name="Trazado 8520" d="M545.945,3878.8a22.195,22.195,0,1,1,10.006-5.672,22.365,22.365,0,0,1-10.006,5.672.6.6,0,0,0,.3,1.155,23.385,23.385,0,1,0-18.393-2.884,23.647,23.647,0,0,0,18.393,2.884A.6.6,0,0,0,545.945,3878.8Z" fill="#6a8678"/>
      </g>
    </g>
    <path id="Trazado_8521" data-name="Trazado 8521" d="M519.9,3900.534c2.822-2.189,8.033-2.514,11.349-1.455h0c2.369-5.031,5.611-2.342,5.611-2.342a57.993,57.993,0,0,0-2.086,5.484,8.9,8.9,0,0,1,1.005,3.453c-.111,6.255-4.214,19.716-4.214,19.716l-7.028,2.4-3.754-5.027c-2.709-2.318-1.79-6.526-1.79-6.526l-2.317-.735C514.884,3914.61,516.44,3903.216,519.9,3900.534Z" fill="#faa284"/>
    <path id="Trazado_8522" data-name="Trazado 8522" d="M516.211,3928.459l2.61-7.447s9.474-1.488,14.017,6.183l-3.776,8.536Z" fill="#fff"/>
    <path id="Trazado_8523" data-name="Trazado 8523" d="M477.671,3911.553s9.741,2.323,23,40.143c0,0,9.16-17.65,13.479-24.659,0,0,7.522-.087,17.748,7.068,0,0-11.939,36.283-21.173,44.622,0,0-17.65,18.246-31.054-16.084C479.667,3962.643,472.359,3923.242,477.671,3911.553Z" fill="#1b2320"/>
    <path id="Trazado_8524" data-name="Trazado 8524" d="M429.094,3908.942a86.533,86.533,0,0,1,31.589-1.323c-.072,7.483-.289,39.794-7.651,65.476C453.032,3973.095,432.368,3926.171,429.094,3908.942Z" fill="#fff"/>
    <path id="Trazado_8525" data-name="Trazado 8525" d="M453.894,3917.989l-4.105,7.248,10.021,44.346-6.795,8.8L445.975,3972l-.679-46.429-3.568-5.726,5.078-7.382Z" fill="#c94949"/>
    <g id="Grupo_12961" data-name="Grupo 12961">
      <path id="Trazado_8526" data-name="Trazado 8526" d="M453.482,3902.318l.3,11.055-18.313.5-.395-14.381A36.035,36.035,0,0,0,453.482,3902.318Z" fill="#faa284"/>
      <path id="Trazado_8527" data-name="Trazado 8527" d="M435.078,3899.5l-.3-11.078,18.313-.5.4,14.405A36.035,36.035,0,0,1,435.078,3899.5Z" fill="#ef8d72"/>
    </g>
    <path id="Trazado_8528" data-name="Trazado 8528" d="M406.834,3912.954s11.328-2.569,24.032-5.337c3.274,17.228,22.166,65.478,22.166,65.478,7.362-25.682,5.827-58.657,5.9-66.139,5.783.91,12.935,1.905,18.7,4.6,0,0,7.763,34.865,4.344,114.25,0,0-25.8,9.278-67.216,1.38,0,0-3.173-46.221-5.018-75.711C409.74,3951.472,408.536,3926.619,406.834,3912.954Z" fill="#25302c"/>
    <path id="Trazado_8529" data-name="Trazado 8529" d="M453.514,3903.472s-.847,6.389-6.708,8.986c0,0-10.91-1.867-11.679-9l-5.5,5.371s3.371,10.211,11.826,13.364l5.285-8.057,7.183,6.646s6.642-7.95,6.073-13.146Z" fill="#f0f2f1"/>
    <path id="Trazado_8530" data-name="Trazado 8530" d="M464.57,3931.332l3.2,2.9s-8.547,33.62-14.69,45.809c0,0-17.731-29.7-23.314-42.68l2.669-4.234-5.852-1.8s-2.346-12.285-1.69-22.172c1.909-.567,3.912-1.095,5.976-1.544,3.274,17.228,22.166,65.478,22.166,65.478,7.362-25.682,5.827-58.657,5.9-66.139,1.7.267,3.56.659,5.483,1.144l4.088,19.414Z" fill="#1b2320"/>
    <g id="Grupo_12966" data-name="Grupo 12966">
      <path id="Trazado_8531" data-name="Trazado 8531" d="M430.37,3846.843s17.642,8.4,21.892,7.936,17.857-6.978,17.857-6.978c1.75,8.171-2.541,15.256-2.541,15.256l-38.342,8.855-6.464,1.7c-1.753-6.918-3.24-14.013-3.227-18.085A16.209,16.209,0,0,0,430.37,3846.843Z" fill="#3b221d"/>
      <path id="Trazado_8532" data-name="Trazado 8532" d="M424.4,3842.187c3.447-13.888,27.149-14.837,27.149-14.837,12.457-7.575,7.779,2.116,7.779,2.116,20.842-7.457,10.914,11.311,10.914,11.311,7.716-.272-.122,7.024-.122,7.024s-13.608,6.517-17.857,6.978-21.892-7.936-21.892-7.936a16.209,16.209,0,0,1-10.825,8.685C419.586,3843.165,424.4,3842.187,424.4,3842.187Z" fill="#502f26"/>
      <path id="Trazado_8533" data-name="Trazado 8533" d="M424.41,3868.587l2.879,2.427a34.16,34.16,0,0,0,1.5-4.45c2.326-8.753,1.584-19.721,1.584-19.721a60.036,60.036,0,0,0,37.3,2.159c-.961,9.973,2.34,31.954-5.3,43.233-2.278,3.361-5.156,6.181-9.985,6.938-21.038,3.294-26.445-17.288-26.445-17.288s-6.594,1.757-7.938-7.962C416.887,3865.872,424.41,3868.587,424.41,3868.587Z" fill="#faa284"/>
      <path id="Trazado_8534" data-name="Trazado 8534" d="M433.347,3850.416s-1.688,9.287-4.252,14.9c1.945-8.354,1.275-18.468,1.275-18.468a60.036,60.036,0,0,0,37.3,2.159c-.1,1.088-.146,2.331-.15,3.684C459.7,3853.772,445.694,3854.733,433.347,3850.416Z" fill="#ef8d72"/>
      <path id="Trazado_8535" data-name="Trazado 8535" d="M456.037,3871.125c.018,1.809,1.116,3.191,2.455,3.083s2.408-1.662,2.389-3.472-1.116-3.191-2.454-3.084S456.018,3869.314,456.037,3871.125Z" fill="#502f26"/>
      <path id="Trazado_8536" data-name="Trazado 8536" d="M437.649,3870.59c.017,1.81,1.115,3.191,2.454,3.084s2.409-1.663,2.39-3.472-1.118-3.191-2.454-3.084S437.63,3868.78,437.649,3870.59Z" fill="#502f26"/>
      <g id="Grupo_12962" data-name="Grupo 12962">
        <path id="Trazado_8537" data-name="Trazado 8537" d="M449.517,3881.4c4.068,1.644,6.261-.27,6.424-2.2a2.759,2.759,0,0,0-1.807-2.837c-2.479-.968-4.227-4.78-4.244-4.818h0a8.175,8.175,0,0,0,4.018,6c.679.4,1.1.812,1.051,1.432-.092,1.079-1.651,2.69-5.442,2.419Z" fill="#db7c65"/>
      </g>
      <g id="Grupo_12963" data-name="Grupo 12963">
        <path id="Trazado_8538" data-name="Trazado 8538" d="M464.3,3861.786l.178-1.224a31.989,31.989,0,0,0-9.392-.749l-.043,1.921A41.181,41.181,0,0,1,464.3,3861.786Z" fill="#502f26"/>
      </g>
      <g id="Grupo_12964" data-name="Grupo 12964">
        <path id="Trazado_8539" data-name="Trazado 8539" d="M434.445,3862.428c3.292-1.276,9.395-1.514,9.453-1.527l-.4-1.751c-.24.049-5.774.241-9.464,2.212Z" fill="#502f26"/>
      </g>
      <path id="Trazado_8540" data-name="Trazado 8540" d="M468.5,3827.784s-8.771,8.619-29.256,8.6c0,0,13.38,9.331,31.605,3.111C470.849,3839.494,475.5,3828.434,468.5,3827.784Z" fill="#674434"/>
      <path id="Trazado_8541" data-name="Trazado 8541" d="M427.538,3879.46c1.787,5.212,8.452,18.059,22.828,17.276,7.779-.423,11.727-5.555,14.32-9.138a21.138,21.138,0,0,1-2.317,4.637c-2.278,3.361-5.156,6.181-9.985,6.938-21.038,3.294-26.445-17.288-26.445-17.288s-5.048,1.41-7.281-5.021C422.583,3883.388,427.538,3879.46,427.538,3879.46Z" fill="#ef8d72"/>
      <g id="Grupo_12965" data-name="Grupo 12965">
        <path id="Trazado_8542" data-name="Trazado 8542" d="M442.445,3884.225a40.827,40.827,0,0,0,14.774,0s-1.26,6.549-7.387,6.536A7.4,7.4,0,0,1,442.445,3884.225Z" fill="#823321"/>
        <path id="Trazado_8543" data-name="Trazado 8543" d="M449.995,3887.353c4.709,0,6.092-1.952,6.685-3.016-5.526,1.09-9.981.438-13.861-.042C443.239,3885.477,445.555,3887.353,449.995,3887.353Z" fill="#fff"/>
      </g>
    </g>
    <g id="Grupo_12967" data-name="Grupo 12967">
      <path id="Trazado_8544" data-name="Trazado 8544" d="M377.431,4021.994l.807,4.025s2.729,6.221,2.158,8.551c-.733,2.99.112,7.7.112,7.7s-3.687,1.209-3.835-4.3c0,0-2.374,9.038-4.235,8.8a15.673,15.673,0,0,1-2.457-1.819s-1.622.349-2.964-2c0,0-2.371.47-2.952-1.466a4.579,4.579,0,0,1-2.112-2.953c-.528-2.2-.113-2.237.207-6.3,0,0,2.21-7.939,6.088-9.989Z" fill="#faa284"/>
      <path id="Trazado_8545" data-name="Trazado 8545" d="M382.326,4017l-2.953,9.347s-5.894,3.187-14.364-2.917l2.123-9.083Z" fill="#fff"/>
      <path id="Trazado_8546" data-name="Trazado 8546" d="M406.834,3912.954s-8.081,4.729-26.664,51.258c0,0-13.207,26.441-14.172,51.517a17.4,17.4,0,0,0,16.782,3.221s11.637-35.4,13.9-44.665l16.362-24.467S414.433,3919.6,406.834,3912.954Z" fill="#25302c"/>
    </g>
  </g>
</svg>
