<svg xmlns="http://www.w3.org/2000/svg" xmlns:xlink="http://www.w3.org/1999/xlink" width="656.515" height="457.655" viewBox="0 0 656.515 457.655">
  <defs>
    <clipPath id="clip-path">
      <path id="Trazado_14882" data-name="Trazado 14882" d="M835.69,2470.79l-44.2-44.2h0l-61.513-61.513a12.572,12.572,0,0,0-17.791,0l-61.513,61.513h0l-44.2,44.2a12.589,12.589,0,0,0,0,17.785L712.183,2594.3a12.577,12.577,0,0,0,17.785,0L835.69,2488.575A12.589,12.589,0,0,0,835.69,2470.79Z" fill="none"/>
    </clipPath>
    <clipPath id="clip-path-2">
      <path id="Trazado_14936" data-name="Trazado 14936" d="M1035.365,2673.988l-44.2-44.2h-.005l-61.512-61.513a12.573,12.573,0,0,0-17.792,0l-61.512,61.513h0l-44.2,44.2a12.587,12.587,0,0,0,0,17.785L911.857,2797.5a12.58,12.58,0,0,0,17.785,0l105.723-105.722A12.589,12.589,0,0,0,1035.365,2673.988Z" fill="none"/>
    </clipPath>
    <clipPath id="clip-path-3">
      <path id="Trazado_14998" data-name="Trazado 14998" d="M633.652,2673.979l-44.2-44.2h0l-61.513-61.512a12.57,12.57,0,0,0-17.791,0l-61.513,61.512h0l-44.2,44.2a12.587,12.587,0,0,0,0,17.785l105.722,105.723a12.58,12.58,0,0,0,17.785,0l105.722-105.723A12.587,12.587,0,0,0,633.652,2673.979Z" fill="none"/>
    </clipPath>
  </defs>
  <g id="Grupo_14997" data-name="Grupo 14997" transform="translate(-391.742 -2352.45)">
    <g id="Grupo_14973" data-name="Grupo 14973">
      <path id="Trazado_14849" data-name="Trazado 14849" d="M842.069,2488.579,736.351,2594.3a12.581,12.581,0,0,1-17.792,0L612.84,2488.579a12.594,12.594,0,0,1,0-17.791l44.2-44.2H797.872l44.2,44.2A12.593,12.593,0,0,1,842.069,2488.579Z" fill="#83d0c6" opacity="0.5"/>
      <path id="Trazado_14850" data-name="Trazado 14850" d="M721.073,2361.384a12.5,12.5,0,0,1,8.9,3.685l105.719,105.719a12.6,12.6,0,0,1,0,17.792L729.969,2594.3a12.581,12.581,0,0,1-17.792,0L606.459,2488.58a12.594,12.594,0,0,1,0-17.792l105.718-105.719a12.5,12.5,0,0,1,8.9-3.685m0-8.934a21.448,21.448,0,0,0-15.213,6.3L600.141,2464.471a21.514,21.514,0,0,0,0,30.426L705.86,2600.615a21.513,21.513,0,0,0,30.426,0L842.005,2494.9a21.514,21.514,0,0,0,0-30.426L736.286,2358.752a21.448,21.448,0,0,0-15.213-6.3Z" fill="#c0e54c"/>
      <path id="Trazado_14851" data-name="Trazado 14851" d="M835.69,2470.79l-44.2-44.2h0l-61.513-61.513a12.572,12.572,0,0,0-17.791,0l-61.513,61.513h0l-44.2,44.2a12.589,12.589,0,0,0,0,17.785L712.183,2594.3a12.577,12.577,0,0,0,17.785,0L835.69,2488.575A12.589,12.589,0,0,0,835.69,2470.79Z" fill="#5fc6ff"/>
      <g id="Grupo_14972" data-name="Grupo 14972">
        <g id="Grupo_14971" data-name="Grupo 14971" clip-path="url(#clip-path)">
          <g id="Grupo_14970" data-name="Grupo 14970">
            <path id="Trazado_14852" data-name="Trazado 14852" d="M671.7,2449v61.377c17.616,0,31.9-13.739,31.9-30.688S689.312,2449,671.7,2449Z" fill="#ffa630"/>
            <path id="Trazado_14853" data-name="Trazado 14853" d="M682.328,2479.684c0-16.949-4.76-30.689-10.632-30.689-17.615,0-31.895,13.74-31.895,30.689s14.28,30.688,31.895,30.688C677.568,2510.372,682.328,2496.633,682.328,2479.684Z" fill="#ffc938"/>
            <path id="Trazado_14854" data-name="Trazado 14854" d="M832.59,2489.73q-5.309.049-10.375.241l-13.9,86.056,27.8-28.771v-55.127C836.116,2490.792,834.528,2489.712,832.59,2489.73Z" fill="#5b9b40"/>
            <path id="Trazado_14855" data-name="Trazado 14855" d="M695.4,2524.517l-2.238,1.118v50.392H822.215v-86.056c-62.319,2.324-97.868,20.083-126.811,34.546Z" fill="#70ae3e"/>
            <path id="Trazado_14856" data-name="Trazado 14856" d="M836.116,2547.256c-4.935,0-9.554-.12-13.907-.351l-13.9,29.122,27.809-19.181Z" fill="#37774b"/>
            <path id="Trazado_14857" data-name="Trazado 14857" d="M746.533,2524.517c-30.514-15.248-68.366-34.162-137.192-34.787-1.936-.018-3.521,1.063-3.521,2.4v64.718l13.9,19.181H822.208v-29.122c-34.544-1.831-52.214-10.664-75.676-22.388Z" fill="#468943"/>
            <path id="Trazado_14858" data-name="Trazado 14858" d="M822.215,2556.846l-13.9,23.977,27.8-9.591v-14.386Z" fill="#5b9b40"/>
            <path id="Trazado_14859" data-name="Trazado 14859" d="M605.82,2556.846v33.567l13.9,9.59H822.215v-43.157Z" fill="#70ae3e"/>
            <path id="Trazado_14860" data-name="Trazado 14860" d="M808.314,2597.606l13.9,26.373h10.426c1.919,0,3.475-1.073,3.475-2.4v-50.35h-13.9Z" fill="#70ae3e"/>
            <path id="Trazado_14861" data-name="Trazado 14861" d="M653.165,2571.232c-3.743,0-6.963,1.984-7.139,4.564-.188,2.753,2.992,5.027,6.942,5.027s7.131,2.273,6.943,5.027c-.176,2.579-3.4,4.563-7.139,4.563H605.82v31.169c0,1.324,1.556,2.4,3.476,2.4H822.215v-52.747Z" fill="#9dcb3b"/>
            <path id="Trazado_14862" data-name="Trazado 14862" d="M647.524,2544.858c-1.92,0-3.476-1.073-3.476-2.4v-4.795c0-1.325,1.556-2.4,3.476-2.4s3.475,1.073,3.475,2.4v4.795C651,2543.785,649.443,2544.858,647.524,2544.858Z" fill="#37774b"/>
            <path id="Trazado_14863" data-name="Trazado 14863" d="M720.968,2549.654c-1.92,0-3.475-1.073-3.475-2.4v-4.8c0-1.325,1.555-2.4,3.475-2.4s3.475,1.073,3.475,2.4v4.8C724.443,2548.581,722.888,2549.654,720.968,2549.654Z" fill="#37774b"/>
            <path id="Trazado_14864" data-name="Trazado 14864" d="M822.215,2540.063c-1.92,0-3.476-1.073-3.476-2.4v-4.8c0-1.324,1.556-2.4,3.476-2.4s3.475,1.073,3.475,2.4v4.8C825.69,2538.99,824.134,2540.063,822.215,2540.063Z" fill="#468943"/>
            <path id="Trazado_14865" data-name="Trazado 14865" d="M808.314,2535.268c-1.92,0-3.476-1.073-3.476-2.4v-4.8c0-1.324,1.556-2.4,3.476-2.4s3.475,1.073,3.475,2.4v4.8C811.789,2534.2,810.233,2535.268,808.314,2535.268Z" fill="#5b9b40"/>
            <path id="Trazado_14866" data-name="Trazado 14866" d="M633.623,2549.654c-1.92,0-3.476-1.073-3.476-2.4v-4.8c0-1.325,1.556-2.4,3.476-2.4s3.475,1.073,3.475,2.4v4.8C637.1,2548.581,635.542,2549.654,633.623,2549.654Z" fill="#37774b"/>
            <path id="Trazado_14867" data-name="Trazado 14867" d="M619.721,2544.858c-1.919,0-3.475-1.073-3.475-2.4v-4.795c0-1.325,1.556-2.4,3.475-2.4s3.476,1.073,3.476,2.4v4.795C623.2,2543.785,621.641,2544.858,619.721,2544.858Z" fill="#37774b"/>
            <path id="Trazado_14868" data-name="Trazado 14868" d="M619.721,2592.811c-1.919,0-3.475-1.074-3.475-2.4v-4.8c0-1.325,1.556-2.4,3.475-2.4s3.476,1.073,3.476,2.4v4.8C623.2,2591.737,621.641,2592.811,619.721,2592.811Z" fill="#9dcb3b"/>
            <path id="Trazado_14869" data-name="Trazado 14869" d="M633.623,2592.811c-1.92,0-3.476-1.074-3.476-2.4v-4.8c0-1.325,1.556-2.4,3.476-2.4s3.475,1.073,3.475,2.4v4.8C637.1,2591.737,635.542,2592.811,633.623,2592.811Z" fill="#9dcb3b"/>
            <path id="Trazado_14870" data-name="Trazado 14870" d="M679.265,2597.606c-1.92,0-3.476-1.073-3.476-2.4v-4.795c0-1.324,1.556-2.4,3.476-2.4s3.475,1.074,3.475,2.4v4.795C682.74,2596.533,681.184,2597.606,679.265,2597.606Z" fill="#70ae3e"/>
            <path id="Trazado_14871" data-name="Trazado 14871" d="M693.166,2592.811c-1.92,0-3.476-1.074-3.476-2.4v-4.8c0-1.325,1.556-2.4,3.476-2.4s3.475,1.073,3.475,2.4v4.8C696.641,2591.737,695.085,2592.811,693.166,2592.811Z" fill="#70ae3e"/>
            <path id="Trazado_14872" data-name="Trazado 14872" d="M822.215,2611.991c-1.92,0-3.476-1.073-3.476-2.4V2604.8c0-1.325,1.556-2.4,3.476-2.4s3.475,1.073,3.475,2.4v4.795C825.69,2610.918,824.134,2611.991,822.215,2611.991Z" fill="#5b9b40"/>
            <path id="Trazado_14873" data-name="Trazado 14873" d="M808.314,2616.787c-1.92,0-3.476-1.074-3.476-2.4v-4.795c0-1.325,1.556-2.4,3.476-2.4s3.475,1.073,3.475,2.4v4.795C811.789,2615.713,810.233,2616.787,808.314,2616.787Z" fill="#70ae3e"/>
            <path id="Trazado_14874" data-name="Trazado 14874" d="M822.215,2588.015c-1.92,0-3.476-1.073-3.476-2.4v-4.795c0-1.325,1.556-2.4,3.476-2.4s3.475,1.073,3.475,2.4v4.795C825.69,2586.942,824.134,2588.015,822.215,2588.015Z" fill="#5b9b40"/>
            <path id="Trazado_14875" data-name="Trazado 14875" d="M794.412,2611.991c-1.919,0-3.475-1.073-3.475-2.4V2604.8c0-1.325,1.556-2.4,3.475-2.4s3.476,1.073,3.476,2.4v4.795C797.888,2610.918,796.332,2611.991,794.412,2611.991Z" fill="#70ae3e"/>
            <g id="Grupo_14969" data-name="Grupo 14969">
              <path id="Trazado_14876" data-name="Trazado 14876" d="M775.067,2573.63c-1.92,0-3.476-1.073-3.476-2.4v-4.795c0-1.325,1.556-2.4,3.476-2.4s3.475,1.073,3.475,2.4v4.795C778.542,2572.557,776.986,2573.63,775.067,2573.63Z" fill="#9dcb3b"/>
              <path id="Trazado_14877" data-name="Trazado 14877" d="M707.067,2573.63c-1.92,0-3.475-1.073-3.475-2.4v-4.795c0-1.325,1.555-2.4,3.475-2.4s3.475,1.073,3.475,2.4v4.795C710.542,2572.557,708.987,2573.63,707.067,2573.63Z" fill="#9dcb3b"/>
              <path id="Trazado_14878" data-name="Trazado 14878" d="M720.968,2573.63c-1.92,0-3.475-1.073-3.475-2.4v-4.795c0-1.325,1.555-2.4,3.475-2.4s3.475,1.073,3.475,2.4v4.795C724.443,2572.557,722.888,2573.63,720.968,2573.63Z" fill="#9dcb3b"/>
              <path id="Trazado_14879" data-name="Trazado 14879" d="M693.166,2573.63c-1.92,0-3.476-1.073-3.476-2.4v-4.795c0-1.325,1.556-2.4,3.476-2.4s3.475,1.073,3.475,2.4v4.795C696.641,2572.557,695.085,2573.63,693.166,2573.63Z" fill="#9dcb3b"/>
            </g>
            <path id="Trazado_14880" data-name="Trazado 14880" d="M619.721,2611.991c-1.919,0-3.475-1.073-3.475-2.4V2604.8c0-1.325,1.556-2.4,3.475-2.4s3.476,1.073,3.476,2.4v4.795C623.2,2610.918,621.641,2611.991,619.721,2611.991Z" fill="#70ae3e"/>
            <path id="Trazado_14881" data-name="Trazado 14881" d="M633.623,2616.787c-1.92,0-3.476-1.074-3.476-2.4v-4.795c0-1.325,1.556-2.4,3.476-2.4s3.475,1.073,3.475,2.4v4.795C637.1,2615.713,635.542,2616.787,633.623,2616.787Z" fill="#70ae3e"/>
          </g>
        </g>
      </g>
    </g>
    <g id="Grupo_14974" data-name="Grupo 14974">
      <path id="Trazado_14883" data-name="Trazado 14883" d="M1042.026,2691.767,936.307,2797.486a12.581,12.581,0,0,1-17.792,0L812.8,2691.767a12.593,12.593,0,0,1,0-17.791l44.2-44.2H997.829l44.2,44.2A12.594,12.594,0,0,1,1042.026,2691.767Z" fill="#53a1dd" opacity="0.5"/>
      <path id="Trazado_14884" data-name="Trazado 14884" d="M921.024,2564.572a12.5,12.5,0,0,1,8.9,3.685l105.718,105.719a12.593,12.593,0,0,1,0,17.791L929.92,2797.486a12.581,12.581,0,0,1-17.792,0L806.409,2691.767a12.594,12.594,0,0,1,0-17.791l105.719-105.719a12.5,12.5,0,0,1,8.9-3.685m0-8.934a21.448,21.448,0,0,0-15.213,6.3L800.092,2667.658a21.516,21.516,0,0,0,0,30.427L905.811,2803.8a21.513,21.513,0,0,0,30.426,0l105.719-105.718a21.516,21.516,0,0,0,0-30.427L936.237,2561.94a21.448,21.448,0,0,0-15.213-6.3Z" fill="#c0e54c"/>
      <path id="Trazado_14885" data-name="Trazado 14885" d="M1035.637,2673.982l-44.2-44.2h0l-61.517-61.517a12.571,12.571,0,0,0-17.792,0l-61.517,61.516h0l-44.2,44.2a12.589,12.589,0,0,0,0,17.785L912.13,2797.489a12.577,12.577,0,0,0,17.785,0l105.722-105.722A12.587,12.587,0,0,0,1035.637,2673.982Z" fill="#5fc6ff"/>
    </g>
    <g id="Grupo_14975" data-name="Grupo 14975">
      <path id="Trazado_14886" data-name="Trazado 14886" d="M639.972,2691.767,534.253,2797.486a12.58,12.58,0,0,1-17.791,0L410.743,2691.767a12.594,12.594,0,0,1,0-17.791l44.2-44.2H595.775l44.2,44.2A12.594,12.594,0,0,1,639.972,2691.767Z" fill="#46ad92" opacity="0.5"/>
      <path id="Trazado_14887" data-name="Trazado 14887" d="M518.976,2564.572a12.5,12.5,0,0,1,8.9,3.685l105.719,105.719a12.594,12.594,0,0,1,0,17.791L527.872,2797.486a12.581,12.581,0,0,1-17.792,0L404.362,2691.767a12.593,12.593,0,0,1,0-17.791L510.08,2568.257a12.5,12.5,0,0,1,8.9-3.685m0-8.934a21.448,21.448,0,0,0-15.213,6.3L398.044,2667.658a21.515,21.515,0,0,0,0,30.427L503.763,2803.8a21.513,21.513,0,0,0,30.426,0l105.719-105.718a21.516,21.516,0,0,0,0-30.427L534.189,2561.94a21.448,21.448,0,0,0-15.213-6.3Z" fill="#c0e54c"/>
      <path id="Trazado_14888" data-name="Trazado 14888" d="M633.591,2673.982l-44.2-44.2h0l-61.518-61.517a12.571,12.571,0,0,0-17.792,0l-61.517,61.517h0l-44.2,44.2a12.587,12.587,0,0,0,0,17.785l105.722,105.722a12.577,12.577,0,0,0,17.785,0l105.723-105.722A12.587,12.587,0,0,0,633.591,2673.982Z" fill="#5fc6ff"/>
    </g>
    <g id="Grupo_14977" data-name="Grupo 14977">
      <path id="Trazado_14889" data-name="Trazado 14889" d="M615.285,2536.726a1.131,1.131,0,0,0,1.075,1.182l3.993.19c-1.147,1.127-3.745,3.707-3.745,3.707l1.618,1.583s2.6-2.587,3.684-3.657l-.195,4.069a1.13,1.13,0,0,0,2.257.108l.322-6.753a1.131,1.131,0,0,0-.293-.814,1.057,1.057,0,0,0-.109-.1,1.139,1.139,0,0,0-.673-.264l-6.752-.321A1.13,1.13,0,0,0,615.285,2536.726Z" fill="#46ad92"/>
      <path id="Trazado_14890" data-name="Trazado 14890" d="M582.971,2585.108a1.131,1.131,0,0,0-1.09-1.169l-3.995-.139c1.133-1.142,3.7-3.755,3.7-3.755l-1.639-1.563s-2.564,2.62-3.637,3.7l.143-4.071a1.129,1.129,0,0,0-2.257-.08l-.237,6.756a1.13,1.13,0,0,0,.3.811,1.211,1.211,0,0,0,.111.1,1.128,1.128,0,0,0,.676.255l6.756.236A1.131,1.131,0,0,0,582.971,2585.108Z" fill="#46ad92"/>
      <g id="Grupo_14976" data-name="Grupo 14976">
        <rect id="Rectángulo_4446" data-name="Rectángulo 4446" width="54.803" height="2.271" transform="matrix(0.707, -0.707, 0.707, 0.707, 577.985, 2580.435)" fill="#46ad92"/>
      </g>
    </g>
    <g id="Grupo_14979" data-name="Grupo 14979">
      <path id="Trazado_14891" data-name="Trazado 14891" d="M861.736,2582.977a1.129,1.129,0,0,0-1.185,1.071l-.2,3.992c-1.123-1.151-3.694-3.758-3.694-3.758l-1.589,1.614s2.578,2.6,3.644,3.7l-4.067-.208a1.129,1.129,0,0,0-.116,2.256l6.751.345a1.129,1.129,0,0,0,.815-.29.989.989,0,0,0,.1-.109,1.13,1.13,0,0,0,.266-.672l.344-6.751A1.129,1.129,0,0,0,861.736,2582.977Z" fill="#83d0c6"/>
      <path id="Trazado_14892" data-name="Trazado 14892" d="M813.463,2550.5a1.131,1.131,0,0,0,1.172-1.086l.153-3.994c1.138,1.136,3.741,3.711,3.741,3.711l1.569-1.634s-2.611-2.573-3.691-3.649l4.07.157a1.13,1.13,0,0,0,.087-2.258l-6.755-.259a1.125,1.125,0,0,0-.811.3,1.093,1.093,0,0,0-.1.11,1.134,1.134,0,0,0-.257.675l-.259,6.755A1.131,1.131,0,0,0,813.463,2550.5Z" fill="#83d0c6"/>
      <g id="Grupo_14978" data-name="Grupo 14978">
        <rect id="Rectángulo_4447" data-name="Rectángulo 4447" width="2.271" height="54.803" transform="matrix(0.709, -0.705, 0.705, 0.709, 816.541, 2547.131)" fill="#83d0c6"/>
      </g>
    </g>
    <rect id="Rectángulo_4448" data-name="Rectángulo 4448" width="183.427" height="31.157" rx="9.155" transform="translate(625.69 2384.465)" fill="#ff868e"/>
    <g id="Grupo_14981" data-name="Grupo 14981">
      <g id="Grupo_14980" data-name="Grupo 14980">
        <path id="Trazado_14893" data-name="Trazado 14893" d="M667.548,2407.919,666,2403.926h-5.935l-1.518,3.993h-2.676l5.808-14.438h2.761l5.808,14.438Zm-2.22-6.019-1.454-3.915q-.159-.393-.441-1.239c-.187-.564-.317-.977-.387-1.239a21.047,21.047,0,0,1-.839,2.646l-1.4,3.747Z" fill="#00223d"/>
        <path id="Trazado_14894" data-name="Trazado 14894" d="M679,2407.919l-4.5-12.009h-.085q.182,2.676.181,5.016v6.993h-2.3V2393.54h3.578l4.311,11.438h.064l4.438-11.438h3.589v14.379h-2.442v-7.111q0-1.073.058-2.793t.1-2.086h-.085l-4.661,11.99Z" fill="#00223d"/>
        <path id="Trazado_14895" data-name="Trazado 14895" d="M692.362,2393.54h4.608a9.328,9.328,0,0,1,4.635.865,2.963,2.963,0,0,1,1.428,2.734,3.149,3.149,0,0,1-.7,2.095,3.192,3.192,0,0,1-2.017,1.052v.1a4.119,4.119,0,0,1,2.4,1.126,3.245,3.245,0,0,1,.769,2.277,3.58,3.58,0,0,1-1.46,3.034,6.635,6.635,0,0,1-4.061,1.1h-5.606Zm2.537,5.94h2.443a4.454,4.454,0,0,0,2.325-.467,1.738,1.738,0,0,0,.733-1.588,1.561,1.561,0,0,0-.791-1.466,5.276,5.276,0,0,0-2.512-.452h-2.2Zm0,1.908v4.554h2.7a4.2,4.2,0,0,0,2.4-.566,2.02,2.02,0,0,0,.813-1.785,1.847,1.847,0,0,0-.828-1.662,4.678,4.678,0,0,0-2.517-.541Z" fill="#00223d"/>
        <path id="Trazado_14896" data-name="Trazado 14896" d="M706.717,2407.919V2393.54h2.538v14.379Z" fill="#00223d"/>
        <path id="Trazado_14897" data-name="Trazado 14897" d="M722.135,2407.919h-8.781V2393.54h8.781v1.987h-6.244v3.914h5.851v1.967h-5.851v4.514h6.244Z" fill="#00223d"/>
        <path id="Trazado_14898" data-name="Trazado 14898" d="M738.423,2407.919h-3.112l-7.634-11.458h-.085l.053.639q.148,1.83.149,3.344v7.475h-2.3V2393.54h3.079l7.613,11.4h.064q-.021-.226-.085-1.648t-.064-2.218v-7.533h2.326Z" fill="#00223d"/>
        <path id="Trazado_14899" data-name="Trazado 14899" d="M747.883,2407.919h-2.537v-12.363H740.78v-2.016h11.669v2.016h-4.566Z" fill="#00223d"/>
        <path id="Trazado_14900" data-name="Trazado 14900" d="M764.458,2407.919l-1.55-3.993h-5.936l-1.518,3.993h-2.676l5.808-14.438h2.761l5.808,14.438Zm-2.219-6.019-1.455-3.915q-.159-.393-.441-1.239t-.387-1.239a20.887,20.887,0,0,1-.839,2.646l-1.4,3.747Z" fill="#00223d"/>
        <path id="Trazado_14901" data-name="Trazado 14901" d="M769.2,2407.919V2393.54h2.538V2405.9h6.572v2.016Z" fill="#00223d"/>
      </g>
    </g>
    <g id="Grupo_14983" data-name="Grupo 14983">
      <path id="Trazado_14902" data-name="Trazado 14902" d="M770.484,2736.076a1.13,1.13,0,0,0-.093,1.595l2.658,2.986c-1.607-.031-5.269-.082-5.269-.082l0,2.264s3.665.045,5.19.073l-3.043,2.708a1.129,1.129,0,0,0,1.5,1.687l5.049-4.494a1.135,1.135,0,0,0,.377-.779,1.081,1.081,0,0,0,0-.151,1.134,1.134,0,0,0-.282-.665l-4.495-5.049A1.131,1.131,0,0,0,770.484,2736.076Z" fill="#3087b3"/>
      <path id="Trazado_14903" data-name="Trazado 14903" d="M675.972,2746.441a1.131,1.131,0,0,0,.072-1.6l-2.7-2.952c1.608.01,5.27.015,5.27.015l-.03-2.264s-3.666,0-5.19-.007l3.008-2.746a1.13,1.13,0,0,0-1.523-1.669l-4.992,4.558a1.133,1.133,0,0,0-.367.783,1.291,1.291,0,0,0,0,.152,1.135,1.135,0,0,0,.291.661l4.559,4.992A1.131,1.131,0,0,0,675.972,2746.441Z" fill="#3087b3"/>
      <g id="Grupo_14982" data-name="Grupo 14982">
        <rect id="Rectángulo_4449" data-name="Rectángulo 4449" width="2.271" height="92.051" transform="matrix(0.01, -1, 1, 0.01, 675.797, 2741.88)" fill="#3087b3"/>
      </g>
    </g>
    <g id="Grupo_14986" data-name="Grupo 14986">
      <g id="Grupo_14985" data-name="Grupo 14985" clip-path="url(#clip-path-2)">
        <g id="Grupo_14984" data-name="Grupo 14984">
          <path id="Trazado_14904" data-name="Trazado 14904" d="M1012.541,2639.933l14.636,79.53,14.636-38.1V2654.22Z" fill="#a94525"/>
          <path id="Trazado_14905" data-name="Trazado 14905" d="M957.17,2639.933h70.007v79.53H957.17Z" fill="#ff3c19"/>
          <path id="Trazado_14906" data-name="Trazado 14906" d="M1033.139,2632.128l-27.916-13.626,21.954,35.718h14.636l-6.839-20.027A3.6,3.6,0,0,0,1033.139,2632.128Z" fill="#302c4c"/>
          <path id="Trazado_14907" data-name="Trazado 14907" d="M1005.223,2618.5H957.17l-13.9,35.718h83.911l-7.318-21.431Z" fill="#5b3364"/>
          <path id="Trazado_14908" data-name="Trazado 14908" d="M986.441,2632.789,957.17,2618.5l-27.916,13.626a3.6,3.6,0,0,0-1.835,2.065l-6.839,20.027v65.243h73.179V2654.22Z" fill="#ff5f21"/>
          <path id="Trazado_14909" data-name="Trazado 14909" d="M946.193,2654.22h21.953v50.957H946.193Z" fill="#fffacc"/>
          <ellipse id="Elipse_122" data-name="Elipse 122" cx="3.659" cy="3.572" rx="3.659" ry="3.572" transform="translate(953.511 2636.361)" fill="#fff"/>
          <path id="Trazado_14910" data-name="Trazado 14910" d="M859.964,2587.547v42.861a21.437,21.437,0,1,0,0-42.861Z" fill="#ffa630"/>
          <path id="Trazado_14911" data-name="Trazado 14911" d="M867.282,2608.978c0-11.836-3.276-21.431-7.318-21.431a21.437,21.437,0,1,0,0,42.861C864.006,2630.408,867.282,2620.813,867.282,2608.978Z" fill="#ffc938"/>
          <path id="Trazado_14912" data-name="Trazado 14912" d="M947.487,2715.929c-32.126-15.143-71.977-33.929-144.44-34.549a3.624,3.624,0,0,0-3.7,3.574v10.7l150.5,37.414v-16.022Z" fill="#5b9b40"/>
          <path id="Trazado_14913" data-name="Trazado 14913" d="M940.4,2728.643c-15.722-7.411-33.54-15.811-56-22.187-25.606-7.27-53.426-10.8-85.051-10.8v14.287l150.5,38.869v-15.742C946.745,2731.635,943.609,2730.157,940.4,2728.643Z" fill="#468943"/>
          <path id="Trazado_14914" data-name="Trazado 14914" d="M934.033,2741.508c-31.391-14.8-66.97-31.569-134.685-31.569v14.287l150.5,24.582c-5.273-2.329-10.479-4.783-15.819-7.3Z" fill="#5b9b40"/>
          <path id="Trazado_14915" data-name="Trazado 14915" d="M799.348,2738.512l110.242,7.542c-26.736-11.73-57.994-21.828-110.242-21.828Z" fill="#468943"/>
          <path id="Trazado_14916" data-name="Trazado 14916" d="M1041.813,2681.364q-7.549,0-14.636.256l-14.636,18.187,29.272-4.156Z" fill="#5b9b40"/>
          <path id="Trazado_14917" data-name="Trazado 14917" d="M893.674,2715.929c-27.813,13.111-47.907,22.583-94.326,22.583V2752.8l24.393,4.763,203.436-57.755v-18.186c-65.606,2.307-103.032,19.945-133.5,34.308Z" fill="#70ae3e"/>
          <path id="Trazado_14918" data-name="Trazado 14918" d="M1041.813,2767.086c-5.131,0-10,.11-14.636.319l-14.636,18.26,29.272-4.292Z" fill="#5b9b40"/>
          <path id="Trazado_14919" data-name="Trazado 14919" d="M803.007,2767.405v56.829h92.65l131.52-38.569v-18.26Z" fill="#70ae3e"/>
          <path id="Trazado_14920" data-name="Trazado 14920" d="M1041.813,2781.373c-5.159,0-10.023.114-14.636.332l-14.636,17.857,29.272-3.9Z" fill="#70ae3e"/>
          <path id="Trazado_14921" data-name="Trazado 14921" d="M940.4,2805.53c-13,6.127-27.438,12.927-44.741,18.7h38.969l92.551-24.672v-17.857c-40.243,1.893-61.091,11.716-86.779,23.825Z" fill="#9dcb3b"/>
          <path id="Trazado_14922" data-name="Trazado 14922" d="M1041.813,2795.66c-5.193,0-10.055.12-14.636.348l-14.636,16.8,29.272-2.862Z" fill="#5b9b40"/>
          <path id="Trazado_14923" data-name="Trazado 14923" d="M947.487,2818.243c-4.141,1.952-8.41,3.964-12.861,5.991h34.122l58.429-11.425v-16.8c-36.373,1.818-54.989,10.591-79.69,22.235Z" fill="#70ae3e"/>
          <path id="Trazado_14924" data-name="Trazado 14924" d="M1041.813,2809.947c-5.233,0-10.086.127-14.636.368l-9.757,6.959,9.757,6.96h10.977a3.617,3.617,0,0,0,3.659-3.572Z" fill="#70ae3e"/>
          <path id="Trazado_14925" data-name="Trazado 14925" d="M968.748,2824.234h58.429v-13.919C1001.515,2811.675,985.722,2816.752,968.748,2824.234Z" fill="#9dcb3b"/>
          <path id="Trazado_14926" data-name="Trazado 14926" d="M1041.813,2752.8l-29.272-4.762,14.636,19.368c4.638-.209,9.505-.319,14.636-.319Z" fill="#70ae3e"/>
          <path id="Trazado_14927" data-name="Trazado 14927" d="M809.1,2781.373l-9.757,28.574v10.715a3.617,3.617,0,0,0,3.659,3.572c65.345-.611,100.206-17.041,131.026-31.569,26.325-12.41,49.406-23.288,93.144-25.26v-19.368Z" fill="#9dcb3b"/>
          <path id="Trazado_14928" data-name="Trazado 14928" d="M1041.813,2695.652c-4.975,0-9.844.1-14.636.273l-14.636,18.168,29.272-4.155Z" fill="#70ae3e"/>
          <path id="Trazado_14929" data-name="Trazado 14929" d="M956.761,2706.456c-22.459,6.377-40.277,14.776-56,22.187-28.632,13.5-51.247,24.156-101.415,24.156v14.287l24.393,9.525,203.436-62.518v-18.168c-25.675.941-48.837,4.4-70.416,10.531Z" fill="#9dcb3b"/>
          <path id="Trazado_14930" data-name="Trazado 14930" d="M1041.813,2709.939q-7.584,0-14.636.274l-14.636,18.467,29.272-4.455Z" fill="#5b9b40"/>
          <path id="Trazado_14931" data-name="Trazado 14931" d="M907.128,2741.508c-29.117,13.725-54.263,25.578-107.78,25.578v14.287l39.029,4.762,188.8-57.455v-18.466c-58.364,2.22-91,17.6-120.049,31.294Z" fill="#70ae3e"/>
          <path id="Trazado_14932" data-name="Trazado 14932" d="M1041.813,2724.226q-7.608,0-14.636.278l-14.636,18.446,29.272-4.438Z" fill="#70ae3e"/>
          <path id="Trazado_14933" data-name="Trazado 14933" d="M913.49,2754.375c-29.455,13.884-57.276,27-114.142,27v14.287l38.3,4.762,189.532-57.472V2724.5c-54.847,2.134-84.721,16.216-113.687,29.871Z" fill="#9dcb3b"/>
          <path id="Trazado_14934" data-name="Trazado 14934" d="M1041.813,2738.512c-5.088,0-9.958.1-14.636.3l-9.757,7.151,9.757,7.15c4.66-.2,9.529-.31,14.636-.31Z" fill="#5b9b40"/>
          <path id="Trazado_14935" data-name="Trazado 14935" d="M799.348,2795.66v14.287c64.367,0,96.879-15.326,128.323-30.149,26.81-12.638,52.27-24.636,99.506-26.689v-14.3c-106.8,4.4-111.684,56.852-227.829,56.852Z" fill="#70ae3e"/>
        </g>
      </g>
    </g>
    <rect id="Rectángulo_4450" data-name="Rectángulo 4450" width="183.427" height="31.157" rx="9.155" transform="translate(831.448 2599.208)" fill="#ffc82e"/>
    <g id="Grupo_14988" data-name="Grupo 14988">
      <g id="Grupo_14987" data-name="Grupo 14987">
        <path id="Trazado_14937" data-name="Trazado 14937" d="M866.6,2622.661h-8.781v-14.379H866.6v1.987h-6.244v3.914h5.851v1.968h-5.851v4.514H866.6Z" fill="#00223d"/>
        <path id="Trazado_14938" data-name="Trazado 14938" d="M876.559,2610.092a4.328,4.328,0,0,0-3.44,1.436,7.068,7.068,0,0,0-.048,7.966,4.42,4.42,0,0,0,3.488,1.358,9.87,9.87,0,0,0,1.911-.182q.924-.181,1.922-.468v2.017a12.494,12.494,0,0,1-4.141.639,6.9,6.9,0,0,1-5.234-1.913,7.616,7.616,0,0,1-1.827-5.473,8.3,8.3,0,0,1,.887-3.924,6.067,6.067,0,0,1,2.564-2.577,8.252,8.252,0,0,1,3.94-.9,10.428,10.428,0,0,1,4.4.924l-.913,1.957a14.463,14.463,0,0,0-1.662-.6A6.415,6.415,0,0,0,876.559,2610.092Z" fill="#00223d"/>
        <path id="Trazado_14939" data-name="Trazado 14939" d="M897.519,2615.452a7.5,7.5,0,0,1-1.895,5.459,8.441,8.441,0,0,1-10.767.015,7.548,7.548,0,0,1-1.885-5.494,7.428,7.428,0,0,1,1.9-5.468,7.29,7.29,0,0,1,5.41-1.908,7.133,7.133,0,0,1,5.351,1.938A7.489,7.489,0,0,1,897.519,2615.452Zm-11.85,0a6.1,6.1,0,0,0,1.158,4.028,4.97,4.97,0,0,0,6.843.014,7.647,7.647,0,0,0,.011-8.055,4.182,4.182,0,0,0-3.4-1.366,4.273,4.273,0,0,0-3.446,1.366A6.048,6.048,0,0,0,885.669,2615.452Z" fill="#00223d"/>
        <path id="Trazado_14940" data-name="Trazado 14940" d="M913.786,2622.661h-3.111L903.04,2611.2h-.085l.053.64q.148,1.828.149,3.344v7.474h-2.3v-14.379h3.079l7.613,11.4h.064q-.021-.225-.085-1.647t-.064-2.218v-7.534h2.326Z" fill="#00223d"/>
        <path id="Trazado_14941" data-name="Trazado 14941" d="M931.666,2615.452a7.5,7.5,0,0,1-1.9,5.459,8.441,8.441,0,0,1-10.767.015,7.547,7.547,0,0,1-1.884-5.494,7.431,7.431,0,0,1,1.9-5.468,7.291,7.291,0,0,1,5.41-1.908,7.133,7.133,0,0,1,5.351,1.938A7.489,7.489,0,0,1,931.666,2615.452Zm-11.849,0a6.1,6.1,0,0,0,1.157,4.028,4.97,4.97,0,0,0,6.843.014,7.647,7.647,0,0,0,.011-8.055,4.181,4.181,0,0,0-3.4-1.366,4.274,4.274,0,0,0-3.446,1.366A6.047,6.047,0,0,0,919.817,2615.452Zm2.994-8.32v-.246q.606-.688,1.248-1.535t1.014-1.445h2.9v.206a20.8,20.8,0,0,1-1.651,1.549,22.831,22.831,0,0,1-1.853,1.471Z" fill="#00223d"/>
        <path id="Trazado_14942" data-name="Trazado 14942" d="M941.711,2622.661l-4.5-12.008h-.085q.18,2.674.181,5.016v6.992H935v-14.379h3.579l4.31,11.438h.064l4.439-11.438h3.588v14.379h-2.442v-7.11q0-1.073.059-2.793t.1-2.086h-.085l-4.662,11.989Z" fill="#00223d"/>
        <path id="Trazado_14943" data-name="Trazado 14943" d="M955.068,2622.661v-14.379h2.538v14.379Z" fill="#00223d"/>
        <path id="Trazado_14944" data-name="Trazado 14944" d="M968.309,2610.092a4.328,4.328,0,0,0-3.44,1.436,7.068,7.068,0,0,0-.048,7.966,4.419,4.419,0,0,0,3.488,1.358,9.885,9.885,0,0,0,1.911-.182q.924-.181,1.922-.468v2.017a12.494,12.494,0,0,1-4.141.639,6.9,6.9,0,0,1-5.235-1.913,7.62,7.62,0,0,1-1.826-5.473,8.3,8.3,0,0,1,.887-3.924,6.062,6.062,0,0,1,2.564-2.577,8.245,8.245,0,0,1,3.939-.9,10.43,10.43,0,0,1,4.4.924l-.913,1.957a14.463,14.463,0,0,0-1.662-.6A6.415,6.415,0,0,0,968.309,2610.092Z" fill="#00223d"/>
        <path id="Trazado_14945" data-name="Trazado 14945" d="M989.269,2615.452a7.5,7.5,0,0,1-1.9,5.459,8.44,8.44,0,0,1-10.766.015,7.544,7.544,0,0,1-1.885-5.494,7.428,7.428,0,0,1,1.9-5.468,7.287,7.287,0,0,1,5.409-1.908,7.134,7.134,0,0,1,5.352,1.938A7.489,7.489,0,0,1,989.269,2615.452Zm-11.85,0a6.108,6.108,0,0,0,1.157,4.028,4.972,4.972,0,0,0,6.844.014,7.644,7.644,0,0,0,.01-8.055,4.181,4.181,0,0,0-3.4-1.366,4.271,4.271,0,0,0-3.445,1.366A6.048,6.048,0,0,0,977.419,2615.452Z" fill="#00223d"/>
      </g>
    </g>
    <rect id="Rectángulo_4451" data-name="Rectángulo 4451" width="183.427" height="31.157" rx="9.155" transform="translate(421.041 2599.208)" fill="#8ee4ed"/>
    <g id="Grupo_14990" data-name="Grupo 14990">
      <g id="Grupo_14989" data-name="Grupo 14989">
        <path id="Trazado_14946" data-name="Trazado 14946" d="M485.929,2618.757a3.52,3.52,0,0,1-1.5,3.009,6.891,6.891,0,0,1-4.131,1.092,10.534,10.534,0,0,1-4.31-.757v-2.223a12.341,12.341,0,0,0,2.256.728,10.286,10.286,0,0,0,2.224.265,3.747,3.747,0,0,0,2.225-.531,1.684,1.684,0,0,0,.717-1.426,1.733,1.733,0,0,0-.659-1.367,10.221,10.221,0,0,0-2.718-1.328,7.238,7.238,0,0,1-2.994-1.819,3.666,3.666,0,0,1-.871-2.459,3.344,3.344,0,0,1,1.38-2.832,6.044,6.044,0,0,1,3.706-1.033,11.623,11.623,0,0,1,4.438.905l-.807,1.918a10.34,10.34,0,0,0-3.7-.807,2.993,2.993,0,0,0-1.868.5,1.582,1.582,0,0,0-.637,1.313,1.751,1.751,0,0,0,.254.959,2.533,2.533,0,0,0,.839.752,14.725,14.725,0,0,0,2.1.934,11.858,11.858,0,0,1,2.506,1.23,3.689,3.689,0,0,1,1.168,1.288A3.634,3.634,0,0,1,485.929,2618.757Z" fill="#00223d"/>
        <path id="Trazado_14947" data-name="Trazado 14947" d="M502.716,2615.452a7.5,7.5,0,0,1-1.895,5.459,8.441,8.441,0,0,1-10.767.015,7.544,7.544,0,0,1-1.885-5.494,7.428,7.428,0,0,1,1.9-5.468,7.288,7.288,0,0,1,5.41-1.908,7.133,7.133,0,0,1,5.351,1.938A7.489,7.489,0,0,1,502.716,2615.452Zm-11.85,0a6.1,6.1,0,0,0,1.158,4.028,4.97,4.97,0,0,0,6.843.014,7.647,7.647,0,0,0,.011-8.055,4.182,4.182,0,0,0-3.4-1.366,4.272,4.272,0,0,0-3.446,1.366A6.048,6.048,0,0,0,490.866,2615.452Z" fill="#00223d"/>
        <path id="Trazado_14948" data-name="Trazado 14948" d="M512.654,2610.092a4.328,4.328,0,0,0-3.44,1.436,7.068,7.068,0,0,0-.048,7.966,4.42,4.42,0,0,0,3.488,1.358,9.888,9.888,0,0,0,1.912-.182q.923-.181,1.922-.468v2.017a12.5,12.5,0,0,1-4.141.639,6.9,6.9,0,0,1-5.235-1.913,7.616,7.616,0,0,1-1.826-5.473,8.3,8.3,0,0,1,.886-3.924,6.068,6.068,0,0,1,2.564-2.577,8.252,8.252,0,0,1,3.94-.9,10.425,10.425,0,0,1,4.395.924l-.913,1.957a14.45,14.45,0,0,0-1.661-.6A6.417,6.417,0,0,0,512.654,2610.092Z" fill="#00223d"/>
        <path id="Trazado_14949" data-name="Trazado 14949" d="M519.832,2622.661v-14.379h2.538v14.379Z" fill="#00223d"/>
        <path id="Trazado_14950" data-name="Trazado 14950" d="M536.1,2622.661l-1.55-3.993h-5.936l-1.518,3.993h-2.676l5.808-14.438h2.761l5.808,14.438Zm-2.219-6.019-1.455-3.914c-.106-.262-.253-.676-.441-1.239s-.316-.978-.387-1.24a20.788,20.788,0,0,1-.839,2.646l-1.4,3.747Z" fill="#00223d"/>
        <path id="Trazado_14951" data-name="Trazado 14951" d="M540.845,2622.661v-14.379h2.538v12.363h6.572v2.016Z" fill="#00223d"/>
      </g>
    </g>
    <g id="Grupo_14996" data-name="Grupo 14996">
      <g id="Grupo_14995" data-name="Grupo 14995" clip-path="url(#clip-path-3)">
        <g id="Grupo_14994" data-name="Grupo 14994">
          <path id="Trazado_14952" data-name="Trazado 14952" d="M455.672,2672.687c-27.947,0-24.848,33.986-24.721,58.614a2.631,2.631,0,0,0,1.289,2.249,47.174,47.174,0,0,0,46.864,0,2.633,2.633,0,0,0,1.289-2.249C480.52,2706.673,483.619,2672.687,455.672,2672.687Z" fill="#694b4b"/>
          <path id="Trazado_14953" data-name="Trazado 14953" d="M453.872,2672.758c-25.992,1.457-23.045,34.463-22.921,58.543a2.63,2.63,0,0,0,1.289,2.249,46.324,46.324,0,0,0,23.432,6.231l7.063-49.437" fill="#5a4146"/>
          <path id="Trazado_14954" data-name="Trazado 14954" d="M455.672,2672.687c-15.891,0-16.994,19.2-16.994,19.2,9.159-1.545,14.787,2.317,24.057-1.545l-7.063,49.437a46.324,46.324,0,0,0,23.432-6.231,2.633,2.633,0,0,0,1.289-2.249C480.52,2706.673,483.619,2672.687,455.672,2672.687Z" fill="#694b4b"/>
          <path id="Trazado_14955" data-name="Trazado 14955" d="M480.393,2731.3c.109-21.163,2.394-49.214-14.692-56.7-.3,1.548-.838,5.87.565,8.675,3.531,7.063,7.063,7.063,10.593,12.359,3.532,19.422-6.747,40.036-10.161,42.843h0a44.436,44.436,0,0,0,12.406-4.933A2.632,2.632,0,0,0,480.393,2731.3Z" fill="#785550"/>
          <path id="Trazado_14956" data-name="Trazado 14956" d="M482.428,2736.658l-15.755-6.565a3.532,3.532,0,0,1-2.173-3.26v-4.266H446.844v4.266a3.531,3.531,0,0,1-2.173,3.26l-15.755,6.565a5.3,5.3,0,0,0-3.26,4.889v7.063a3.531,3.531,0,0,0,3.532,3.531h52.968a3.531,3.531,0,0,0,3.532-3.531v-7.063A5.3,5.3,0,0,0,482.428,2736.658Z" fill="#e6af78"/>
          <path id="Trazado_14957" data-name="Trazado 14957" d="M482.428,2736.658,467.2,2730.31l-11.523,4.974-11.523-4.973-15.233,6.347a5.3,5.3,0,0,0-3.26,4.889v7.063a3.531,3.531,0,0,0,3.532,3.531h52.968a3.531,3.531,0,0,0,3.532-3.531v-7.063A5.3,5.3,0,0,0,482.428,2736.658Z" fill="#eff2fa"/>
          <path id="Trazado_14958" data-name="Trazado 14958" d="M464.5,2722.567H446.844v4.266a3.531,3.531,0,0,1-2.173,3.26l-2.46,1.026C461.04,2735.92,464.5,2722.567,464.5,2722.567Z" fill="#d29b6e"/>
          <g id="Grupo_14991" data-name="Grupo 14991">
            <path id="Trazado_14959" data-name="Trazado 14959" d="M434.262,2743.488l-7.087-5.637a5.287,5.287,0,0,0-1.519,3.7v7.063a3.531,3.531,0,0,0,3.532,3.531h7.062v-4.517A5.294,5.294,0,0,0,434.262,2743.488Z" fill="#e4eaf6"/>
            <path id="Trazado_14960" data-name="Trazado 14960" d="M485.688,2748.61v-7.063a5.289,5.289,0,0,0-1.5-3.675l-7.11,5.616a5.293,5.293,0,0,0-1.988,4.136v4.516h7.063A3.529,3.529,0,0,0,485.688,2748.61Z" fill="#e4eaf6"/>
            <path id="Trazado_14961" data-name="Trazado 14961" d="M455.937,2748.61h-.53a1.5,1.5,0,0,1-1.5-1.5v-11.821h3.531v11.821A1.5,1.5,0,0,1,455.937,2748.61Z" fill="#e4eaf6"/>
            <path id="Trazado_14962" data-name="Trazado 14962" d="M455.672,2735.284l-10.105-7.579a1.414,1.414,0,0,0-2.023.346l-2,2.995,6.2,8.674a1.411,1.411,0,0,0,2.031.282Z" fill="#e4eaf6"/>
            <path id="Trazado_14963" data-name="Trazado 14963" d="M455.672,2735.284l10.105-7.579a1.414,1.414,0,0,1,2.023.346l2,2.995-6.2,8.674a1.411,1.411,0,0,1-2.031.282Z" fill="#e4eaf6"/>
          </g>
          <path id="Trazado_14964" data-name="Trazado 14964" d="M464.5,2688.578c-8.828,8.828-26.153,1.766-26.153,15.891l1.1,10.4a7.065,7.065,0,0,0,3.6,5.535l10.054,5.584a5.293,5.293,0,0,0,5.144,0l10.053-5.584a7.065,7.065,0,0,0,3.6-5.535l1.265-12.357a19.606,19.606,0,0,0,.08-2.643C472.586,2695.378,466.266,2692.109,464.5,2688.578Z" fill="#f0c087"/>
          <path id="Trazado_14965" data-name="Trazado 14965" d="M438.347,2704.469l1.1,10.4a7.065,7.065,0,0,0,3.6,5.535l10.054,5.584a5.273,5.273,0,0,0,3.6.538h0s-5.069-1.537-8.085-9.7c-.925-2.5-2.208-15.744-1.1-17.363,2.182-3.2,14.346-3.531,17.94-9.465-.178-.221-.341-.441-.491-.662-.012-.018-.027-.036-.039-.054a6.634,6.634,0,0,1-.416-.707C455.672,2697.406,438.347,2690.344,438.347,2704.469Z" fill="#e6af78"/>
          <path id="Trazado_14966" data-name="Trazado 14966" d="M468.561,2748.61h-4.59a3,3,0,0,0-3,3v.53h10.594v-.53A3,3,0,0,0,468.561,2748.61Z" fill="#e4eaf6"/>
          <path id="Trazado_14967" data-name="Trazado 14967" d="M576.3,2728.448v-9.7H551.366v9.7l12.468,11.083Z" fill="#e6af78"/>
          <path id="Trazado_14968" data-name="Trazado 14968" d="M595.581,2732.984l-17.142-4.033a2.731,2.731,0,0,1-.72-.29l-13.885,8.1-13.343-8.491a2.752,2.752,0,0,1-1.261.681l-17.142,4.034a5.541,5.541,0,0,0-4.272,5.394v10.85a2.771,2.771,0,0,0,2.771,2.771h66.5a2.771,2.771,0,0,0,2.771-2.771v-10.85A5.544,5.544,0,0,0,595.581,2732.984Z" fill="#eff2fa"/>
          <path id="Trazado_14969" data-name="Trazado 14969" d="M551.366,2718.751v10.232c15.707,5.658,24.937-8.5,24.937-8.5v-1.728Z" fill="#d29b6e"/>
          <path id="Trazado_14970" data-name="Trazado 14970" d="M545.825,2686.888l1.208,26.559a8.309,8.309,0,0,0,3.316,6.272l5.728,4.3a8.307,8.307,0,0,0,4.987,1.663H566.6a8.309,8.309,0,0,0,4.987-1.663l5.728-4.3a8.313,8.313,0,0,0,3.317-6.272l1.207-26.559Z" fill="#f0c087"/>
          <path id="Trazado_14971" data-name="Trazado 14971" d="M559.678,2692.429c5.542,0,13.854-1.385,15.825-5.541H545.825l1.207,26.559a8.312,8.312,0,0,0,3.316,6.272l5.728,4.3a8.308,8.308,0,0,0,4.988,1.663h2.77c-2.77,0-8.312-5.542-8.312-12.469v-16.624C555.522,2695.2,556.908,2692.429,559.678,2692.429Z" fill="#e6af78"/>
          <path id="Trazado_14972" data-name="Trazado 14972" d="M589.683,2743.008l8.977-8.064a5.533,5.533,0,0,1,1.193,3.434v10.85a2.771,2.771,0,0,1-2.771,2.771h-9.7v-3.838A6.925,6.925,0,0,1,589.683,2743.008Z" fill="#e4eaf6"/>
          <path id="Trazado_14973" data-name="Trazado 14973" d="M567.3,2752h-6.927l.866-12.468h5.195Z" fill="#5b5d6e"/>
          <path id="Trazado_14974" data-name="Trazado 14974" d="M567.3,2736.76h-6.927v.8a3.355,3.355,0,0,0,3.355,3.356h.216a3.355,3.355,0,0,0,3.355-3.356v-.8Z" fill="#515262"/>
          <g id="Grupo_14992" data-name="Grupo 14992">
            <path id="Trazado_14975" data-name="Trazado 14975" d="M551.171,2725.364l12.663,11.4a47.812,47.812,0,0,0-7.923,5.4,1.777,1.777,0,0,1-2.752-.622l-5.949-13.088,1.882-2.823A1.385,1.385,0,0,1,551.171,2725.364Z" fill="#e4eaf6"/>
            <path id="Trazado_14976" data-name="Trazado 14976" d="M576.5,2725.364l-12.663,11.4a47.764,47.764,0,0,1,7.923,5.4,1.777,1.777,0,0,0,2.752-.622l5.95-13.088-1.883-2.823A1.385,1.385,0,0,0,576.5,2725.364Z" fill="#e4eaf6"/>
          </g>
          <path id="Trazado_14977" data-name="Trazado 14977" d="M572.233,2677.71l1.3,9.178c5.928,1.186,6.783,10.489,6.906,13.147a2.722,2.722,0,0,0,.438,1.353l2.262,3.509s-.775-5.8,2.771-9.7C585.908,2695.2,587.125,2672.169,572.233,2677.71Z" fill="#785550"/>
          <path id="Trazado_14978" data-name="Trazado 14978" d="M584.527,2704.3l-1.564,6.258a1.667,1.667,0,0,1-1.616,1.261h0a1.666,1.666,0,0,1-1.653-1.459l-.8-6.4a2.867,2.867,0,0,1,2.846-3.223h.005A2.867,2.867,0,0,1,584.527,2704.3Z" fill="#f0c087"/>
          <path id="Trazado_14979" data-name="Trazado 14979" d="M547.152,2675.228l2.049,1.4c-9.264,6.84-7.533,18.572-7.533,18.572,2.771,2.771,2.771,9.7,2.771,9.7l2.771-2.771s-1.069-8,4.156-11.082c4.849-2.857,9.092-1.385,13.421-1.385,11.6,0,14.849-4.373,14.286-9.7-.291-2.756-4.5-8.495-15.238-8.313C559.5,2671.723,551.366,2673.035,547.152,2675.228Z" fill="#694b4b"/>
          <path id="Trazado_14980" data-name="Trazado 14980" d="M546.344,2688.446a15.217,15.217,0,0,1,2.857-11.818c-9.264,6.84-7.533,18.572-7.533,18.572,2.771,2.771,2.771,9.7,2.771,9.7l2.771-2.771s-1.069-8,4.156-11.082c4.849-2.857,9.091-1.385,13.42-1.385a34.1,34.1,0,0,0,5-.343C560.847,2689.615,555.58,2682.848,546.344,2688.446Z" fill="#5a4146"/>
          <path id="Trazado_14981" data-name="Trazado 14981" d="M543.141,2704.3l1.565,6.258a1.665,1.665,0,0,0,1.616,1.261h0a1.666,1.666,0,0,0,1.653-1.459l.8-6.4a2.867,2.867,0,0,0-2.845-3.223h-.006A2.867,2.867,0,0,0,543.141,2704.3Z" fill="#e6af78"/>
          <path id="Trazado_14982" data-name="Trazado 14982" d="M580.459,2749.229h-6.927a2.771,2.771,0,0,0-2.771,2.77h12.468A2.77,2.77,0,0,0,580.459,2749.229Z" fill="#e4eaf6"/>
          <path id="Trazado_14983" data-name="Trazado 14983" d="M512.808,2637.939c-47.511,0-42.242,57.776-42.025,99.643a4.469,4.469,0,0,0,2.19,3.823,80.188,80.188,0,0,0,79.669,0,4.473,4.473,0,0,0,2.191-3.823C555.05,2695.714,560.318,2637.939,512.808,2637.939Z" fill="#694b4b"/>
          <path id="Trazado_14984" data-name="Trazado 14984" d="M509.746,2638.058c-44.186,2.477-39.176,58.588-38.963,99.524a4.469,4.469,0,0,0,2.19,3.823A78.745,78.745,0,0,0,512.808,2752l12.006-84.044" fill="#5a4146"/>
          <path id="Trazado_14985" data-name="Trazado 14985" d="M512.808,2637.939c-27.015,0-28.891,32.642-28.891,32.642,15.571-2.626,25.139,3.94,40.9-2.626L512.808,2752a78.756,78.756,0,0,0,39.834-10.593,4.474,4.474,0,0,0,2.191-3.823C555.05,2695.714,560.318,2637.939,512.808,2637.939Z" fill="#694b4b"/>
          <path id="Trazado_14986" data-name="Trazado 14986" d="M554.833,2737.583c.186-35.977,4.069-83.665-24.977-96.382-.506,2.632-1.423,9.979.961,14.748,6,12.006,12.006,12.006,18.009,21.011,6,33.017-11.47,68.062-17.274,72.832h0a75.528,75.528,0,0,0,21.09-8.386A4.474,4.474,0,0,0,554.833,2737.583Z" fill="#785550"/>
          <path id="Trazado_14987" data-name="Trazado 14987" d="M558.293,2746.689l-26.783-11.16a6,6,0,0,1-3.7-5.542v-7.253H497.8v7.253a6,6,0,0,1-3.694,5.542l-26.784,11.16a9.005,9.005,0,0,0-5.541,8.312v12.006a6,6,0,0,0,6,6h90.047a6,6,0,0,0,6-6V2755A9,9,0,0,0,558.293,2746.689Z" fill="#e6af78"/>
          <path id="Trazado_14988" data-name="Trazado 14988" d="M558.293,2746.689l-25.9-10.79-19.589,8.454-19.59-8.454-25.9,10.79a9.005,9.005,0,0,0-5.541,8.312v12.006c0,3.315,2.688,6,6,36.964h90.047c3.315-30.96,6-33.648,6-36.964V2755A9,9,0,0,0,558.293,2746.689Z" fill="#b4e1fa"/>
          <path id="Trazado_14989" data-name="Trazado 14989" d="M527.815,2722.734H497.8v7.253a6,6,0,0,1-3.694,5.542l-4.184,1.743C521.934,2745.434,527.815,2722.734,527.815,2722.734Z" fill="#d29b6e"/>
          <g id="Grupo_14993" data-name="Grupo 14993">
            <path id="Trazado_14990" data-name="Trazado 14990" d="M476.411,2758.3l-12.048-9.583a8.986,8.986,0,0,0-2.582,6.284v12.006a6,6,0,0,0,6,6h12.007v-7.678A9.009,9.009,0,0,0,476.411,2758.3Z" fill="#a0d2f0"/>
            <path id="Trazado_14991" data-name="Trazado 14991" d="M563.834,2767.007V2755a8.983,8.983,0,0,0-2.543-6.247L549.2,2758.3a9,9,0,0,0-3.379,7.032v24.239l12.006-16.561A6,6,0,0,0,563.834,2767.007Z" fill="#a0d2f0"/>
            <path id="Trazado_14992" data-name="Trazado 14992" d="M512.808,2767.007h0a3,3,0,0,1-3-3V2744.36h6v19.646A3,3,0,0,1,512.808,2767.007Z" fill="#a0d2f0"/>
            <path id="Trazado_14993" data-name="Trazado 14993" d="M512.808,2744.353l-17.18-12.885a2.4,2.4,0,0,0-3.439.589l-3.394,5.092,10.532,14.745a2.4,2.4,0,0,0,3.454.48Z" fill="#a0d2f0"/>
            <path id="Trazado_14994" data-name="Trazado 14994" d="M512.808,2744.353l17.179-12.885a2.4,2.4,0,0,1,3.439.589l3.394,5.092-10.532,14.745a2.4,2.4,0,0,1-3.454.48Z" fill="#a0d2f0"/>
          </g>
          <path id="Trazado_14995" data-name="Trazado 14995" d="M527.815,2664.953c-15.007,15.008-44.46,3-44.46,27.014l1.864,17.689a12,12,0,0,0,6.126,9.408l17.09,9.494a9,9,0,0,0,8.746,0l17.09-9.494a12,12,0,0,0,6.126-9.408l2.152-21.008a33.055,33.055,0,0,0,.135-4.494C541.56,2676.514,530.817,2670.956,527.815,2664.953Z" fill="#f0c087"/>
          <path id="Trazado_14996" data-name="Trazado 14996" d="M483.355,2691.967l1.864,17.689a12,12,0,0,0,6.126,9.408l17.09,9.494a8.965,8.965,0,0,0,6.111.914h0s-8.616-2.611-13.744-16.493c-1.571-4.253-3.752-26.764-1.876-29.516,3.708-5.438,24.388-6,30.5-16.092q-.453-.562-.835-1.125c-.021-.031-.045-.061-.066-.092a11.226,11.226,0,0,1-.707-1.2C512.808,2679.961,483.355,2667.955,483.355,2691.967Z" fill="#e6af78"/>
          <path id="Trazado_14997" data-name="Trazado 14997" d="M536.82,2767.007H524.814a3,3,0,0,0-3,3v3h18.01v-3A3,3,0,0,0,536.82,2767.007Z" fill="#a0d2f0"/>
        </g>
      </g>
    </g>
  </g>
</svg>
